<?xml version="1.0" encoding="utf-8"?>
<!-- Generator: Adobe Illustrator 17.1.0, SVG Export Plug-In . SVG Version: 6.00 Build 0)  -->
<!DOCTYPE svg PUBLIC "-//W3C//DTD SVG 1.1//EN" "http://www.w3.org/Graphics/SVG/1.1/DTD/svg11.dtd">
<svg version="1.1" id="Layer_1" xmlns="http://www.w3.org/2000/svg" xmlns:xlink="http://www.w3.org/1999/xlink" x="0px" y="0px"
	 viewBox="0 0 288 361" enable-background="new 0 0 288 361" xml:space="preserve">
<path fill="#D3A1A7" d="M276.2,243.6c-10.2,43.9-89.2,101.1-122.7,114c-0.3-0.2-0.6-0.4-1-0.6c-0.8-0.5-1.8-1.1-2.9-1.8l0.1,1.2
	c-36.5-8.9-117.2-54.9-132.8-95.8C-7.3,219.1,1.4,169.4,36,149.3c32.3-18.6,75.6-5.2,101,29.7c1.9,2.6,3.7,5.3,5.4,8.2
	c18.7-43.4,63.1-66.3,100.1-51.2C279.4,151.2,294.7,199.4,276.2,243.6z"/>
<g>
	<defs>
		<path id="SVGID_1_" d="M275.9,243c-10.2,43.9-89.2,101.1-122.7,114c-0.3-0.2-0.6-0.4-1-0.6c-0.8-0.5-1.8-1.1-2.9-1.8l0.1,1.2
			c-36.5-8.9-117.2-54.9-132.8-95.8C-7.6,218.6,1,168.8,35.6,148.8c32.3-18.6,75.6-5.2,101,29.7c1.9,2.6,3.7,5.3,5.4,8.2
			c18.7-43.4,63.1-66.3,100.1-51.2C279.1,150.7,294.3,198.8,275.9,243z"/>
	</defs>
	<clipPath id="SVGID_2_">
		<use xlink:href="#SVGID_1_"  overflow="visible"/>
	</clipPath>
	<g clip-path="url(#SVGID_2_)">
		<g>
			<path fill="#FFFFFF" d="M123.4,220.7c-2.9,1-5.7,2.3-8.4,3.7c-1.5-2.3-2.7-4.9-3.6-7.6C115.4,217.9,119.4,219.2,123.4,220.7z"/>
			<path fill="#FFFFFF" d="M148.2,233.5c0.6,0.4,1.2,0.9,1.8,1.3c-3.5,1.5-7.3,2.3-11.2,2.3c-8.7,0-16.4-3.9-21.6-9.9
				c3.5-2,6.9-3.6,10.3-4.9C135.1,225.5,142,229.2,148.2,233.5z"/>
			<path fill="#FFFFFF" d="M131.4,221c10.9-4.5,22.7-7.1,35.5-7.7c-1.4,8.5-6.6,15.8-13.8,20c-0.6-0.4-1.1-0.9-1.7-1.3
				C145.4,227.6,138.7,223.9,131.4,221z"/>
			<path fill="#FFFFFF" d="M167.4,208.6c0,0.5,0,1,0,1.6c-13.4,0.7-26.8,3.5-40.1,8.4c-5.3-2-10.8-3.8-16.5-5.1
				c-0.3-1.6-0.4-3.2-0.4-4.9c0-15.8,12.8-28.6,28.6-28.6C154.5,180,167.4,192.8,167.4,208.6z"/>
			<g>
				<path fill="#FFFFFF" d="M279.3,297.8c-1.2-3.9-2.7-7.8-4.7-11.4c-2-3.7-4.2-6.9-6.7-9.6c0.5-1.8,0.7-3.3,0.7-4.3
					c0-7.7-6.1-12.8-18.3-15.4c-3.7-9.7-9.2-18.2-16.5-25.4c-7.3-7.2-16.1-12.6-26.4-16.3c-10.3-3.7-21.6-5.6-34-5.6
					c-2.2,0-4.3,0.1-6.5,0.2c-0.1,1.1-0.2,2.1-0.4,3.2c2-0.1,4.1-0.1,6.2-0.1c12,0,23,1.8,33,5.3c10,3.5,18.6,8.6,25.6,15.2
					c7.1,6.6,12.2,14.4,15.6,23.5c-3.4-0.3-5.3-0.5-5.8-0.5c-7.1,0-18.6,2.8-34.6,8.5c-2.4-4.3-6-6.5-10.5-6.5
					c-4.5,0-10.7,2.2-18.5,6.5c-2.5-6.3-5.9-12.3-10.4-18.1c-4.1-5.2-8.9-9.9-14.2-14c-1,0.6-2,1.1-3.1,1.6
					c5.5,4,10.3,8.6,14.4,13.7c4.5,5.7,8.1,11.8,10.9,18.4c-6.8,3.8-18,12.6-33.5,26.3c-2.6-1.1-4.8-1.7-6.6-1.7
					c-3.4,0-6.9,1.3-10.2,4c-3.4,2.6-7.5,7-12.4,13.2c-5.8-3.6-11.6-6.6-17.4-8.9c3.7-3.1,6.9-6.4,9.4-9.9c2.5-3.5,4.4-7.1,5.8-10.9
					c1.3-3.8,2-7.7,2-11.5c0-11.1-4.8-19.9-14.5-26.2c6.9-5.8,13.5-10.4,19.8-14c-0.8-0.9-1.5-1.8-2.1-2.8
					c-7.1,3.6-13.9,8.5-20.3,14.7c-2.5-1.4-5.4-2.4-8.6-3.3c-3.2-0.8-6.5-1.2-9.9-1.2c-5.1,0-10.5,1.1-16.1,3.2L61,241
					c4.8-2.4,9.9-3.5,15.2-3.5c5.6,0,10.7,1.2,15.6,3.5c-17.2,16-26.8,32.2-28.6,48.7c-3.5-0.8-7.4-1.2-11.6-1.2
					c-10.3,0-19.1,2-26.4,5.8c-10.1-9-15.2-19-15.2-29.9c0-6.6,1.8-13.3,5.4-19.9c3.6-6.6,8.4-12.2,14.3-17
					c6.1-4.7,13.6-8.4,22.5-10.9c3.8-1.1,7.7-1.9,11.7-2.5c1.3-0.8,2.8-1.3,4.7-1.3c1,0,1.9,0.2,2.7,0.4c3.2-0.3,6.5-0.4,9.9-0.4
					c7.5,0,14.7,0.6,21.6,1.9c2.9,0.5,5.9,1.2,8.8,2c-0.3-1.1-0.6-2.2-0.8-3.3c-2-0.5-4-0.9-6.1-1.3c-7.9-1.5-15.9-2.2-24-2.2
					c-13.9,0-26.6,2.3-37.9,7c-11.3,4.7-20.1,11.1-26.4,19.4c-5.2,6.9-8.2,14.4-9.1,22.6c0,0.9-0.1,1.8-0.2,2.6
					c0,0.8-0.1,1.7-0.1,2.5c0,6.5,1.2,12.3,3.5,17.2c2.4,4.9,6.3,9.9,11.9,15c-5.4,4.3-9.3,8.6-11.7,13c-2.5,4.4-3.7,9.1-3.7,14.2
					c0,7,2.2,13.3,6.7,19c4.4,5.6,10.7,10,18.8,13.2c8,3.2,17.1,4.8,27,4.8c13.5,0,27.2-3.2,41-9.6c6.2,2.9,12.9,4.4,20.2,4.4
					c7.1,0,14-1.3,20.7-3.9c6.7-2.6,12.9-6.4,18.7-11.3c8.8,2.1,16.8,3.1,23.8,3.1c2.2,0,6.3-0.3,12.2-0.9
					c3.1,10.5,12.5,15.7,28.1,15.7c10.6,0,20.3-2.1,29-6.3c8.8-4.2,15.6-10,20.6-17.4c5-7.4,7.4-15.7,7.4-25
					C281.1,305.6,280.5,301.8,279.3,297.8z M106.7,314.8c-3.3,4.4-6.6,8.6-9.8,12.7c-4.3,5-7.9,8.8-10.9,11.4
					c-4.7-3.4-8.7-7.5-12-12.2c-3.2-4.8-5.6-10.2-6.9-16.1c7.3-0.6,14.5-3.1,21.5-7.5C93.5,305.8,99.6,309.7,106.7,314.8z
					 M94.7,242.8c9.1,6.1,13.6,14.1,13.6,24.1c0,11.8-5.7,22.2-17,31.2c-8.4-3.9-16.8-6.7-25.2-8.2
					C68.7,273.2,78.3,257.5,94.7,242.8z M66.1,293.3c6,1.7,12.4,4.3,19.2,7.9c-3.1,1.8-6.1,3.2-9,4.1c-2.9,0.9-6.3,1.6-10.2,2.1
					c-0.3-4.4-0.5-6.9-0.5-7.6C65.7,299.1,65.8,296.9,66.1,293.3z M52.6,291.5c3.8,0,7.3,0.4,10.3,1c-0.2,1.4-0.2,2.9-0.2,4.6
					c0,2.4,0.2,5.9,0.7,10.4c-13.4-0.2-25.2-3.9-35.4-10.9C34.8,293.3,43,291.5,52.6,291.5z M46.9,354.8c-6.5,0-12.5-1.4-18.2-4.2
					c-5.7-2.8-10.2-6.7-13.6-11.4c-3.4-4.8-5.1-9.9-5.1-15.4c0-4.7,1.4-9.4,4.1-14c2.7-4.6,6.4-8.3,11.1-11.3
					c5.2,4.1,11.4,7.2,18.5,9.2c7.1,2,13.9,3,20.4,3c3.3,12.9,9.7,23.3,19.4,31.2c-6.4,4.5-12.5,7.8-18.3,9.9
					C59.4,353.7,53.3,354.8,46.9,354.8z M93.8,349.2c-10.9,5.3-20.7,8-29.3,8H62c5.6-1.2,10.1-2.6,13.6-4.1
					c3.5-1.5,7.5-3.7,12.1-6.6c4.4-3,9.1-6.5,14.1-10.5c5-4,9.8-8.1,14.4-12.2c4.6-4.1,8.9-8,12.9-11.8c4-3.7,7.1-6.6,9.4-8.7
					c11.1-10.4,23.6-18.8,37.4-24.9c13.9-6.2,27.1-9.3,39.6-9.3c11.6,0,22.7,2.2,33.3,6.5c5.2,2.1,9.6,4.4,13.1,6.9
					c3.5,2.6,6.2,5.5,8.2,8.7c-7.6-8.4-22.3-12.6-44-12.6c-7.6,0-14.7,0.7-21.3,2c-6.6,1.3-13.2,3.4-19.9,6.2
					c-6.7,2.8-13.7,6.5-20.9,11.2c-7.3,4.6-14.6,10.1-22.1,16.3c-16.2,13.2-26.5,21.4-31,24.7C106.3,342.5,100.7,345.8,93.8,349.2z
					 M120.8,352.3c-6.2,0-11.8-1.1-16.7-3.3c4.2-2.1,8.4-4.4,12.7-7.1c4.3-2.7,10.2-6.5,17.7-11.4c6.9,3.3,14.3,6.1,22.3,8.2
					C145.9,347.7,133.9,352.3,120.8,352.3z M140.7,325.5c1.5-1.1,3.5-2.6,5.8-4.3c2.4-1.7,4.3-3.2,5.8-4.4
					c9.3-6.8,18-12.6,26.2-17.5c-1.4,12.7-7.4,24.7-18,35.8C151.6,331.5,145,328.3,140.7,325.5z M195.2,338.9
					c-3.3,0.5-6.1,0.7-8.4,0.7c-8.4,0-16.1-1.1-23-3.3c5.8-6.4,10.1-12.5,12.8-18.4c2.7-5.8,4.6-12.5,5.5-20.2
					c4.6-2.7,9.8-5.2,15.6-7.3c5.8-2.1,11.9-3.7,18.1-4.7c6.3-1.1,12.3-1.6,18.3-1.6c4.7,0,9.9,0.5,15.4,1.4
					c-0.9,10.3-4.8,20.1-11.7,29.3c-4.4-2.7-9-4-13.8-4c-9.7,0-17,2.7-21.9,8c-4.9,5.4-7.4,10.4-7.4,15.2
					C194.8,336.2,194.9,337.8,195.2,338.9z M197.7,333.5c0-4.6,2.4-9.1,7.2-13.4c4.8-4.3,11.4-6.5,19.8-6.5c3.9,0,7.6,1.2,11.2,3.6
					c-4.6,5.3-10.2,9.8-16.7,13.4c-6.5,3.6-13.5,6.1-21,7.7C197.9,336.9,197.7,335.4,197.7,333.5z M268.7,334
					c-4.7,6.3-11,11.3-19,15c-8,3.7-16.5,5.6-25.7,5.6c-6.7,0-12.2-1.2-16.6-3.4c-4.4-2.3-7.2-5.5-8.4-9.6c4.6-1,9.5-2.6,14.5-4.9
					c5-2.3,9.6-4.9,13.8-8c4.1-3,7.7-6.4,10.8-10.1c1.8,1.8,3.1,3.5,3.8,4.9c0.7,1.4,1.1,3,1.1,4.7c0,1.8-0.7,3.9-2,6.1l2.2,1.4
					c1.7-2.7,2.5-5.3,2.5-7.7c0-4.3-2-8.1-5.8-11.6c6.5-7,10.7-17.1,12.5-30.4c7.3,1.4,13,4.8,17.1,10.3c4.1,5.5,6.2,11.3,6.2,17.3
					C275.7,320.9,273.4,327.7,268.7,334z"/>
			</g>
		</g>
		<g>
			<path fill="#FFFFFF" d="M183.3,165.7c-5.6-8.6-13.2-15.4-22.7-20.5c-9.5-5.2-19.8-7.7-30.8-7.7c-14.4,0-29.5,4-45.2,11.9
				c-0.5,0.4-1.1,0.7-1.8,0.9c-1.1,1.1-2.4,2-4.2,2.4c0,0.1,0,0.1,0,0.2c-10.9,7.2-21,16.5-30.4,28.1S29.2,207.2,19.8,225l3,1.8
				c2.8-4.9,6.4-10.7,10.9-17.3c4.5-6.6,9.1-13,13.8-19.1c5.7-7.2,11-13.2,16.1-18c4.5-4.3,9.3-8,14.3-11.3c0.7-0.6,1.5-1.1,2.5-1.5
				c1.2-1.3,2.7-2.2,4.7-2.5c0-0.1,0-0.3,0-0.4c7-4.1,13.8-7,20.3-8.9c6.5-1.9,13.3-2.8,20.3-2.8c10.7,0,20.6,2.3,29.8,7
				c9.2,4.7,16.5,11,21.9,19c5.4,8,8.1,16.7,8.1,26c0,9.6-3,18-9,25.1c-6,7.1-13.8,11.6-23.3,13.6v2.8c7.4-0.9,14.1-3.3,20-7.3
				c6-4,10.5-9.3,13.7-15.8c3.2-6.6,4.9-13.7,4.9-21.3C191.7,183.7,188.9,174.3,183.3,165.7z"/>
			<path fill="#FFFFFF" d="M232.8,152.9c-8.9-13.2-21.2-23.6-36.8-31.3c-15.6-7.6-32.7-11.4-51.4-11.4c-7.8,0-15.7,0.7-23.7,2.1
				c-8,1.4-16,3.4-23.7,6.1c-6.7,2.3-13.1,5.1-19.1,8.4c0.9,2,1.7,4,2.6,5.9c0.2,0,0.4,0,0.6,0.1c21.4-11.6,43-17.4,65-17.4
				c17.5,0,33.4,3.5,47.8,10.6c14.4,7.1,25.8,16.8,34.1,29.1c8.2,12.3,12.4,25.8,12.4,40.5c0,14.4-3.5,27.6-10.6,39.7
				c-7,12-16.7,21.5-29,28.3c-12.2,6.9-25.9,10.3-40.9,10.3c-12.4,0-23.6-2.2-33.7-6.6c-10.1-4.4-18-10.5-23.6-18.3
				c-5.7-7.8-8.5-16.7-8.5-26.5c0-10,2.9-18.7,8.6-26.3c5.7-7.6,13.3-12.7,22.8-15.3v-3.1c-7.2,1.5-13.5,4.5-19,8.8
				c-5.6,4.3-9.8,9.7-13,16c-0.7,1.6-1.4,3.2-2,4.8c-1.8,4.9-2.6,10-2.6,15.4c0,10.7,3.1,20.4,9.3,29.1c6.1,8.7,14.8,15.5,25.8,20.3
				c11,4.9,23.3,7.3,37,7.3c10.9,0,20.9-1.5,29.7-4.7c8.9-3.1,17.3-8,25.4-14.6c6.4-5.3,11.8-11.2,16.4-17.9
				c4.5-6.6,8-13.8,10.2-21.5c2.3-7.7,3.4-15.6,3.4-23.7C246.2,180.7,241.8,166.1,232.8,152.9z"/>
		</g>
	</g>
</g>
</svg>
