<?xml version="1.0" encoding="utf-8"?>
<!-- Generator: Adobe Illustrator 17.1.0, SVG Export Plug-In . SVG Version: 6.00 Build 0)  -->
<!DOCTYPE svg PUBLIC "-//W3C//DTD SVG 1.1//EN" "http://www.w3.org/Graphics/SVG/1.1/DTD/svg11.dtd">
<svg version="1.1" id="Layer_1" xmlns="http://www.w3.org/2000/svg" xmlns:xlink="http://www.w3.org/1999/xlink" x="0px" y="0px"
	 viewBox="0 0 288 288" enable-background="new 0 0 288 288" xml:space="preserve">
<g>
	<path fill="#231F20" d="M92,153.3c-1.3,2.1-2.6,3.6-3.9,4.7c-1.4,1-3.1,1.5-5.2,1.5c-3,0-5.4-1.3-7.3-3.8
		c-1.8-2.5-2.7-6.6-2.7-12.2s0.9-9.6,2.8-12.2c1.9-2.6,4.3-3.9,7.3-3.9c1.8,0,3.3,0.4,4.6,1.1c1.3,0.7,2.6,2,3.9,3.9l4.5-3.3
		c-1.8-2.3-3.7-4-5.7-4.9c-2-0.9-4.5-1.4-7.2-1.4c-2.3,0-4.4,0.4-6.4,1.2c-2,0.8-3.7,2.1-5.2,3.8c-1.5,1.7-2.6,3.9-3.4,6.5
		c-0.8,2.6-1.3,5.7-1.3,9.4c0,3.7,0.4,6.9,1.3,9.5s2,4.7,3.5,6.4c1.5,1.7,3.1,2.9,5.1,3.6c1.9,0.8,4,1.1,6.2,1.1
		c3.3,0,6.1-0.8,8.4-2.3c2.3-1.5,4.2-3.4,5.6-5.6L92,153.3z"/>
	<path fill="#231F20" d="M129.8,129.8c-0.5-1.4-1.3-2.7-2.5-3.7c-1.1-1-2.5-1.9-4.1-2.5c-1.7-0.6-3.6-0.9-5.9-0.9
		c-3.4,0-6.3,0.8-8.6,2.3c-2.3,1.6-4.1,3.7-5.3,6.3l5.3,2.1c0.7-2,1.8-3.5,3.2-4.6c1.4-1,3.1-1.6,5.2-1.6c2.7,0,4.7,0.8,5.8,2.3
		c1.2,1.5,1.7,3.5,1.7,5.8v3.3c-7.9,0.1-13.6,1.5-17.1,4c-3.5,2.5-5.3,5.9-5.3,10.2c0,2.1,0.4,3.8,1.1,5.2c0.7,1.4,1.7,2.6,2.8,3.5
		c1.2,0.9,2.4,1.6,3.9,2c1.4,0.4,2.9,0.6,4.3,0.6c2.7,0,4.9-0.5,6.6-1.5c1.7-1,3.1-2.2,4.2-3.7l0.3,4.4h5.1v-28.8
		C130.6,132.8,130.3,131.3,129.8,129.8z M124.7,155c-1.1,1.3-2.4,2.3-3.8,3.1c-1.4,0.8-3.1,1.3-4.9,1.3c-2.1,0-3.9-0.6-5.4-1.7
		c-1.5-1.1-2.2-2.9-2.2-5.4c0-3,1.3-5.2,4-6.7s6.8-2.3,12.4-2.4V155z"/>
	<path fill="#231F20" d="M154.4,141l15.9-17.2h-7.6l-14.5,16.5v-30.7h-5.8v53.8h5.8v-20.9l17.1,20.9h7.5L154.4,141z"/>
	<path fill="#231F20" d="M200,156.3c0.8-0.6,1.5-1.4,2.3-2.3L200,156.3z"/>
</g>
<g>
	<path fill="#D2A1A7" d="M239.4,149.9c-0.7,0.3-1.5,0.6-2.2,1c-0.4-0.6-0.7-1.3-0.9-2C237.4,149.1,238.4,149.5,239.4,149.9z"/>
	<path fill="#D2A1A7" d="M245.8,153.2c0.2,0.1,0.3,0.2,0.5,0.3c-0.9,0.4-1.9,0.6-2.9,0.6c-2.2,0-4.2-1-5.6-2.6
		c0.9-0.5,1.8-0.9,2.7-1.3C242.4,151.1,244.2,152.1,245.8,153.2z"/>
	<path fill="#D2A1A7" d="M241.5,149.9c2.8-1.2,5.9-1.8,9.2-2c-0.4,2.2-1.7,4.1-3.6,5.2c-0.1-0.1-0.3-0.2-0.4-0.3
		C245.1,151.7,243.4,150.7,241.5,149.9z"/>
	<path fill="#D2A1A7" d="M250.8,146.7c0,0.1,0,0.3,0,0.4c-3.5,0.2-6.9,0.9-10.4,2.2c-1.4-0.5-2.8-1-4.3-1.3
		c-0.1-0.4-0.1-0.8-0.1-1.3c0-4.1,3.3-7.4,7.4-7.4C247.4,139.4,250.8,142.7,250.8,146.7z"/>
	<g>
		<path fill="#231718" d="M279.7,169.8c-0.3-1-0.7-2-1.2-2.9c-0.5-0.9-1.1-1.8-1.7-2.5c0.1-0.5,0.2-0.8,0.2-1.1c0-2-1.6-3.3-4.7-4
			c-0.9-2.5-2.4-4.7-4.2-6.6c-1.9-1.8-4.2-3.3-6.8-4.2c-2.7-1-5.6-1.4-8.8-1.4c-0.6,0-1.1,0-1.7,0c0,0.3-0.1,0.5-0.1,0.8
			c0.5,0,1.1,0,1.6,0c3.1,0,5.9,0.5,8.5,1.4c2.6,0.9,4.8,2.2,6.6,3.9s3.2,3.7,4,6.1c-0.9-0.1-1.4-0.1-1.5-0.1
			c-1.8,0-4.8,0.7-8.9,2.2c-0.6-1.1-1.5-1.7-2.7-1.7c-1.2,0-2.8,0.6-4.8,1.7c-0.6-1.6-1.5-3.2-2.7-4.7c-1.1-1.4-2.3-2.6-3.7-3.6
			c-0.3,0.2-0.5,0.3-0.8,0.4c1.4,1,2.6,2.2,3.7,3.5c1.2,1.5,2.1,3,2.8,4.8c-1.8,1-4.6,3.2-8.6,6.8c-0.7-0.3-1.2-0.4-1.7-0.4
			c-0.9,0-1.8,0.3-2.6,1c-0.9,0.7-1.9,1.8-3.2,3.4c-1.5-0.9-3-1.7-4.5-2.3c1-0.8,1.8-1.7,2.4-2.6c0.7-0.9,1.1-1.8,1.5-2.8
			c0.3-1,0.5-2,0.5-3c0-2.9-1.2-5.1-3.7-6.8c1.8-1.5,3.5-2.7,5.1-3.6c-0.2-0.2-0.4-0.5-0.5-0.7c-1.8,0.9-3.6,2.2-5.2,3.8
			c-0.7-0.4-1.4-0.6-2.2-0.8c-0.8-0.2-1.7-0.3-2.6-0.3c-1.3,0-2.7,0.3-4.2,0.8l0.2,0.9c1.2-0.6,2.6-0.9,3.9-0.9c1.4,0,2.8,0.3,4,0.9
			c-4.4,4.1-6.9,8.3-7.4,12.6c-0.9-0.2-1.9-0.3-3-0.3c-2.7,0-4.9,0.5-6.8,1.5c-2.6-2.3-3.9-4.9-3.9-7.7c0-1.7,0.5-3.4,1.4-5.1
			c0.9-1.7,2.2-3.2,3.7-4.4c1.6-1.2,3.5-2.2,5.8-2.8c2.3-0.7,4.8-1,7.5-1c1.9,0,3.8,0.2,5.6,0.5c0.8,0.1,1.5,0.3,2.3,0.5
			c-0.1-0.3-0.2-0.6-0.2-0.9c-0.5-0.1-1-0.2-1.6-0.3c-2-0.4-4.1-0.6-6.2-0.6c-3.6,0-6.9,0.6-9.8,1.8c-2.9,1.2-5.2,2.9-6.8,5
			c-1.6,2.1-2.4,4.5-2.4,7.2c0,1.7,0.3,3.2,0.9,4.4c0.6,1.3,1.6,2.6,3.1,3.9c-1.4,1.1-2.4,2.2-3,3.3c-0.6,1.1-1,2.4-1,3.7
			c0,1.8,0.6,3.4,1.7,4.9c1.1,1.5,2.8,2.6,4.8,3.4c2.1,0.8,4.4,1.2,7,1.2c3.5,0,7-0.8,10.6-2.5c1.6,0.8,3.3,1.1,5.2,1.1
			c1.8,0,3.6-0.3,5.3-1c1.7-0.7,3.3-1.7,4.8-2.9c2.3,0.5,4.3,0.8,6.1,0.8c0.6,0,1.6-0.1,3.2-0.2c0.8,2.7,3.2,4,7.3,4
			c2.7,0,5.2-0.5,7.5-1.6c2.3-1.1,4-2.6,5.3-4.5c1.3-1.9,1.9-4.1,1.9-6.4C280.1,171.8,280,170.8,279.7,169.8z M235.1,174.1
			c-0.8,1.1-1.7,2.2-2.5,3.3c-1.1,1.3-2,2.3-2.8,3c-1.2-0.9-2.2-1.9-3.1-3.2c-0.8-1.2-1.4-2.6-1.8-4.2c1.9-0.2,3.7-0.8,5.5-1.9
			C231.7,171.8,233.3,172.8,235.1,174.1z M232,155.6c2.3,1.6,3.5,3.6,3.5,6.2c0,3.1-1.5,5.7-4.4,8.1c-2.2-1-4.3-1.7-6.5-2.1
			C225.3,163.4,227.8,159.4,232,155.6z M224.6,168.6c1.5,0.4,3.2,1.1,5,2c-0.8,0.5-1.6,0.8-2.3,1.1c-0.7,0.2-1.6,0.4-2.6,0.5
			c-0.1-1.1-0.1-1.8-0.1-2C224.5,170.1,224.5,169.5,224.6,168.6z M221.1,168.1c1,0,1.9,0.1,2.7,0.3c0,0.4-0.1,0.7-0.1,1.2
			c0,0.6,0.1,1.5,0.2,2.7c-3.5-0.1-6.5-1-9.1-2.8C216.5,168.6,218.7,168.1,221.1,168.1z M219.7,184.5c-1.7,0-3.2-0.4-4.7-1.1
			c-1.5-0.7-2.6-1.7-3.5-3c-0.9-1.2-1.3-2.6-1.3-4c0-1.2,0.4-2.4,1.1-3.6c0.7-1.2,1.7-2.1,2.9-2.9c1.3,1.1,2.9,1.8,4.8,2.4
			c1.8,0.5,3.6,0.8,5.3,0.8c0.8,3.3,2.5,6,5,8.1c-1.7,1.2-3.2,2-4.7,2.6C222.9,184.2,221.3,184.5,219.7,184.5z M231.8,183
			c-2.8,1.4-5.3,2.1-7.6,2.1h-0.7c1.4-0.3,2.6-0.7,3.5-1.1c0.9-0.4,1.9-1,3.1-1.7c1.1-0.8,2.4-1.7,3.6-2.7c1.3-1,2.5-2.1,3.7-3.1
			c1.2-1.1,2.3-2.1,3.3-3s1.8-1.7,2.4-2.2c2.9-2.7,6.1-4.8,9.7-6.4c3.6-1.6,7-2.4,10.2-2.4c3,0,5.8,0.6,8.6,1.7
			c1.4,0.5,2.5,1.1,3.4,1.8c0.9,0.7,1.6,1.4,2.1,2.3c-2-2.2-5.8-3.2-11.4-3.2c-2,0-3.8,0.2-5.5,0.5c-1.7,0.3-3.4,0.9-5.1,1.6
			c-1.7,0.7-3.5,1.7-5.4,2.9c-1.9,1.2-3.8,2.6-5.7,4.2c-4.2,3.4-6.8,5.5-8,6.4C235,181.3,233.5,182.2,231.8,183z M238.7,183.8
			c-1.6,0-3-0.3-4.3-0.9c1.1-0.5,2.2-1.1,3.3-1.8c1.1-0.7,2.6-1.7,4.6-3c1.8,0.9,3.7,1.6,5.8,2.1
			C245.2,182.7,242.1,183.8,238.7,183.8z M243.9,176.9c0.4-0.3,0.9-0.7,1.5-1.1c0.6-0.4,1.1-0.8,1.5-1.1c2.4-1.8,4.7-3.3,6.8-4.5
			c-0.4,3.3-1.9,6.4-4.6,9.2C246.7,178.5,245,177.6,243.9,176.9z M257.9,180.4c-0.8,0.1-1.6,0.2-2.2,0.2c-2.2,0-4.1-0.3-5.9-0.9
			c1.5-1.7,2.6-3.2,3.3-4.7c0.7-1.5,1.2-3.2,1.4-5.2c1.2-0.7,2.5-1.3,4-1.9c1.5-0.5,3.1-1,4.7-1.2c1.6-0.3,3.2-0.4,4.7-0.4
			c1.2,0,2.5,0.1,4,0.4c-0.2,2.7-1.2,5.2-3,7.6c-1.1-0.7-2.3-1-3.6-1c-2.5,0-4.4,0.7-5.7,2.1c-1.3,1.4-1.9,2.7-1.9,3.9
			C257.8,179.7,257.9,180.1,257.9,180.4z M258.6,179c0-1.2,0.6-2.4,1.9-3.5c1.2-1.1,2.9-1.7,5.1-1.7c1,0,2,0.3,2.9,0.9
			c-1.2,1.4-2.6,2.5-4.3,3.5c-1.7,0.9-3.5,1.6-5.4,2C258.6,179.9,258.6,179.5,258.6,179z M276.9,179.1c-1.2,1.6-2.8,2.9-4.9,3.9
			c-2.1,1-4.3,1.4-6.6,1.4c-1.7,0-3.1-0.3-4.3-0.9c-1.1-0.6-1.9-1.4-2.2-2.5c1.2-0.3,2.4-0.7,3.7-1.3c1.3-0.6,2.5-1.3,3.6-2.1
			c1.1-0.8,2-1.6,2.8-2.6c0.5,0.5,0.8,0.9,1,1.3c0.2,0.4,0.3,0.8,0.3,1.2c0,0.5-0.2,1-0.5,1.6l0.6,0.4c0.4-0.7,0.7-1.4,0.7-2
			c0-1.1-0.5-2.1-1.5-3c1.7-1.8,2.8-4.4,3.2-7.8c1.9,0.4,3.4,1.2,4.4,2.7c1.1,1.4,1.6,2.9,1.6,4.5
			C278.7,175.7,278.1,177.5,276.9,179.1z"/>
	</g>
	<g>
		<path fill="#231F20" d="M243.2,211.3c-6.7,0-13.3-0.6-19-1.8l-13.9-24c2.6,2.1,6.9,3.8,12.5,5.1c6,1.4,13,2.1,20.3,2.1
			c7.3,0,14.3-0.7,20.3-2.1c6.1-1.4,10.7-3.4,13.2-5.7l-14.2,24.5C256.9,210.7,250.2,211.3,243.2,211.3z"/>
		<path fill="#231F20" d="M275.5,186.3l-3.8,6.5l-3.8,6.7l-5.5,9.6c-5.7,1.2-12.3,1.9-19.1,1.9c-6.7,0-13.1-0.6-18.7-1.8l-5.6-9.7
			l-3.9-6.8l-3.5-6c2.7,1.7,6.5,3.1,11.3,4.2c0,0,0,0,0,0c6,1.4,13.1,2.1,20.4,2.1s14.4-0.7,20.4-2.1c0,0,0,0,0.1,0
			C268.8,189.8,272.8,188.2,275.5,186.3 M278,182.9c-1.9,3-7.2,5.6-14.5,7.3h0c-5.7,1.3-12.7,2.1-20.3,2.1s-14.5-0.8-20.3-2.1h0
			c-7.3-1.7-12.6-4.3-14.5-7.3l5.8,10.1l3.9,6.8l5.7,9.9v0c5.5,1.2,12.1,1.9,19.2,1.9c7.3,0,14-0.7,19.6-2v0l5.7-9.9l3.8-6.7
			l5.8-10.1L278,182.9L278,182.9z"/>
	</g>
</g>
<g>
	<g>
		<path fill="#231F20" d="M234.4,144L234.4,144z"/>
		<circle fill="#231F20" cx="234" cy="152.9" r="0"/>
		<circle fill="#231F20" cx="232.7" cy="161.7" r="0"/>
		<circle fill="#231F20" cx="230.6" cy="170.3" r="0.1"/>
		<circle fill="#231F20" cx="227.7" cy="178.7" r="0.1"/>
		<circle fill="#231F20" cx="223.9" cy="186.7" r="0.1"/>
		<circle fill="#231F20" cx="219.4" cy="194.3" r="0.2"/>
		<circle fill="#231F20" cx="214.2" cy="201.5" r="0.2"/>
		<circle fill="#231F20" cx="208.3" cy="208.2" r="0.3"/>
		<circle fill="#231F20" cx="201.8" cy="214.2" r="0.4"/>
		<circle fill="#231F20" cx="194.8" cy="219.6" r="0.5"/>
		<circle fill="#231F20" cx="187.2" cy="224.3" r="0.6"/>
		<circle fill="#231F20" cx="179.3" cy="228.2" r="0.7"/>
		<circle fill="#231F20" cx="171" cy="231.4" r="0.8"/>
		<circle fill="#231F20" cx="162.4" cy="233.7" r="0.9"/>
		<circle fill="#231F20" cx="153.7" cy="235.2" r="1"/>
		<circle fill="#231F20" cx="144.8" cy="235.8" r="1.1"/>
		<circle fill="#231F20" cx="135.9" cy="235.6" r="1.2"/>
		<circle fill="#231F20" cx="127.1" cy="234.6" r="1.3"/>
		<circle fill="#231F20" cx="118.5" cy="232.7" r="1.4"/>
		<circle fill="#231F20" cx="110" cy="229.9" r="1.5"/>
		<circle fill="#231F20" cx="101.9" cy="226.4" r="1.6"/>
		<circle fill="#231F20" cx="94.1" cy="222.1" r="1.7"/>
		<circle fill="#231F20" cx="86.8" cy="217" r="1.8"/>
		<circle fill="#231F20" cx="80" cy="211.3" r="1.9"/>
		<circle fill="#231F20" cx="73.8" cy="204.9" r="1.9"/>
		<circle fill="#231F20" cx="68.3" cy="198" r="2"/>
		<circle fill="#231F20" cx="63.4" cy="190.6" r="2.1"/>
		<circle fill="#231F20" cx="59.3" cy="182.8" r="2.1"/>
		<circle fill="#231F20" cx="55.9" cy="174.5" r="2.1"/>
		<circle fill="#231F20" cx="53.4" cy="166" r="2.2"/>
		<circle fill="#231F20" cx="51.7" cy="157.3" r="2.2"/>
		<circle fill="#231F20" cx="50.8" cy="148.5" r="2.2"/>
		<circle fill="#231F20" cx="50.8" cy="139.6" r="2.2"/>
		<circle fill="#231F20" cx="51.7" cy="130.8" r="2.2"/>
		<circle fill="#231F20" cx="53.4" cy="122.1" r="2.2"/>
		<circle fill="#231F20" cx="55.9" cy="113.5" r="2.1"/>
		<circle fill="#231F20" cx="59.2" cy="105.3" r="2.1"/>
		<circle fill="#231F20" cx="63.4" cy="97.5" r="2.1"/>
		<circle fill="#231F20" cx="68.2" cy="90" r="2"/>
		<circle fill="#231F20" cx="73.8" cy="83.1" r="1.9"/>
		<circle fill="#231F20" cx="80" cy="76.8" r="1.9"/>
		<circle fill="#231F20" cx="86.8" cy="71" r="1.8"/>
		<circle fill="#231F20" cx="94" cy="66" r="1.7"/>
		<circle fill="#231F20" cx="101.8" cy="61.7" r="1.6"/>
		<circle fill="#231F20" cx="109.9" cy="58.1" r="1.5"/>
		<circle fill="#231F20" cx="118.4" cy="55.4" r="1.4"/>
		<circle fill="#231F20" cx="127" cy="53.5" r="1.3"/>
		<circle fill="#231F20" cx="135.8" cy="52.4" r="1.2"/>
		<circle fill="#231F20" cx="144.7" cy="52.2" r="1.1"/>
		<circle fill="#231F20" cx="153.6" cy="52.8" r="1"/>
		<circle fill="#231F20" cx="162.3" cy="54.3" r="0.9"/>
		<circle fill="#231F20" cx="170.9" cy="56.6" r="0.8"/>
		<circle fill="#231F20" cx="179.2" cy="59.7" r="0.7"/>
		<circle fill="#231F20" cx="187.2" cy="63.7" r="0.6"/>
		<circle fill="#231F20" cx="194.7" cy="68.3" r="0.5"/>
		<circle fill="#231F20" cx="201.8" cy="73.7" r="0.4"/>
		<circle fill="#231F20" cx="208.3" cy="79.8" r="0.3"/>
		<circle fill="#231F20" cx="214.1" cy="86.4" r="0.2"/>
		<circle fill="#231F20" cx="219.4" cy="93.6" r="0.2"/>
		<circle fill="#231F20" cx="223.9" cy="101.2" r="0.1"/>
		<circle fill="#231F20" cx="227.6" cy="109.3" r="0.1"/>
		<circle fill="#231F20" cx="230.6" cy="117.6" r="0.1"/>
		<circle fill="#231F20" cx="232.7" cy="126.2" r="0"/>
		<circle fill="#231F20" cx="234" cy="135" r="0"/>
	</g>
</g>
<g>
	<path fill="#231F20" d="M267.7,132.4c-2.3-3.4-5.5-6.1-9.5-8.1c-4-2-8.4-3-13.3-3c-2,0-4.1,0.2-6.1,0.5c-2.1,0.4-4.1,0.9-6.1,1.6
		c-2,0.7-3.9,1.6-5.7,2.6c-1.4-1.9-2.9-3.4-4.6-4.4c-1.7-1-3.4-1.5-5.3-1.5c-1.3,0-2.6,0.3-3.6,0.8c-1.1,0.5-1.9,1.3-2.6,2.2
		c-0.6,0.9-0.9,2-0.9,3.2c0,1.7,0.6,3.1,1.8,4.2l0.6-0.4c-0.7-1-1-2-1-3.1c0-1.6,0.5-2.9,1.7-3.9c1.1-1,2.5-1.5,4.2-1.5
		c3,0,5.8,1.8,8.4,5.4c-2.2,1.4-4.2,2.8-6,4.3c-1.6,1.3-3,2.7-4.3,4.2c-0.2,0.2-0.4,0.4-0.6,0.6c-1,1.2-1.9,2.4-2.7,3.6
		c-0.4,0.6-0.8,1.2-1.1,1.8c-0.9,1.5-1.7,3-2.5,4.2c-0.8,1.3-1.6,2.5-2.2,3.6c-1.3,2-2.5,3.6-3.5,4.8c-0.1,0.1-0.1,0.2-0.2,0.2
		c-0.8,0.9-1.6,1.7-2.3,2.3c-0.4,0.4-0.8,0.8-1.3,1.2c-0.7,0.5-1.6,1-2.5,1.3c-0.7,0.3-1.4,0.4-2.2,0.5c-0.3,0-0.7,0.1-1,0.1
		c-1.4,0-2.7-0.3-4-0.7c-1.2-0.5-2.3-1.3-3.2-2.4c-0.9-1.1-1.7-2.6-2.2-4.5c-0.6-1.9-0.9-4.2-0.9-7H207c0-3.9-0.3-7.3-0.9-10.1
		c-0.6-2.8-1.5-5.1-2.7-6.8c-1.2-1.8-2.7-3.1-4.6-3.9c-1.8-0.8-4-1.2-6.4-1.2c-2.2,0-4.3,0.4-6.2,1.2c-1.9,0.8-3.6,2.1-5.1,3.8
		c-1.4,1.7-2.6,3.9-3.4,6.6c-0.8,2.7-1.2,5.9-1.2,9.6c0,3.5,0.4,6.5,1.2,9c0.8,2.5,1.9,4.6,3.3,6.3c1.4,1.7,3.1,2.9,5.1,3.7
		c1.9,0.8,4.1,1.2,6.5,1.2c2.5,0,4.7-0.4,6.5-1.2c0.7,0.1,1.3,0.1,1.9,0.1c5,0,9.7-1.3,14-3.8s7.9-6,10.5-10.2
		c0.7-1.1,1.2-2.1,1.7-3.2c0.2-0.4,0.4-0.8,0.5-1.2c1.1-2.9,1.7-5.9,1.7-9.1c0-0.8,0-1.5-0.1-2.1c1.8-1,3.6-1.8,5.2-2.3
		c1.7-0.5,3.4-0.7,5.2-0.7c2.8,0,5.3,0.6,7.7,1.8c2.4,1.2,4.3,2.9,5.6,4.9c1.4,2.1,2.1,4.3,2.1,6.7c0,2.5-0.8,4.6-2.3,6.5
		c-1.5,1.8-3.6,3-6,3.5v0.7c1.9-0.2,3.6-0.8,5.2-1.9c1.5-1,2.7-2.4,3.5-4.1c0.8-1.7,1.3-3.5,1.3-5.5c0-2.6-0.7-5.1-2.2-7.3
		c-1.4-2.2-3.4-4-5.9-5.3c-2.5-1.3-5.1-2-8-2c-3.8,0-7.7,1-11.8,3.2c-0.3-1.5-0.7-2.9-1.4-4c5.7-3.2,11.5-4.8,17.4-4.8
		c4.5,0,8.6,0.9,12.3,2.7c3.7,1.8,6.7,4.3,8.8,7.5c2.1,3.2,3.2,6.7,3.2,10.5c0,3.7-0.9,7.1-2.7,10.2c-1.8,3.1-4.3,5.5-7.5,7.3
		c-3.2,1.8-6.7,2.7-10.5,2.7c-3.2,0-6.1-0.6-8.7-1.7c-2.6-1.1-4.6-2.7-6.1-4.7c-1.5-2-2.2-4.3-2.2-6.8c0-2.6,0.8-4.8,2.2-6.8
		c1.5-2,3.4-3.3,5.9-3.9v-0.8c-1.8,0.4-3.5,1.2-4.9,2.3c-1.4,1.1-2.5,2.5-3.4,4.1c-0.2,0.4-0.4,0.8-0.5,1.2c-0.5,1.3-0.7,2.6-0.7,4
		c0,2.8,0.8,5.3,2.4,7.5c1.6,2.2,3.8,4,6.7,5.2c2.9,1.3,6,1.9,9.5,1.9c2.8,0,5.4-0.4,7.7-1.2c2.3-0.8,4.5-2.1,6.5-3.8
		c1.7-1.4,3.1-2.9,4.2-4.6c1.2-1.7,2.1-3.6,2.6-5.6c0.6-2,0.9-4,0.9-6.1C271.1,139.6,270,135.8,267.7,132.4z M185.8,130.3
		c1.7-2.1,3.9-3.1,6.6-3.1c1.3,0,2.5,0.2,3.5,0.6c1,0.4,1.9,1.2,2.6,2.2c0.7,1,1.3,2.3,1.7,3.9c0.4,1.6,0.7,3.6,0.8,6h-18.2
		C183.1,135.6,184.1,132.4,185.8,130.3z M228.2,134.1c0,0.4,0.1,0.8,0.1,1.2c0,1.7-0.2,3.4-0.7,5.2c-0.5,1.8-1.1,3.5-2,5.3
		c-0.9,1.8-1.9,3.4-3.1,5c-1.2,1.5-2.5,2.9-3.9,4.2c-2.7,2.3-5.6,4-8.8,5.2c-2.9,1.1-5.8,1.7-8.7,1.8c0,0,0,0,0,0
		c2.2-1.4,4-3.1,5.2-5c0,0,0,0,0,0c0,0,0-0.1,0.1-0.1v0c1-1.2,2.6-4,5.1-9.3c0-0.1,0.1-0.2,0.1-0.3c2.3-4.7,5.4-9.3,6.4-10.9v0
		c0.1-0.1,0.1-0.2,0.2-0.3c2.2-2.8,4.8-5.3,8-7.6c0.7,1.4,1.2,2.7,1.4,4c-2.8,1.8-5.4,4.3-7.9,7.3c-2.4,3-4.9,6.8-7.3,11.3l0.8,0.5
		c0.7-1.3,1.7-2.8,2.8-4.5c1.2-1.7,2.3-3.4,3.6-4.9c1.5-1.9,2.9-3.4,4.2-4.7C225.3,136.1,226.7,135,228.2,134.1z"/>
</g>
</svg>
