<?xml version="1.0" encoding="utf-8"?>
<!-- Generator: Adobe Illustrator 17.1.0, SVG Export Plug-In . SVG Version: 6.00 Build 0)  -->
<!DOCTYPE svg PUBLIC "-//W3C//DTD SVG 1.1//EN" "http://www.w3.org/Graphics/SVG/1.1/DTD/svg11.dtd">
<svg version="1.1" id="Layer_1" xmlns="http://www.w3.org/2000/svg" xmlns:xlink="http://www.w3.org/1999/xlink" x="0px" y="0px"
	 viewBox="0 0 2350 357" enable-background="new 0 0 2350 357" xml:space="preserve">
<path fill="#D1A1A7" d="M2265.5,214.5c0,33.4-27.1,60.5-60.5,60.5H169v-1c-33.4,0-60.5-27.1-60.5-60.5c0-29.6,21.3-54.3,49.4-59.5
	H2205C2238.4,154,2265.5,181.1,2265.5,214.5z"/>
<path opacity="0.1" fill-rule="evenodd" clip-rule="evenodd" fill="#00A99D" d="M6159.9-2000L6011.5,204.3c-0.1,0.1,0.5,0.2-0.5,0.3
	v0c-1,2.1-2.9,4.3-4.3,6.8L5858.1-2000H6159.9z"/>
<path opacity="0.1" fill-rule="evenodd" clip-rule="evenodd" fill="#00A99D" d="M6797.9-1863.6L6028.7,191.5c0,0,0,0,0,0
	c-3,1.3-6.1,3-8.8,5.1c0,0,0,0,0,0l489.1-2146.8L6797.9-1863.6z"/>
<path opacity="0.1" fill-rule="evenodd" clip-rule="evenodd" fill="#00A99D" d="M5358.5-1910.4l639.7,2118.8c0,0,0,0,0,0
	c-2.8-3.1-5.8-5.9-9.1-7.9l-913-2004.6L5358.5-1910.4z"/>
<path opacity="0.1" fill-rule="evenodd" clip-rule="evenodd" fill="#00A99D" d="M5975.5,194.8c-0.1,0-0.1,0.2-0.2,0.2c0,0,0,0,0,0
	c-3.8-1-7.6-1.2-11.4-1.2L4510.5-1434.8l238-185.3L5975.5,194.8z"/>
<path opacity="0.1" fill-rule="evenodd" clip-rule="evenodd" fill="#00A99D" d="M7404.8-1521.3L6052.2,189.6l-0.1,0.4h0
	c-3.3-1-6.6-1-10-1h-0.2l1114.2-1880.9L7404.8-1521.3z"/>
<path opacity="0.1" fill-rule="evenodd" clip-rule="evenodd" fill="#00A99D" d="M7908.1-963.5L6071.3,204.4c0,0,0,0,0,0c0,0,0,0,0,0
	c-1.7-2.9-3.8-5.5-6.1-7.7l1664.4-1403.3L7908.1-963.5z"/>
<path opacity="0.1" fill-rule="evenodd" clip-rule="evenodd" fill="#00A99D" d="M4195.2-1088.1l1752.1,1287c-2.8,2-5.3,4.7-7.3,7.5
	v0.6h0.2l0-0.3l0-0.1L4033.3-833.5L4195.2-1088.1z"/>
<path opacity="0.1" fill-rule="evenodd" clip-rule="evenodd" fill="#00A99D" d="M5935.3,216.4c-1,3.2-2.3,6.7-2.3,10.2v0.1
	l-2117.7-486l87-288.9L5935.3,216.4z"/>
<path opacity="0.1" fill-rule="evenodd" clip-rule="evenodd" fill="#00A99D" d="M8173.6-371.8L6077,224.7l-3.7,1.1l3.7-1.1
	c-0.1-3.3-0.4-6.6-1.4-9.7l0.1,0l1996.1-870.7L8173.6-371.8z"/>
<path opacity="0.1" fill-rule="evenodd" clip-rule="evenodd" fill="#00A99D" d="M8259.5,242.1L6073.7,244h-0.2c1.1-3,2-6,2.5-9
	c0,0,0,0,0,0l0.2,0L8239-58.9L8259.5,242.1z"/>
<path opacity="0.1" fill-rule="evenodd" clip-rule="evenodd" fill="#00A99D" d="M5933,234.8c0,3.4,1.7,6.8,2.9,10.2H3758.5l20-301
	L5933,234.8L5933,234.8z"/>
<path opacity="0.1" fill-rule="evenodd" clip-rule="evenodd" fill="#00A99D" d="M6004.8,302.4l-159.9,2187.1l-298.7-42.1
	l451.3-2147.5l0-0.1c0,0,0,0,0,0C6000.1,300.8,6002.6,301.7,6004.8,302.4z"/>
<path opacity="0.1" fill-rule="evenodd" clip-rule="evenodd" fill="#00A99D" d="M5983.2,293c2.1,1.2,4.2,2.4,6.3,3.4l-782,2052.2
	l-274.1-126.1L5983.2,293C5983.2,293,5983.2,293,5983.2,293z"/>
<path opacity="0.1" fill-rule="evenodd" clip-rule="evenodd" fill="#00A99D" d="M6646.6,2403.9l-294.4,65.9L6017.4,300.5
	c2-1.1,4.2-2.3,6.4-3.7c0.1,0,0.1-0.1,0.2-0.1L6646.6,2403.9z"/>
<path opacity="0.1" fill-rule="evenodd" clip-rule="evenodd" fill="#00A99D" d="M7258.4,2117.4l-261.6,150.3L6031.4,291.8
	c1.8-1.3,3.7-2.6,5.6-4L7258.4,2117.4z"/>
<path opacity="0.1" fill-rule="evenodd" clip-rule="evenodd" fill="#00A99D" d="M5968.7,284c2.1,1.4,4.2,2.8,6.3,4L4602.7,2002.8
	l-222.4-203.9L5968.7,284z"/>
<path opacity="0.1" fill-rule="evenodd" clip-rule="evenodd" fill="#00A99D" d="M5959.1,276.9L5959.1,276.9L4102.7,1442
	l-142.9-265.7l1992.7-905l0,0c1,1,2.1,1.9,3.1,2.9C5956.8,275.1,5958,276,5959.1,276.9z"/>
<path opacity="0.1" fill-rule="evenodd" clip-rule="evenodd" fill="#00A99D" d="M7814.8,1588.5L7619,1818L6045.2,281.2
	c1.7-1.5,3.5-2.9,5.1-4.4c0,0,0.1-0.1,0.1-0.1c0,0,0,0,0,0L7814.8,1588.5z"/>
<path opacity="0.1" fill-rule="evenodd" clip-rule="evenodd" fill="#00A99D" d="M8110.6,1050.3L7984.1,1324L6056,271l-0.1,0h0.1
	c1.8-1,3.4-3.4,5.3-5.3c0,0,0.1-0.1,0.1-0.1l0.1,0L8110.6,1050.3z"/>
<path opacity="0.1" fill-rule="evenodd" clip-rule="evenodd" fill="#00A99D" d="M5945.4,263.2c0,0,0-0.2,0-0.2h0L3840.7,848.6
	l-61.2-295.3L5940.5,255C5941.6,257.7,5943.3,260.4,5945.4,263.2z"/>
<path opacity="0.1" fill-rule="evenodd" clip-rule="evenodd" fill="#00A99D" d="M8237.4,559l-62,295.2l-2110-593.5c0,0,0,0,0,0
	c1.8-2.4,3.3-4.9,4.5-7.2L8237.4,559z"/>
<g>
	<path opacity="0.2" fill="#D3A1A7" d="M6062.9,247.2c-4.4,18.9-38.4,43.5-52.8,49c-0.1-0.1-0.3-0.2-0.4-0.3
		c-0.3-0.2-0.8-0.5-1.2-0.8l0,0.5c-15.7-3.8-50.4-23.6-57.1-41.2c-10.4-17.8-6.7-39.2,8.2-47.9c13.9-8,32.5-2.2,43.4,12.8
		c0.8,1.1,1.6,2.3,2.3,3.5c8-18.7,27.1-28.5,43.1-22C6064.3,207.4,6070.8,228.2,6062.9,247.2z"/>
	<g>
		<g>
			<defs>
				<path id="SVGID_1_" d="M6062.8,246.9c-4.4,18.9-38.4,43.5-52.8,49c-0.1-0.1-0.3-0.2-0.4-0.3c-0.3-0.2-0.8-0.5-1.2-0.8l0,0.5
					c-15.7-3.8-50.4-23.6-57.1-41.2c-10.4-17.8-6.7-39.2,8.2-47.8c13.9-8,32.5-2.2,43.4,12.8c0.8,1.1,1.6,2.3,2.3,3.5
					c8-18.7,27.1-28.5,43.1-22C6064.1,207.2,6070.7,227.9,6062.8,246.9z"/>
			</defs>
			<clipPath id="SVGID_2_">
				<use xlink:href="#SVGID_1_"  overflow="visible"/>
			</clipPath>
			<g clip-path="url(#SVGID_2_)">
				<g>
					<path fill="#FFFFFF" d="M5997.2,237.3c-1.2,0.4-2.5,1-3.6,1.6c-0.6-1-1.2-2.1-1.5-3.3C5993.7,236.1,5995.4,236.7,5997.2,237.3z
						"/>
					<path fill="#FFFFFF" d="M6007.8,242.8c0.3,0.2,0.5,0.4,0.8,0.6c-1.5,0.6-3.1,1-4.8,1c-3.7,0-7.1-1.7-9.3-4.3
						c1.5-0.9,3-1.5,4.4-2.1C6002.2,239.4,6005.2,241,6007.8,242.8z"/>
					<path fill="#FFFFFF" d="M6000.6,237.5c4.7-1.9,9.8-3.1,15.3-3.3c-0.6,3.7-2.8,6.8-5.9,8.6c-0.3-0.2-0.5-0.4-0.7-0.6
						C6006.6,240.3,6003.7,238.7,6000.6,237.5z"/>
					<path fill="#FFFFFF" d="M6016.1,232.1c0,0.2,0,0.4,0,0.7c-5.8,0.3-11.5,1.5-17.2,3.6c-2.3-0.9-4.6-1.6-7.1-2.2
						c-0.1-0.7-0.2-1.4-0.2-2.1c0-6.8,5.5-12.3,12.3-12.3C6010.5,219.8,6016.1,225.3,6016.1,232.1z"/>
					<g>
						<path fill="#FFFFFF" d="M6064.2,270.5c-0.5-1.7-1.2-3.4-2-4.9c-0.9-1.6-1.8-3-2.9-4.1c0.2-0.8,0.3-1.4,0.3-1.8
							c0-3.3-2.6-5.5-7.9-6.6c-1.6-4.2-4-7.8-7.1-10.9s-6.9-5.4-11.4-7c-4.4-1.6-9.3-2.4-14.6-2.4c-0.9,0-1.8,0-2.8,0.1
							c0,0.5-0.1,0.9-0.2,1.4c0.9,0,1.8,0,2.7,0c5.2,0,9.9,0.8,14.2,2.3c4.3,1.5,8,3.7,11,6.5c3.1,2.8,5.2,6.2,6.7,10.1
							c-1.5-0.1-2.3-0.2-2.5-0.2c-3.1,0-8,1.2-14.9,3.7c-1-1.8-2.6-2.8-4.5-2.8c-1.9,0-4.6,0.9-8,2.8c-1.1-2.7-2.5-5.3-4.5-7.8
							c-1.8-2.2-3.8-4.3-6.1-6c-0.4,0.3-0.9,0.5-1.3,0.7c2.4,1.7,4.4,3.7,6.2,5.9c1.9,2.5,3.5,5.1,4.7,7.9
							c-2.9,1.6-7.7,5.4-14.4,11.3c-1.1-0.5-2.1-0.7-2.8-0.7c-1.5,0-3,0.6-4.4,1.7c-1.5,1.1-3.2,3-5.3,5.7c-2.5-1.5-5-2.8-7.5-3.8
							c1.6-1.3,3-2.8,4-4.3c1.1-1.5,1.9-3.1,2.5-4.7c0.6-1.6,0.9-3.3,0.9-4.9c0-4.8-2.1-8.6-6.2-11.3c3-2.5,5.8-4.5,8.5-6
							c-0.3-0.4-0.6-0.8-0.9-1.2c-3.1,1.5-6,3.7-8.7,6.3c-1.1-0.6-2.3-1-3.7-1.4c-1.4-0.3-2.8-0.5-4.3-0.5c-2.2,0-4.5,0.5-6.9,1.4
							l0.2,1.4c2.1-1,4.3-1.5,6.5-1.5c2.4,0,4.6,0.5,6.7,1.5c-7.4,6.9-11.5,13.8-12.3,20.9c-1.5-0.3-3.2-0.5-5-0.5
							c-4.4,0-8.2,0.9-11.4,2.5c-4.3-3.9-6.5-8.2-6.5-12.9c0-2.8,0.8-5.7,2.3-8.6c1.5-2.8,3.6-5.2,6.2-7.3c2.6-2,5.8-3.6,9.7-4.7
							c1.6-0.5,3.3-0.8,5-1.1c0.6-0.3,1.2-0.6,2-0.6c0.4,0,0.8,0.1,1.2,0.2c1.4-0.1,2.8-0.2,4.3-0.2c3.2,0,6.3,0.3,9.3,0.8
							c1.2,0.2,2.5,0.5,3.8,0.9c-0.1-0.5-0.3-0.9-0.3-1.4c-0.9-0.2-1.7-0.4-2.6-0.6c-3.4-0.6-6.8-0.9-10.3-0.9c-6,0-11.4,1-16.3,3
							c-4.9,2-8.6,4.8-11.4,8.3c-2.2,3-3.5,6.2-3.9,9.7c0,0.4,0,0.8-0.1,1.1c0,0.3,0,0.7,0,1.1c0,2.8,0.5,5.3,1.5,7.4
							c1,2.1,2.7,4.3,5.1,6.5c-2.3,1.8-4,3.7-5,5.6c-1.1,1.9-1.6,3.9-1.6,6.1c0,3,0.9,5.7,2.9,8.2c1.9,2.4,4.6,4.3,8.1,5.7
							c3.4,1.4,7.4,2.1,11.6,2.1c5.8,0,11.7-1.4,17.6-4.1c2.7,1.2,5.5,1.9,8.7,1.9c3.1,0,6-0.6,8.9-1.7c2.9-1.1,5.5-2.8,8-4.9
							c3.8,0.9,7.2,1.3,10.2,1.3c0.9,0,2.7-0.1,5.2-0.4c1.3,4.5,5.4,6.8,12.1,6.8c4.6,0,8.7-0.9,12.5-2.7c3.8-1.8,6.7-4.3,8.9-7.5
							c2.2-3.2,3.2-6.8,3.2-10.8C6065,273.8,6064.7,272.2,6064.2,270.5z M5990,277.8c-1.4,1.9-2.8,3.7-4.2,5.5
							c-1.8,2.2-3.4,3.8-4.7,4.9c-2-1.5-3.7-3.2-5.2-5.2c-1.4-2.1-2.4-4.4-3-6.9c3.1-0.3,6.2-1.3,9.2-3.2
							C5984.3,273.9,5986.9,275.6,5990,277.8z M5984.8,246.8c3.9,2.6,5.8,6.1,5.8,10.4c0,5.1-2.5,9.5-7.3,13.4
							c-3.6-1.7-7.2-2.9-10.8-3.5C5973.6,259.9,5977.8,253.1,5984.8,246.8z M5972.5,268.5c2.6,0.7,5.3,1.8,8.3,3.4
							c-1.3,0.8-2.6,1.4-3.9,1.8c-1.2,0.4-2.7,0.7-4.4,0.9c-0.1-1.9-0.2-3-0.2-3.3C5972.3,271,5972.4,270.1,5972.5,268.5z
							 M5966.7,267.8c1.6,0,3.1,0.2,4.4,0.4c-0.1,0.6-0.1,1.2-0.1,2c0,1,0.1,2.5,0.3,4.5c-5.8-0.1-10.8-1.7-15.2-4.7
							C5959.1,268.5,5962.6,267.8,5966.7,267.8z M5964.3,295c-2.8,0-5.4-0.6-7.8-1.8c-2.5-1.2-4.4-2.9-5.8-4.9
							c-1.5-2.1-2.2-4.3-2.2-6.6c0-2,0.6-4,1.8-6c1.2-2,2.8-3.6,4.8-4.9c2.2,1.8,4.9,3.1,8,4c3.1,0.9,6,1.3,8.8,1.3
							c1.4,5.5,4.2,10,8.3,13.4c-2.8,1.9-5.4,3.4-7.9,4.3C5969.6,294.5,5967,295,5964.3,295z M5984.4,292.6
							c-4.7,2.3-8.9,3.4-12.6,3.4h-1.1c2.4-0.5,4.3-1.1,5.8-1.8c1.5-0.6,3.2-1.6,5.2-2.8c1.9-1.3,3.9-2.8,6.1-4.5
							c2.2-1.7,4.2-3.5,6.2-5.2s3.8-3.4,5.5-5.1c1.7-1.6,3.1-2.8,4-3.7c4.8-4.5,10.1-8.1,16.1-10.7c6-2.7,11.7-4,17-4
							c5,0,9.8,0.9,14.3,2.8c2.2,0.9,4.1,1.9,5.6,3c1.5,1.1,2.7,2.4,3.5,3.7c-3.3-3.6-9.6-5.4-18.9-5.4c-3.3,0-6.3,0.3-9.2,0.9
							c-2.8,0.6-5.7,1.5-8.6,2.7c-2.9,1.2-5.9,2.8-9,4.8c-3.1,2-6.3,4.3-9.5,7c-7,5.7-11.4,9.2-13.3,10.6
							C5989.8,289.7,5987.4,291.1,5984.4,292.6z M5996,293.9c-2.7,0-5.1-0.5-7.2-1.4c1.8-0.9,3.6-1.9,5.5-3.1
							c1.8-1.2,4.4-2.8,7.6-4.9c3,1.4,6.1,2.6,9.6,3.5C6006.8,291.9,6001.7,293.9,5996,293.9z M6004.6,282.4
							c0.6-0.5,1.5-1.1,2.5-1.8c1-0.7,1.8-1.4,2.5-1.9c4-2.9,7.7-5.4,11.3-7.5c-0.6,5.5-3.2,10.6-7.7,15.4
							C6009.3,285,6006.5,283.6,6004.6,282.4z M6028,288.2c-1.4,0.2-2.6,0.3-3.6,0.3c-3.6,0-6.9-0.5-9.9-1.4
							c2.5-2.8,4.3-5.4,5.5-7.9c1.2-2.5,2-5.4,2.4-8.7c2-1.2,4.2-2.2,6.7-3.1s5.1-1.6,7.8-2c2.7-0.5,5.3-0.7,7.9-0.7
							c2,0,4.3,0.2,6.6,0.6c-0.4,4.4-2.1,8.6-5,12.6c-1.9-1.2-3.9-1.7-5.9-1.7c-4.2,0-7.3,1.2-9.4,3.4c-2.1,2.3-3.2,4.5-3.2,6.5
							C6027.9,287,6027.9,287.7,6028,288.2z M6029.1,285.8c0-2,1-3.9,3.1-5.8c2.1-1.8,4.9-2.8,8.5-2.8c1.7,0,3.3,0.5,4.8,1.5
							c-2,2.3-4.4,4.2-7.2,5.8s-5.8,2.6-9,3.3C6029.2,287.3,6029.1,286.7,6029.1,285.8z M6059.7,286.1c-2,2.7-4.7,4.9-8.2,6.5
							c-3.4,1.6-7.1,2.4-11.1,2.4c-2.9,0-5.2-0.5-7.1-1.5c-1.9-1-3.1-2.4-3.6-4.1c2-0.4,4.1-1.1,6.2-2.1c2.2-1,4.1-2.1,5.9-3.4
							c1.8-1.3,3.3-2.8,4.6-4.3c0.8,0.8,1.3,1.5,1.6,2.1c0.3,0.6,0.5,1.3,0.5,2c0,0.8-0.3,1.7-0.9,2.6l0.9,0.6
							c0.7-1.2,1.1-2.3,1.1-3.3c0-1.8-0.9-3.5-2.5-5c2.8-3,4.6-7.4,5.4-13.1c3.1,0.6,5.6,2.1,7.4,4.4s2.7,4.9,2.7,7.4
							C6062.7,280.4,6061.7,283.3,6059.7,286.1z"/>
					</g>
				</g>
				<g>
					<path fill="#FFFFFF" d="M6022.9,213.7c-2.4-3.7-5.7-6.6-9.8-8.8c-4.1-2.2-8.5-3.3-13.2-3.3c-6.2,0-12.7,1.7-19.4,5.1
						c-0.2,0.2-0.5,0.3-0.8,0.4c-0.5,0.5-1,0.9-1.8,1c0,0,0,0,0,0.1c-4.7,3.1-9,7.1-13.1,12.1c-4,5-8.2,11.3-12.2,18.9l1.3,0.8
						c1.2-2.1,2.8-4.6,4.7-7.4c1.9-2.8,3.9-5.6,5.9-8.2c2.5-3.1,4.7-5.7,6.9-7.7c1.9-1.8,4-3.4,6.2-4.9c0.3-0.3,0.6-0.5,1.1-0.6
						c0.5-0.6,1.2-0.9,2-1.1c0,0,0-0.1,0-0.2c3-1.8,5.9-3,8.7-3.8s5.7-1.2,8.7-1.2c4.6,0,8.9,1,12.8,3c4,2,7.1,4.7,9.4,8.2
						c2.3,3.4,3.5,7.2,3.5,11.2c0,4.1-1.3,7.7-3.9,10.8s-5.9,5-10,5.8v1.2c3.2-0.4,6.1-1.4,8.6-3.1c2.6-1.7,4.5-4,5.9-6.8
						c1.4-2.8,2.1-5.9,2.1-9.2C6026.5,221.4,6025.3,217.4,6022.9,213.7z"/>
					<path fill="#FFFFFF" d="M6044.2,208.2c-3.8-5.7-9.1-10.1-15.8-13.5c-6.7-3.3-14.1-4.9-22.1-4.9c-3.4,0-6.8,0.3-10.2,0.9
						c-3.4,0.6-6.9,1.5-10.2,2.6c-2.9,1-5.6,2.2-8.2,3.6c0.4,0.9,0.7,1.7,1.1,2.5c0.1,0,0.2,0,0.3,0c9.2-5,18.5-7.5,28-7.5
						c7.5,0,14.4,1.5,20.6,4.6s11.1,7.2,14.7,12.5c3.5,5.3,5.3,11.1,5.3,17.4c0,6.2-1.5,11.9-4.6,17.1c-3,5.2-7.2,9.2-12.5,12.2
						c-5.2,3-11.1,4.4-17.6,4.4c-5.3,0-10.1-0.9-14.5-2.8c-4.3-1.9-7.7-4.5-10.1-7.9c-2.5-3.4-3.7-7.2-3.7-11.4
						c0-4.3,1.2-8,3.7-11.3c2.5-3.3,5.7-5.5,9.8-6.6v-1.3c-3.1,0.6-5.8,1.9-8.2,3.8c-2.4,1.8-4.2,4.2-5.6,6.9
						c-0.3,0.7-0.6,1.4-0.9,2.1c-0.8,2.1-1.1,4.3-1.1,6.6c0,4.6,1.3,8.8,4,12.5c2.6,3.7,6.4,6.7,11.1,8.7c4.7,2.1,10,3.1,15.9,3.1
						c4.7,0,9-0.6,12.8-2c3.8-1.3,7.4-3.4,10.9-6.3c2.8-2.3,5.1-4.8,7.1-7.7c1.9-2.8,3.4-5.9,4.4-9.2c1-3.3,1.5-6.7,1.5-10.2
						C6050,220.1,6048.1,213.8,6044.2,208.2z"/>
				</g>
			</g>
		</g>
	</g>
</g>
<g>
	<g>
		<path fill="#544841" d="M671.2,197.6c0,15.8-44.6,28.7-99.6,28.7c-55,0-99.6-12.8-99.6-28.7s44.6-28.7,99.6-28.7
			C626.6,168.9,671.2,181.7,671.2,197.6z"/>
		
			<radialGradient id="SVGID_3_" cx="-962.3239" cy="1019.2535" r="87.9798" gradientTransform="matrix(1.2396 0 0 -0.4599 1775.5 623.2919)" gradientUnits="userSpaceOnUse">
			<stop  offset="0.5383" style="stop-color:#F47621"/>
			<stop  offset="0.5554" style="stop-color:#F47D20"/>
			<stop  offset="0.6024" style="stop-color:#F78D1E"/>
			<stop  offset="0.6532" style="stop-color:#F8981D"/>
			<stop  offset="0.7102" style="stop-color:#F99F1B"/>
			<stop  offset="0.7857" style="stop-color:#F9A11B"/>
			<stop  offset="0.8112" style="stop-color:#F99D1C"/>
			<stop  offset="0.845" style="stop-color:#F7911E"/>
			<stop  offset="0.8835" style="stop-color:#F57E20"/>
			<stop  offset="0.897" style="stop-color:#F47621"/>
			<stop  offset="1" style="stop-color:#F15623"/>
		</radialGradient>
		<path fill="url(#SVGID_3_)" d="M486.3,148.8c6.9-14.5,26.1-14.4,57.1-5.5c30.9,8.9,81,6.3,98.9-5.6c17.9-12,29.5,38.2,6.4,54
			c-32.5,22.1-103.7,17.4-143.5,4.8C473.4,186.5,480.7,160.7,486.3,148.8z"/>
		<path fill="#736458" d="M486.3,148.8c6.9-14.5,26.1-14.4,57.1-5.5c30.9,8.9,81,6.3,98.9-5.6c17.9-12,29.5,38.2,6.4,54
			c-32.5,22.1-103.7,17.4-143.5,4.8C473.4,186.5,480.7,160.7,486.3,148.8z"/>
		<g>
			<path fill="#F3D2BA" d="M545.1,222.4l-8-8.9l-9.6,7l3.8,114.5c4.9,0.7,10.1,1.2,15.6,1.7L545.1,222.4L545.1,222.4z"/>
			<path fill="#F3D2BA" d="M580.4,223.1l-8.9-8l-8.9,8l-0.3-0.3l0.9,114.6c2.8,0.1,5.5,0.1,8.3,0.1c3.1,0,6.2,0,9.2-0.1L580.4,223.1
				L580.4,223.1z"/>
			<path fill="#F3D2BA" d="M476.1,205.8l-3.7-13.1l-5.4,1.8l0,0l20.5,122.2c0.1,1.1,0.6,2.1,1.2,3.1L476.1,205.8L476.1,205.8z"/>
			<path fill="#F3D2BA" d="M509.9,217.6l-6.7-9.8l-10.5,5.3l11.6,116c4.3,1.4,9.3,2.8,14.9,4L509.9,217.6L509.9,217.6z"/>
			<path fill="#F3D2BA" d="M676.4,194.2l-4.1-0.4l-5,11.6l-13.5,115.2c1.1-1.3,1.8-2.7,2-4L676.4,194.2z"/>
			<path fill="#F3D2BA" d="M650.7,213.1l-10.6-5.3l-6.6,9.7l-8.7,115.4c5.6-1.2,10.6-2.5,14.9-4l11.2-116L650.7,213.1z"/>
			<path fill="#F3D2BA" d="M615.7,220.5l-9.6-7l-8,8.7l-0.9,114.3c5.4-0.4,10.6-1,15.5-1.7L615.7,220.5L615.7,220.5z"/>
		</g>
		<g>
			<path fill="#FFFCE8" d="M527.5,220.5l-7.4-9.3l-10.1,6.3l9.3,115.4c3.8,0.8,7.7,1.4,12,2L527.5,220.5L527.5,220.5z"/>
			<path fill="#FFFCE8" d="M554.3,214.8l-9.2,7.5l1.7,114.3c5.3,0.4,10.8,0.7,16.5,0.9l-0.9-114.6L554.3,214.8z"/>
			<path fill="#FFFCE8" d="M492.6,213.1l-5.4-10.5l-11.1,3.2l12.6,114.1c2.3,3.4,7.7,6.5,15.6,9.2L492.6,213.1L492.6,213.1z"/>
			<path fill="#FFFCE8" d="M667.2,205.8l-11.1-3.2l-5.3,10.4l-11.2,116c6.7-2.4,11.6-5.2,14.2-8.2l13.5-115.2L667.2,205.8z"/>
			<path fill="#FFFCE8" d="M633.3,217.6l-10.1-6.3l-7.4,9.2l-3,114.4c4.2-0.6,8.1-1.2,11.8-2L633.3,217.6L633.3,217.6z"/>
			<path fill="#FFFCE8" d="M598.1,222.4l-9.2-7.5l-8.4,8.4l0.3,114.3c5.8-0.1,11.2-0.4,16.5-0.9L598.1,222.4L598.1,222.4z"/>
		</g>
		<path fill="#998776" d="M508,153.5c-12.8-11.6-10.1-32.4,10.4-41.6c41.6-18.6,75,28.1,107,11.6c32-16.5,25.3,31.5,11.2,41.4
			C606,186.3,528.3,171.9,508,153.5z"/>
		<path fill="#C8B299" d="M528.6,119.3c-3.7-8.5-4.3-35.1,22.9-38.3c14.5-1.8,18.7,5.9,28.9,6.3c11.2,0.4,28.3-7.1,49.1,12.6
			c20.8,19.7,13.4,52.2-44.3,33.1C527.5,113.9,533.4,130.3,528.6,119.3z"/>
		<path fill="#8B5834" d="M593.4,94.8c0,3.1-6.5,5.5-14.5,5.5c-8,0-14.5-2.4-14.5-5.5s6.5-5.5,14.5-5.5
			C587,89.2,593.4,91.8,593.4,94.8z"/>
		<path fill="#EAC4BA" d="M599,81.8c-1.1,11.2-11.2,19.3-22.2,18c-11.2-1.1-19.3-11.1-18-22.2c1.1-11.2,11.2-19.3,22.2-18
			C592.2,60.7,600.2,70.7,599,81.8z"/>
		<path fill="#F3D2BA" d="M596.8,79.8c-1,9.8-8.2,1.1-17.9,0.1c-9.8-1-18.6,6-17.5-3.8c1-9.8,9.7-16.9,19.6-15.9
			C590.7,61.2,597.8,70,596.8,79.8z"/>
		<path fill="#FFFCE8" d="M581.4,68c-0.3,3.3-3.3,5.6-6.5,5.3c-3.3-0.3-5.6-3.3-5.3-6.5c0.3-3.3,3.3-5.6,6.5-5.3
			C579.4,61.8,581.8,64.8,581.4,68z"/>
	</g>
</g>
</svg>
