<svg xmlns="http://www.w3.org/2000/svg" xmlns:xlink="http://www.w3.org/1999/xlink" viewBox="0 0 2350 357" enable-background="new 0 0 2350 357"><path fill="#D1A1A7" d="M2265.5 214.5c0 33.4-27.1 60.5-60.5 60.5h-2036v-1c-33.4 0-60.5-27.1-60.5-60.5 0-29.6 21.3-54.3 49.4-59.5h2047.1c33.4 0 60.5 27.1 60.5 60.5z"/><path opacity=".1" fill-rule="evenodd" clip-rule="evenodd" fill="#00A99D" d="M6159.9-2000l-148.4 2204.3c-.1.1.5.2-.5.3-1 2.1-2.9 4.3-4.3 6.8l-148.6-2211.4h301.8zm638 136.4l-769.2 2055.1c-3 1.3-6.1 3-8.8 5.1l489.1-2146.8 288.9 86.6zm-1439.4-46.8l639.7 2118.8c-2.8-3.1-5.8-5.9-9.1-7.9l-913-2004.6 282.4-106.3zm617 2105.2l-.2.2c-3.8-1-7.6-1.2-11.4-1.2l-1453.4-1628.6 238-185.3 1227 1814.9zm1429.3-1716.1l-1352.6 1710.9-.1.4c-3.3-1-6.6-1-10-1h-.2l1114.2-1880.9 248.7 170.6zm503.3 557.8l-1836.8 1167.9c-1.7-2.9-3.8-5.5-6.1-7.7l1664.4-1403.3 178.5 243.1zm-3712.9-124.6l1752.1 1287c-2.8 2-5.3 4.7-7.3 7.5v.6h.2v-.4l-1906.9-1040.1 161.9-254.6zm1740.1 1304.5c-1 3.2-2.3 6.7-2.3 10.2v.1l-2117.7-486 87-288.9 2033 764.6zm2238.3-588.2l-2096.6 596.5-3.7 1.1 3.7-1.1c-.1-3.3-.4-6.6-1.4-9.7h.1l1996.1-870.7 101.8 283.9zm85.9 613.9l-2185.8 1.9h-.2c1.1-3 2-6 2.5-9h.2l2162.8-293.9 20.5 301zm-2326.5-7.3c0 3.4 1.7 6.8 2.9 10.2h-2177.4l20-301 2154.5 290.8zm71.8 67.6l-159.9 2187.1-298.7-42.1 451.3-2147.5v-.1c2.6 1 5.1 1.9 7.3 2.6zm-21.6-9.4c2.1 1.2 4.2 2.4 6.3 3.4l-782 2052.2-274.1-126.1 1049.8-1929.5zm663.4 2110.9l-294.4 65.9-334.8-2169.3c2-1.1 4.2-2.3 6.4-3.7l.2-.1 622.6 2107.2zm611.8-286.5l-261.6 150.3-965.4-1975.9c1.8-1.3 3.7-2.6 5.6-4l1221.4 1829.6zm-1289.7-1833.4c2.1 1.4 4.2 2.8 6.3 4l-1372.3 1714.8-222.4-203.9 1588.4-1514.9zm-9.6-7.1l-1856.4 1165.1-142.9-265.7 1992.7-905 3.1 2.9c1.2.9 2.4 1.8 3.5 2.7zm1855.7 1311.6l-195.8 229.5-1573.8-1536.8c1.7-1.5 3.5-2.9 5.1-4.4l.1-.1 1764.4 1311.8zm295.8-538.2l-126.5 273.7-1928.1-1053h-.1.1c1.8-1 3.4-3.4 5.3-5.3l.1-.1h.1l2049.1 784.7zm-2165.2-787.1v-.2l-2104.7 585.6-61.2-295.3 2161-298.3c1.1 2.7 2.8 5.4 4.9 8.2zm2292 295.8l-62 295.2-2110-593.5c1.8-2.4 3.3-4.9 4.5-7.2l2167.5 305.5z"/><path opacity=".2" fill="#D3A1A7" d="M6062.9 247.2c-4.4 18.9-38.4 43.5-52.8 49l-.4-.3c-.3-.2-.8-.5-1.2-.8v.5c-15.7-3.8-50.4-23.6-57.1-41.2-10.4-17.8-6.7-39.2 8.2-47.9 13.9-8 32.5-2.2 43.4 12.8.8 1.1 1.6 2.3 2.3 3.5 8-18.7 27.1-28.5 43.1-22 15.9 6.6 22.4 27.4 14.5 46.4z"/><defs><path id="a" d="M6062.8 246.9c-4.4 18.9-38.4 43.5-52.8 49l-.4-.3c-.3-.2-.8-.5-1.2-.8v.5c-15.7-3.8-50.4-23.6-57.1-41.2-10.4-17.8-6.7-39.2 8.2-47.8 13.9-8 32.5-2.2 43.4 12.8.8 1.1 1.6 2.3 2.3 3.5 8-18.7 27.1-28.5 43.1-22 15.8 6.6 22.4 27.3 14.5 46.3z"/></defs><clipPath id="b"><use xlink:href="#a" overflow="visible"/></clipPath><path d="M5997.2 237.3c-1.2.4-2.5 1-3.6 1.6-.6-1-1.2-2.1-1.5-3.3 1.6.5 3.3 1.1 5.1 1.7zm10.6 5.5l.8.6c-1.5.6-3.1 1-4.8 1-3.7 0-7.1-1.7-9.3-4.3 1.5-.9 3-1.5 4.4-2.1 3.3 1.4 6.3 3 8.9 4.8zm-7.2-5.3c4.7-1.9 9.8-3.1 15.3-3.3-.6 3.7-2.8 6.8-5.9 8.6-.3-.2-.5-.4-.7-.6-2.7-1.9-5.6-3.5-8.7-4.7zm15.5-5.4v.7c-5.8.3-11.5 1.5-17.2 3.6-2.3-.9-4.6-1.6-7.1-2.2-.1-.7-.2-1.4-.2-2.1 0-6.8 5.5-12.3 12.3-12.3 6.6 0 12.2 5.5 12.2 12.3zm48.1 38.4c-.5-1.7-1.2-3.4-2-4.9-.9-1.6-1.8-3-2.9-4.1.2-.8.3-1.4.3-1.8 0-3.3-2.6-5.5-7.9-6.6-1.6-4.2-4-7.8-7.1-10.9s-6.9-5.4-11.4-7c-4.4-1.6-9.3-2.4-14.6-2.4-.9 0-1.8 0-2.8.1 0 .5-.1.9-.2 1.4h2.7c5.2 0 9.9.8 14.2 2.3 4.3 1.5 8 3.7 11 6.5 3.1 2.8 5.2 6.2 6.7 10.1-1.5-.1-2.3-.2-2.5-.2-3.1 0-8 1.2-14.9 3.7-1-1.8-2.6-2.8-4.5-2.8s-4.6.9-8 2.8c-1.1-2.7-2.5-5.3-4.5-7.8-1.8-2.2-3.8-4.3-6.1-6-.4.3-.9.5-1.3.7 2.4 1.7 4.4 3.7 6.2 5.9 1.9 2.5 3.5 5.1 4.7 7.9-2.9 1.6-7.7 5.4-14.4 11.3-1.1-.5-2.1-.7-2.8-.7-1.5 0-3 .6-4.4 1.7-1.5 1.1-3.2 3-5.3 5.7-2.5-1.5-5-2.8-7.5-3.8 1.6-1.3 3-2.8 4-4.3 1.1-1.5 1.9-3.1 2.5-4.7.6-1.6.9-3.3.9-4.9 0-4.8-2.1-8.6-6.2-11.3 3-2.5 5.8-4.5 8.5-6l-.9-1.2c-3.1 1.5-6 3.7-8.7 6.3-1.1-.6-2.3-1-3.7-1.4-1.4-.3-2.8-.5-4.3-.5-2.2 0-4.5.5-6.9 1.4l.2 1.4c2.1-1 4.3-1.5 6.5-1.5 2.4 0 4.6.5 6.7 1.5-7.4 6.9-11.5 13.8-12.3 20.9-1.5-.3-3.2-.5-5-.5-4.4 0-8.2.9-11.4 2.5-4.3-3.9-6.5-8.2-6.5-12.9 0-2.8.8-5.7 2.3-8.6 1.5-2.8 3.6-5.2 6.2-7.3 2.6-2 5.8-3.6 9.7-4.7 1.6-.5 3.3-.8 5-1.1.6-.3 1.2-.6 2-.6.4 0 .8.1 1.2.2 1.4-.1 2.8-.2 4.3-.2 3.2 0 6.3.3 9.3.8 1.2.2 2.5.5 3.8.9-.1-.5-.3-.9-.3-1.4l-2.6-.6c-3.4-.6-6.8-.9-10.3-.9-6 0-11.4 1-16.3 3s-8.6 4.8-11.4 8.3c-2.2 3-3.5 6.2-3.9 9.7 0 .4 0 .8-.1 1.1v1.1c0 2.8.5 5.3 1.5 7.4 1 2.1 2.7 4.3 5.1 6.5-2.3 1.8-4 3.7-5 5.6-1.1 1.9-1.6 3.9-1.6 6.1 0 3 .9 5.7 2.9 8.2 1.9 2.4 4.6 4.3 8.1 5.7 3.4 1.4 7.4 2.1 11.6 2.1 5.8 0 11.7-1.4 17.6-4.1 2.7 1.2 5.5 1.9 8.7 1.9 3.1 0 6-.6 8.9-1.7 2.9-1.1 5.5-2.8 8-4.9 3.8.9 7.2 1.3 10.2 1.3.9 0 2.7-.1 5.2-.4 1.3 4.5 5.4 6.8 12.1 6.8 4.6 0 8.7-.9 12.5-2.7 3.8-1.8 6.7-4.3 8.9-7.5s3.2-6.8 3.2-10.8c-.1-1.8-.4-3.4-.9-5.1zm-74.2 7.3c-1.4 1.9-2.8 3.7-4.2 5.5-1.8 2.2-3.4 3.8-4.7 4.9-2-1.5-3.7-3.2-5.2-5.2-1.4-2.1-2.4-4.4-3-6.9 3.1-.3 6.2-1.3 9.2-3.2 2.2 1 4.8 2.7 7.9 4.9zm-5.2-31c3.9 2.6 5.8 6.1 5.8 10.4 0 5.1-2.5 9.5-7.3 13.4-3.6-1.7-7.2-2.9-10.8-3.5 1.1-7.2 5.3-14 12.3-20.3zm-12.3 21.7c2.6.7 5.3 1.8 8.3 3.4-1.3.8-2.6 1.4-3.9 1.8-1.2.4-2.7.7-4.4.9-.1-1.9-.2-3-.2-3.3 0-.3.1-1.2.2-2.8zm-5.8-.7c1.6 0 3.1.2 4.4.4-.1.6-.1 1.2-.1 2 0 1 .1 2.5.3 4.5-5.8-.1-10.8-1.7-15.2-4.7 3-1.5 6.5-2.2 10.6-2.2zm-2.4 27.2c-2.8 0-5.4-.6-7.8-1.8-2.5-1.2-4.4-2.9-5.8-4.9-1.5-2.1-2.2-4.3-2.2-6.6 0-2 .6-4 1.8-6 1.2-2 2.8-3.6 4.8-4.9 2.2 1.8 4.9 3.1 8 4 3.1.9 6 1.3 8.8 1.3 1.4 5.5 4.2 10 8.3 13.4-2.8 1.9-5.4 3.4-7.9 4.3-2.7.7-5.3 1.2-8 1.2zm20.1-2.4c-4.7 2.3-8.9 3.4-12.6 3.4h-1.1c2.4-.5 4.3-1.1 5.8-1.8 1.5-.6 3.2-1.6 5.2-2.8 1.9-1.3 3.9-2.8 6.1-4.5 2.2-1.7 4.2-3.5 6.2-5.2s3.8-3.4 5.5-5.1c1.7-1.6 3.1-2.8 4-3.7 4.8-4.5 10.1-8.1 16.1-10.7 6-2.7 11.7-4 17-4 5 0 9.8.9 14.3 2.8 2.2.9 4.1 1.9 5.6 3s2.7 2.4 3.5 3.7c-3.3-3.6-9.6-5.4-18.9-5.4-3.3 0-6.3.3-9.2.9-2.8.6-5.7 1.5-8.6 2.7-2.9 1.2-5.9 2.8-9 4.8-3.1 2-6.3 4.3-9.5 7-7 5.7-11.4 9.2-13.3 10.6-1.7 1.4-4.1 2.8-7.1 4.3zm11.6 1.3c-2.7 0-5.1-.5-7.2-1.4 1.8-.9 3.6-1.9 5.5-3.1 1.8-1.2 4.4-2.8 7.6-4.9 3 1.4 6.1 2.6 9.6 3.5-4.7 3.9-9.8 5.9-15.5 5.9zm8.6-11.5c.6-.5 1.5-1.1 2.5-1.8s1.8-1.4 2.5-1.9c4-2.9 7.7-5.4 11.3-7.5-.6 5.5-3.2 10.6-7.7 15.4-3.9-1.6-6.7-3-8.6-4.2zm23.4 5.8c-1.4.2-2.6.3-3.6.3-3.6 0-6.9-.5-9.9-1.4 2.5-2.8 4.3-5.4 5.5-7.9 1.2-2.5 2-5.4 2.4-8.7 2-1.2 4.2-2.2 6.7-3.1s5.1-1.6 7.8-2c2.7-.5 5.3-.7 7.9-.7 2 0 4.3.2 6.6.6-.4 4.4-2.1 8.6-5 12.6-1.9-1.2-3.9-1.7-5.9-1.7-4.2 0-7.3 1.2-9.4 3.4-2.1 2.3-3.2 4.5-3.2 6.5 0 .9 0 1.6.1 2.1zm1.1-2.4c0-2 1-3.9 3.1-5.8 2.1-1.8 4.9-2.8 8.5-2.8 1.7 0 3.3.5 4.8 1.5-2 2.3-4.4 4.2-7.2 5.8s-5.8 2.6-9 3.3c-.1-.5-.2-1.1-.2-2zm30.6.3c-2 2.7-4.7 4.9-8.2 6.5-3.4 1.6-7.1 2.4-11.1 2.4-2.9 0-5.2-.5-7.1-1.5-1.9-1-3.1-2.4-3.6-4.1 2-.4 4.1-1.1 6.2-2.1 2.2-1 4.1-2.1 5.9-3.4 1.8-1.3 3.3-2.8 4.6-4.3.8.8 1.3 1.5 1.6 2.1.3.6.5 1.3.5 2 0 .8-.3 1.7-.9 2.6l.9.6c.7-1.2 1.1-2.3 1.1-3.3 0-1.8-.9-3.5-2.5-5 2.8-3 4.6-7.4 5.4-13.1 3.1.6 5.6 2.1 7.4 4.4s2.7 4.9 2.7 7.4c.1 3.1-.9 6-2.9 8.8zm-36.8-72.4c-2.4-3.7-5.7-6.6-9.8-8.8-4.1-2.2-8.5-3.3-13.2-3.3-6.2 0-12.7 1.7-19.4 5.1-.2.2-.5.3-.8.4-.5.5-1 .9-1.8 1v.1c-4.7 3.1-9 7.1-13.1 12.1-4 5-8.2 11.3-12.2 18.9l1.3.8c1.2-2.1 2.8-4.6 4.7-7.4 1.9-2.8 3.9-5.6 5.9-8.2 2.5-3.1 4.7-5.7 6.9-7.7 1.9-1.8 4-3.4 6.2-4.9.3-.3.6-.5 1.1-.6.5-.6 1.2-.9 2-1.1v-.2c3-1.8 5.9-3 8.7-3.8s5.7-1.2 8.7-1.2c4.6 0 8.9 1 12.8 3 4 2 7.1 4.7 9.4 8.2 2.3 3.4 3.5 7.2 3.5 11.2 0 4.1-1.3 7.7-3.9 10.8s-5.9 5-10 5.8v1.2c3.2-.4 6.1-1.4 8.6-3.1 2.6-1.7 4.5-4 5.9-6.8 1.4-2.8 2.1-5.9 2.1-9.2 0-4.6-1.2-8.6-3.6-12.3zm21.3-5.5c-3.8-5.7-9.1-10.1-15.8-13.5-6.7-3.3-14.1-4.9-22.1-4.9-3.4 0-6.8.3-10.2.9-3.4.6-6.9 1.5-10.2 2.6-2.9 1-5.6 2.2-8.2 3.6.4.9.7 1.7 1.1 2.5h.3c9.2-5 18.5-7.5 28-7.5 7.5 0 14.4 1.5 20.6 4.6s11.1 7.2 14.7 12.5c3.5 5.3 5.3 11.1 5.3 17.4 0 6.2-1.5 11.9-4.6 17.1-3 5.2-7.2 9.2-12.5 12.2-5.2 3-11.1 4.4-17.6 4.4-5.3 0-10.1-.9-14.5-2.8-4.3-1.9-7.7-4.5-10.1-7.9-2.5-3.4-3.7-7.2-3.7-11.4 0-4.3 1.2-8 3.7-11.3 2.5-3.3 5.7-5.5 9.8-6.6v-1.3c-3.1.6-5.8 1.9-8.2 3.8-2.4 1.8-4.2 4.2-5.6 6.9l-.9 2.1c-.8 2.1-1.1 4.3-1.1 6.6 0 4.6 1.3 8.8 4 12.5 2.6 3.7 6.4 6.7 11.1 8.7 4.7 2.1 10 3.1 15.9 3.1 4.7 0 9-.6 12.8-2 3.8-1.3 7.4-3.4 10.9-6.3 2.8-2.3 5.1-4.8 7.1-7.7 1.9-2.8 3.4-5.9 4.4-9.2 1-3.3 1.5-6.7 1.5-10.2-.1-7-2-13.3-5.9-18.9z" clip-path="url(#b)" fill="#fff"/><path fill="#544841" d="M671.2 197.6c0 15.8-44.6 28.7-99.6 28.7-55 0-99.6-12.8-99.6-28.7s44.6-28.7 99.6-28.7c55 0 99.6 12.8 99.6 28.7z"/><radialGradient id="c" cx="-962.324" cy="1019.254" r="87.98" gradientTransform="matrix(1.24 0 0 -.46 1775.5 623.292)" gradientUnits="userSpaceOnUse"><stop offset=".538" stop-color="#F47621"/><stop offset=".555" stop-color="#F47D20"/><stop offset=".602" stop-color="#F78D1E"/><stop offset=".653" stop-color="#F8981D"/><stop offset=".71" stop-color="#F99F1B"/><stop offset=".786" stop-color="#F9A11B"/><stop offset=".811" stop-color="#F99D1C"/><stop offset=".845" stop-color="#F7911E"/><stop offset=".883" stop-color="#F57E20"/><stop offset=".897" stop-color="#F47621"/><stop offset="1" stop-color="#F15623"/></radialGradient><path fill="url(#c)" d="M486.3 148.8c6.9-14.5 26.1-14.4 57.1-5.5 30.9 8.9 81 6.3 98.9-5.6 17.9-12 29.5 38.2 6.4 54-32.5 22.1-103.7 17.4-143.5 4.8-31.8-10-24.5-35.8-18.9-47.7z"/><path fill="#736458" d="M486.3 148.8c6.9-14.5 26.1-14.4 57.1-5.5 30.9 8.9 81 6.3 98.9-5.6 17.9-12 29.5 38.2 6.4 54-32.5 22.1-103.7 17.4-143.5 4.8-31.8-10-24.5-35.8-18.9-47.7z"/><path d="M545.1 222.4l-8-8.9-9.6 7 3.8 114.5c4.9.7 10.1 1.2 15.6 1.7l-1.8-114.3zm35.3.7l-8.9-8-8.9 8-.3-.3.9 114.6c2.8.1 5.5.1 8.3.1 3.1 0 6.2 0 9.2-.1l-.3-114.3zm-104.3-17.3l-3.7-13.1-5.4 1.8 20.5 122.2c.1 1.1.6 2.1 1.2 3.1l-12.6-114zm33.8 11.8l-6.7-9.8-10.5 5.3 11.6 116c4.3 1.4 9.3 2.8 14.9 4l-9.3-115.5zm166.5-23.4l-4.1-.4-5 11.6-13.5 115.2c1.1-1.3 1.8-2.7 2-4l20.6-122.4zm-25.7 18.9l-10.6-5.3-6.6 9.7-8.7 115.4c5.6-1.2 10.6-2.5 14.9-4l11.2-116-.2.2zm-35 7.4l-9.6-7-8 8.7-.9 114.3c5.4-.4 10.6-1 15.5-1.7l3-114.3z" fill="#F3D2BA"/><path d="M527.5 220.5l-7.4-9.3-10.1 6.3 9.3 115.4c3.8.8 7.7 1.4 12 2l-3.8-114.4zm26.8-5.7l-9.2 7.5 1.7 114.3c5.3.4 10.8.7 16.5.9l-.9-114.6-8.1-8.1zm-61.7-1.7l-5.4-10.5-11.1 3.2 12.6 114.1c2.3 3.4 7.7 6.5 15.6 9.2l-11.7-116zm174.6-7.3l-11.1-3.2-5.3 10.4-11.2 116c6.7-2.4 11.6-5.2 14.2-8.2l13.5-115.2-.1.2zm-33.9 11.8l-10.1-6.3-7.4 9.2-3 114.4c4.2-.6 8.1-1.2 11.8-2l8.7-115.3zm-35.2 4.8l-9.2-7.5-8.4 8.4.3 114.3c5.8-.1 11.2-.4 16.5-.9l.8-114.3z" fill="#FFFCE8"/><path fill="#998776" d="M508 153.5c-12.8-11.6-10.1-32.4 10.4-41.6 41.6-18.6 75 28.1 107 11.6s25.3 31.5 11.2 41.4c-30.6 21.4-108.3 7-128.6-11.4z"/><path fill="#C8B299" d="M528.6 119.3c-3.7-8.5-4.3-35.1 22.9-38.3 14.5-1.8 18.7 5.9 28.9 6.3 11.2.4 28.3-7.1 49.1 12.6s13.4 52.2-44.3 33.1c-57.7-19.1-51.8-2.7-56.6-13.7z"/><path fill="#8B5834" d="M593.4 94.8c0 3.1-6.5 5.5-14.5 5.5s-14.5-2.4-14.5-5.5 6.5-5.5 14.5-5.5c8.1-.1 14.5 2.5 14.5 5.5z"/><path fill="#EAC4BA" d="M599 81.8c-1.1 11.2-11.2 19.3-22.2 18-11.2-1.1-19.3-11.1-18-22.2 1.1-11.2 11.2-19.3 22.2-18 11.2 1.1 19.2 11.1 18 22.2z"/><path fill="#F3D2BA" d="M596.8 79.8c-1 9.8-8.2 1.1-17.9.1-9.8-1-18.6 6-17.5-3.8 1-9.8 9.7-16.9 19.6-15.9 9.7 1 16.8 9.8 15.8 19.6z"/><path fill="#FFFCE8" d="M581.4 68c-.3 3.3-3.3 5.6-6.5 5.3-3.3-.3-5.6-3.3-5.3-6.5.3-3.3 3.3-5.6 6.5-5.3 3.3.3 5.7 3.3 5.3 6.5z"/></svg>