<?xml version="1.0" encoding="utf-8"?>
<!-- Generator: Adobe Illustrator 17.1.0, SVG Export Plug-In . SVG Version: 6.00 Build 0)  -->
<!DOCTYPE svg PUBLIC "-//W3C//DTD SVG 1.1//EN" "http://www.w3.org/Graphics/SVG/1.1/DTD/svg11.dtd">
<svg version="1.1" id="Layer_1" xmlns="http://www.w3.org/2000/svg" xmlns:xlink="http://www.w3.org/1999/xlink" x="0px" y="0px"
	 viewBox="0 0 288 288" enable-background="new 0 0 288 288" xml:space="preserve">
<g>
	<path fill="#544841" d="M228,139.7c0,14.3-40.3,25.9-90,25.9S48,154,48,139.7c0-14.3,40.3-25.9,90-25.9
		C187.7,113.8,228,125.4,228,139.7z"/>
	<g>
		<path fill="#F3D2BA" d="M114.1,162.1l-7.2-8l-8.7,6.3l3.4,103.5c4.4,0.6,9.1,1.1,14.1,1.5L114.1,162.1L114.1,162.1z"/>
		<path fill="#F3D2BA" d="M146,162.8l-8-7.2l-8,7.2l-0.3-0.3l0.8,103.6c2.5,0.1,5,0.1,7.5,0.1c2.8,0,5.6,0,8.3-0.1L146,162.8
			L146,162.8z"/>
		<path fill="#F3D2BA" d="M51.7,147.1l-3.3-11.8l-4.9,1.6l0,0L62,247.3c0.1,1,0.5,1.9,1.1,2.8L51.7,147.1L51.7,147.1z"/>
		<path fill="#F3D2BA" d="M82.3,157.8l-6.1-8.9l-9.5,4.8l10.5,104.8c3.9,1.3,8.4,2.5,13.5,3.6L82.3,157.8L82.3,157.8z"/>
		<path fill="#F3D2BA" d="M232.7,136.7l-3.7-0.4l-4.5,10.5l-12.2,104.1c1-1.2,1.6-2.4,1.8-3.6L232.7,136.7z"/>
		<path fill="#F3D2BA" d="M209.5,153.7l-9.6-4.8l-6,8.8L186,262c5.1-1.1,9.6-2.3,13.5-3.6l10.1-104.8L209.5,153.7z"/>
		<path fill="#F3D2BA" d="M177.9,160.4l-8.7-6.3L162,162l-0.8,103.3c4.9-0.4,9.6-0.9,14-1.5L177.9,160.4L177.9,160.4z"/>
	</g>
	<g>
		<path fill="#FFFCE8" d="M98.2,160.4l-6.7-8.4l-9.1,5.7L90.8,262c3.4,0.7,7,1.3,10.8,1.8L98.2,160.4L98.2,160.4z"/>
		<path fill="#FFFCE8" d="M122.4,155.3l-8.3,6.8l1.5,103.3c4.8,0.4,9.8,0.6,14.9,0.8l-0.8-103.6L122.4,155.3z"/>
		<path fill="#FFFCE8" d="M66.6,153.7l-4.9-9.5l-10,2.9l11.4,103.1c2.1,3.1,7,5.9,14.1,8.3L66.6,153.7L66.6,153.7z"/>
		<path fill="#FFFCE8" d="M224.4,147.1l-10-2.9l-4.8,9.4l-10.1,104.8c6.1-2.2,10.5-4.7,12.8-7.4l12.2-104.1L224.4,147.1z"/>
		<path fill="#FFFCE8" d="M193.8,157.8l-9.1-5.7l-6.7,8.3l-2.7,103.4c3.8-0.5,7.3-1.1,10.7-1.8L193.8,157.8L193.8,157.8z"/>
		<path fill="#FFFCE8" d="M162,162.1l-8.3-6.8l-7.6,7.6l0.3,103.3c5.2-0.1,10.1-0.4,14.9-0.8L162,162.1L162,162.1z"/>
	</g>
</g>
</svg>
