<svg xmlns="http://www.w3.org/2000/svg" viewBox="0 0 288 288" enable-background="new 0 0 288 288"><g fill="#231F20"><path d="M92 153.3c-1.3 2.1-2.6 3.6-3.9 4.7-1.4 1-3.1 1.5-5.2 1.5-3 0-5.4-1.3-7.3-3.8-1.8-2.5-2.7-6.6-2.7-12.2s.9-9.6 2.8-12.2c1.9-2.6 4.3-3.9 7.3-3.9 1.8 0 3.3.4 4.6 1.1 1.3.7 2.6 2 3.9 3.9l4.5-3.3c-1.8-2.3-3.7-4-5.7-4.9-2-.9-4.5-1.4-7.2-1.4-2.3 0-4.4.4-6.4 1.2-2 .8-3.7 2.1-5.2 3.8-1.5 1.7-2.6 3.9-3.4 6.5-.8 2.6-1.3 5.7-1.3 9.4s.4 6.9 1.3 9.5 2 4.7 3.5 6.4c1.5 1.7 3.1 2.9 5.1 3.6 1.9.8 4 1.1 6.2 1.1 3.3 0 6.1-.8 8.4-2.3 2.3-1.5 4.2-3.4 5.6-5.6l-4.9-3.1zM129.8 129.8c-.5-1.4-1.3-2.7-2.5-3.7-1.1-1-2.5-1.9-4.1-2.5-1.7-.6-3.6-.9-5.9-.9-3.4 0-6.3.8-8.6 2.3-2.3 1.6-4.1 3.7-5.3 6.3l5.3 2.1c.7-2 1.8-3.5 3.2-4.6 1.4-1 3.1-1.6 5.2-1.6 2.7 0 4.7.8 5.8 2.3 1.2 1.5 1.7 3.5 1.7 5.8v3.3c-7.9.1-13.6 1.5-17.1 4-3.5 2.5-5.3 5.9-5.3 10.2 0 2.1.4 3.8 1.1 5.2.7 1.4 1.7 2.6 2.8 3.5 1.2.9 2.4 1.6 3.9 2 1.4.4 2.9.6 4.3.6 2.7 0 4.9-.5 6.6-1.5 1.7-1 3.1-2.2 4.2-3.7l.3 4.4h5.1v-28.8c.1-1.7-.2-3.2-.7-4.7zm-5.1 25.2c-1.1 1.3-2.4 2.3-3.8 3.1-1.4.8-3.1 1.3-4.9 1.3-2.1 0-3.9-.6-5.4-1.7-1.5-1.1-2.2-2.9-2.2-5.4 0-3 1.3-5.2 4-6.7s6.8-2.3 12.4-2.4v11.8zM154.4 141l15.9-17.2h-7.6l-14.5 16.5v-30.7h-5.8v53.8h5.8v-20.9l17.1 20.9h7.5l-18.4-22.4zM200 156.3c.8-.6 1.5-1.4 2.3-2.3l-2.3 2.3z"/></g><path fill="#D2A1A7" d="M239.4 149.9c-.7.3-1.5.6-2.2 1-.4-.6-.7-1.3-.9-2 1.1.2 2.1.6 3.1 1zM245.8 153.2l.5.3c-.9.4-1.9.6-2.9.6-2.2 0-4.2-1-5.6-2.6.9-.5 1.8-.9 2.7-1.3 1.9.9 3.7 1.9 5.3 3zM241.5 149.9c2.8-1.2 5.9-1.8 9.2-2-.4 2.2-1.7 4.1-3.6 5.2l-.4-.3c-1.6-1.1-3.3-2.1-5.2-2.9zM250.8 146.7v.4c-3.5.2-6.9.9-10.4 2.2-1.4-.5-2.8-1-4.3-1.3-.1-.4-.1-.8-.1-1.3 0-4.1 3.3-7.4 7.4-7.4 4 .1 7.4 3.4 7.4 7.4z"/><path fill="#231718" d="M279.7 169.8c-.3-1-.7-2-1.2-2.9-.5-.9-1.1-1.8-1.7-2.5.1-.5.2-.8.2-1.1 0-2-1.6-3.3-4.7-4-.9-2.5-2.4-4.7-4.2-6.6-1.9-1.8-4.2-3.3-6.8-4.2-2.7-1-5.6-1.4-8.8-1.4h-1.7l-.1.8h1.6c3.1 0 5.9.5 8.5 1.4 2.6.9 4.8 2.2 6.6 3.9s3.2 3.7 4 6.1c-.9-.1-1.4-.1-1.5-.1-1.8 0-4.8.7-8.9 2.2-.6-1.1-1.5-1.7-2.7-1.7-1.2 0-2.8.6-4.8 1.7-.6-1.6-1.5-3.2-2.7-4.7-1.1-1.4-2.3-2.6-3.7-3.6-.3.2-.5.3-.8.4 1.4 1 2.6 2.2 3.7 3.5 1.2 1.5 2.1 3 2.8 4.8-1.8 1-4.6 3.2-8.6 6.8-.7-.3-1.2-.4-1.7-.4-.9 0-1.8.3-2.6 1-.9.7-1.9 1.8-3.2 3.4-1.5-.9-3-1.7-4.5-2.3 1-.8 1.8-1.7 2.4-2.6.7-.9 1.1-1.8 1.5-2.8.3-1 .5-2 .5-3 0-2.9-1.2-5.1-3.7-6.8 1.8-1.5 3.5-2.7 5.1-3.6-.2-.2-.4-.5-.5-.7-1.8.9-3.6 2.2-5.2 3.8-.7-.4-1.4-.6-2.2-.8-.8-.2-1.7-.3-2.6-.3-1.3 0-2.7.3-4.2.8l.2.9c1.2-.6 2.6-.9 3.9-.9 1.4 0 2.8.3 4 .9-4.4 4.1-6.9 8.3-7.4 12.6-.9-.2-1.9-.3-3-.3-2.7 0-4.9.5-6.8 1.5-2.6-2.3-3.9-4.9-3.9-7.7 0-1.7.5-3.4 1.4-5.1.9-1.7 2.2-3.2 3.7-4.4 1.6-1.2 3.5-2.2 5.8-2.8 2.3-.7 4.8-1 7.5-1 1.9 0 3.8.2 5.6.5.8.1 1.5.3 2.3.5-.1-.3-.2-.6-.2-.9-.5-.1-1-.2-1.6-.3-2-.4-4.1-.6-6.2-.6-3.6 0-6.9.6-9.8 1.8-2.9 1.2-5.2 2.9-6.8 5-1.6 2.1-2.4 4.5-2.4 7.2 0 1.7.3 3.2.9 4.4.6 1.3 1.6 2.6 3.1 3.9-1.4 1.1-2.4 2.2-3 3.3-.6 1.1-1 2.4-1 3.7 0 1.8.6 3.4 1.7 4.9 1.1 1.5 2.8 2.6 4.8 3.4 2.1.8 4.4 1.2 7 1.2 3.5 0 7-.8 10.6-2.5 1.6.8 3.3 1.1 5.2 1.1 1.8 0 3.6-.3 5.3-1 1.7-.7 3.3-1.7 4.8-2.9 2.3.5 4.3.8 6.1.8.6 0 1.6-.1 3.2-.2.8 2.7 3.2 4 7.3 4 2.7 0 5.2-.5 7.5-1.6s4-2.6 5.3-4.5c1.3-1.9 1.9-4.1 1.9-6.4-.2-1-.3-2-.6-3zm-44.6 4.3l-2.5 3.3c-1.1 1.3-2 2.3-2.8 3-1.2-.9-2.2-1.9-3.1-3.2-.8-1.2-1.4-2.6-1.8-4.2 1.9-.2 3.7-.8 5.5-1.9 1.3.7 2.9 1.7 4.7 3zm-3.1-18.5c2.3 1.6 3.5 3.6 3.5 6.2 0 3.1-1.5 5.7-4.4 8.1-2.2-1-4.3-1.7-6.5-2.1.7-4.4 3.2-8.4 7.4-12.2zm-7.4 13c1.5.4 3.2 1.1 5 2-.8.5-1.6.8-2.3 1.1-.7.2-1.6.4-2.6.5-.1-1.1-.1-1.8-.1-2-.1-.1-.1-.7 0-1.6zm-3.5-.5c1 0 1.9.1 2.7.3 0 .4-.1.7-.1 1.2 0 .6.1 1.5.2 2.7-3.5-.1-6.5-1-9.1-2.8 1.7-.9 3.9-1.4 6.3-1.4zm-1.4 16.4c-1.7 0-3.2-.4-4.7-1.1-1.5-.7-2.6-1.7-3.5-3-.9-1.2-1.3-2.6-1.3-4 0-1.2.4-2.4 1.1-3.6.7-1.2 1.7-2.1 2.9-2.9 1.3 1.1 2.9 1.8 4.8 2.4 1.8.5 3.6.8 5.3.8.8 3.3 2.5 6 5 8.1-1.7 1.2-3.2 2-4.7 2.6-1.7.4-3.3.7-4.9.7zm12.1-1.5c-2.8 1.4-5.3 2.1-7.6 2.1h-.7c1.4-.3 2.6-.7 3.5-1.1.9-.4 1.9-1 3.1-1.7 1.1-.8 2.4-1.7 3.6-2.7 1.3-1 2.5-2.1 3.7-3.1 1.2-1.1 2.3-2.1 3.3-3s1.8-1.7 2.4-2.2c2.9-2.7 6.1-4.8 9.7-6.4 3.6-1.6 7-2.4 10.2-2.4 3 0 5.8.6 8.6 1.7 1.4.5 2.5 1.1 3.4 1.8.9.7 1.6 1.4 2.1 2.3-2-2.2-5.8-3.2-11.4-3.2-2 0-3.8.2-5.5.5-1.7.3-3.4.9-5.1 1.6-1.7.7-3.5 1.7-5.4 2.9-1.9 1.2-3.8 2.6-5.7 4.2-4.2 3.4-6.8 5.5-8 6.4-1 .6-2.5 1.5-4.2 2.3zm6.9.8c-1.6 0-3-.3-4.3-.9 1.1-.5 2.2-1.1 3.3-1.8 1.1-.7 2.6-1.7 4.6-3 1.8.9 3.7 1.6 5.8 2.1-2.9 2.5-6 3.6-9.4 3.6zm5.2-6.9c.4-.3.9-.7 1.5-1.1.6-.4 1.1-.8 1.5-1.1 2.4-1.8 4.7-3.3 6.8-4.5-.4 3.3-1.9 6.4-4.6 9.2-2.4-.9-4.1-1.8-5.2-2.5zm14 3.5c-.8.1-1.6.2-2.2.2-2.2 0-4.1-.3-5.9-.9 1.5-1.7 2.6-3.2 3.3-4.7.7-1.5 1.2-3.2 1.4-5.2 1.2-.7 2.5-1.3 4-1.9 1.5-.5 3.1-1 4.7-1.2 1.6-.3 3.2-.4 4.7-.4 1.2 0 2.5.1 4 .4-.2 2.7-1.2 5.2-3 7.6-1.1-.7-2.3-1-3.6-1-2.5 0-4.4.7-5.7 2.1-1.3 1.4-1.9 2.7-1.9 3.9.1.4.2.8.2 1.1zm.7-1.4c0-1.2.6-2.4 1.9-3.5 1.2-1.1 2.9-1.7 5.1-1.7 1 0 2 .3 2.9.9-1.2 1.4-2.6 2.5-4.3 3.5-1.7.9-3.5 1.6-5.4 2-.2-.3-.2-.7-.2-1.2zm18.3.1c-1.2 1.6-2.8 2.9-4.9 3.9-2.1 1-4.3 1.4-6.6 1.4-1.7 0-3.1-.3-4.3-.9-1.1-.6-1.9-1.4-2.2-2.5 1.2-.3 2.4-.7 3.7-1.3 1.3-.6 2.5-1.3 3.6-2.1s2-1.6 2.8-2.6c.5.5.8.9 1 1.3.2.4.3.8.3 1.2 0 .5-.2 1-.5 1.6l.6.4c.4-.7.7-1.4.7-2 0-1.1-.5-2.1-1.5-3 1.7-1.8 2.8-4.4 3.2-7.8 1.9.4 3.4 1.2 4.4 2.7 1.1 1.4 1.6 2.9 1.6 4.5-.1 1.8-.7 3.6-1.9 5.2z"/><g fill="#231F20"><path d="M243.2 211.3c-6.7 0-13.3-.6-19-1.8l-13.9-24c2.6 2.1 6.9 3.8 12.5 5.1 6 1.4 13 2.1 20.3 2.1 7.3 0 14.3-.7 20.3-2.1 6.1-1.4 10.7-3.4 13.2-5.7l-14.2 24.5c-5.5 1.3-12.2 1.9-19.2 1.9zM275.5 186.3l-3.8 6.5-3.8 6.7-5.5 9.6c-5.7 1.2-12.3 1.9-19.1 1.9-6.7 0-13.1-.6-18.7-1.8l-5.6-9.7-3.9-6.8-3.5-6c2.7 1.7 6.5 3.1 11.3 4.2 6 1.4 13.1 2.1 20.4 2.1s14.4-.7 20.4-2.1h.1c5-1.1 9-2.7 11.7-4.6m2.5-3.4c-1.9 3-7.2 5.6-14.5 7.3-5.7 1.3-12.7 2.1-20.3 2.1s-14.5-.8-20.3-2.1c-7.3-1.7-12.6-4.3-14.5-7.3l5.8 10.1 3.9 6.8 5.7 9.9c5.5 1.2 12.1 1.9 19.2 1.9 7.3 0 14-.7 19.6-2l5.7-9.9 3.8-6.7 5.8-10.1h.1z"/></g><g fill="#231F20"><path d="M234.4 144z"/><circle cx="230.6" cy="170.3" r=".1"/><circle cx="227.7" cy="178.7" r=".1"/><circle cx="223.9" cy="186.7" r=".1"/><circle cx="219.4" cy="194.3" r=".2"/><circle cx="214.2" cy="201.5" r=".2"/><circle cx="208.3" cy="208.2" r=".3"/><circle cx="201.8" cy="214.2" r=".4"/><circle cx="194.8" cy="219.6" r=".5"/><circle cx="187.2" cy="224.3" r=".6"/><circle cx="179.3" cy="228.2" r=".7"/><circle cx="171" cy="231.4" r=".8"/><circle cx="162.4" cy="233.7" r=".9"/><circle cx="153.7" cy="235.2" r="1"/><circle cx="144.8" cy="235.8" r="1.1"/><circle cx="135.9" cy="235.6" r="1.2"/><circle cx="127.1" cy="234.6" r="1.3"/><circle cx="118.5" cy="232.7" r="1.4"/><circle cx="110" cy="229.9" r="1.5"/><circle cx="101.9" cy="226.4" r="1.6"/><circle cx="94.1" cy="222.1" r="1.7"/><circle cx="86.8" cy="217" r="1.8"/><circle cx="80" cy="211.3" r="1.9"/><circle cx="73.8" cy="204.9" r="1.9"/><circle cx="68.3" cy="198" r="2"/><circle cx="63.4" cy="190.6" r="2.1"/><circle cx="59.3" cy="182.8" r="2.1"/><circle cx="55.9" cy="174.5" r="2.1"/><circle cx="53.4" cy="166" r="2.2"/><circle cx="51.7" cy="157.3" r="2.2"/><circle cx="50.8" cy="148.5" r="2.2"/><circle cx="50.8" cy="139.6" r="2.2"/><circle cx="51.7" cy="130.8" r="2.2"/><circle cx="53.4" cy="122.1" r="2.2"/><circle cx="55.9" cy="113.5" r="2.1"/><circle cx="59.2" cy="105.3" r="2.1"/><circle cx="63.4" cy="97.5" r="2.1"/><circle cx="68.2" cy="90" r="2"/><circle cx="73.8" cy="83.1" r="1.9"/><circle cx="80" cy="76.8" r="1.9"/><circle cx="86.8" cy="71" r="1.8"/><circle cx="94" cy="66" r="1.7"/><circle cx="101.8" cy="61.7" r="1.6"/><circle cx="109.9" cy="58.1" r="1.5"/><circle cx="118.4" cy="55.4" r="1.4"/><circle cx="127" cy="53.5" r="1.3"/><circle cx="135.8" cy="52.4" r="1.2"/><circle cx="144.7" cy="52.2" r="1.1"/><circle cx="153.6" cy="52.8" r="1"/><circle cx="162.3" cy="54.3" r=".9"/><circle cx="170.9" cy="56.6" r=".8"/><circle cx="179.2" cy="59.7" r=".7"/><circle cx="187.2" cy="63.7" r=".6"/><circle cx="194.7" cy="68.3" r=".5"/><circle cx="201.8" cy="73.7" r=".4"/><circle cx="208.3" cy="79.8" r=".3"/><circle cx="214.1" cy="86.4" r=".2"/><circle cx="219.4" cy="93.6" r=".2"/><circle cx="223.9" cy="101.2" r=".1"/><circle cx="227.6" cy="109.3" r=".1"/><circle cx="230.6" cy="117.6" r=".1"/></g><path fill="#231F20" d="M267.7 132.4c-2.3-3.4-5.5-6.1-9.5-8.1s-8.4-3-13.3-3c-2 0-4.1.2-6.1.5-2.1.4-4.1.9-6.1 1.6-2 .7-3.9 1.6-5.7 2.6-1.4-1.9-2.9-3.4-4.6-4.4-1.7-1-3.4-1.5-5.3-1.5-1.3 0-2.6.3-3.6.8-1.1.5-1.9 1.3-2.6 2.2-.6.9-.9 2-.9 3.2 0 1.7.6 3.1 1.8 4.2l.6-.4c-.7-1-1-2-1-3.1 0-1.6.5-2.9 1.7-3.9 1.1-1 2.5-1.5 4.2-1.5 3 0 5.8 1.8 8.4 5.4-2.2 1.4-4.2 2.8-6 4.3-1.6 1.3-3 2.7-4.3 4.2l-.6.6c-1 1.2-1.9 2.4-2.7 3.6-.4.6-.8 1.2-1.1 1.8-.9 1.5-1.7 3-2.5 4.2-.8 1.3-1.6 2.5-2.2 3.6-1.3 2-2.5 3.6-3.5 4.8-.1.1-.1.2-.2.2-.8.9-1.6 1.7-2.3 2.3-.4.4-.8.8-1.3 1.2-.7.5-1.6 1-2.5 1.3-.7.3-1.4.4-2.2.5l-1 .1c-1.4 0-2.7-.3-4-.7-1.2-.5-2.3-1.3-3.2-2.4-.9-1.1-1.7-2.6-2.2-4.5-.6-1.9-.9-4.2-.9-7h24c0-3.9-.3-7.3-.9-10.1-.6-2.8-1.5-5.1-2.7-6.8-1.2-1.8-2.7-3.1-4.6-3.9-1.8-.8-4-1.2-6.4-1.2-2.2 0-4.3.4-6.2 1.2-1.9.8-3.6 2.1-5.1 3.8-1.4 1.7-2.6 3.9-3.4 6.6-.8 2.7-1.2 5.9-1.2 9.6 0 3.5.4 6.5 1.2 9 .8 2.5 1.9 4.6 3.3 6.3 1.4 1.7 3.1 2.9 5.1 3.7 1.9.8 4.1 1.2 6.5 1.2 2.5 0 4.7-.4 6.5-1.2.7.1 1.3.1 1.9.1 5 0 9.7-1.3 14-3.8s7.9-6 10.5-10.2c.7-1.1 1.2-2.1 1.7-3.2.2-.4.4-.8.5-1.2 1.1-2.9 1.7-5.9 1.7-9.1 0-.8 0-1.5-.1-2.1 1.8-1 3.6-1.8 5.2-2.3 1.7-.5 3.4-.7 5.2-.7 2.8 0 5.3.6 7.7 1.8 2.4 1.2 4.3 2.9 5.6 4.9 1.4 2.1 2.1 4.3 2.1 6.7 0 2.5-.8 4.6-2.3 6.5-1.5 1.8-3.6 3-6 3.5v.7c1.9-.2 3.6-.8 5.2-1.9 1.5-1 2.7-2.4 3.5-4.1.8-1.7 1.3-3.5 1.3-5.5 0-2.6-.7-5.1-2.2-7.3-1.4-2.2-3.4-4-5.9-5.3-2.5-1.3-5.1-2-8-2-3.8 0-7.7 1-11.8 3.2-.3-1.5-.7-2.9-1.4-4 5.7-3.2 11.5-4.8 17.4-4.8 4.5 0 8.6.9 12.3 2.7 3.7 1.8 6.7 4.3 8.8 7.5 2.1 3.2 3.2 6.7 3.2 10.5 0 3.7-.9 7.1-2.7 10.2-1.8 3.1-4.3 5.5-7.5 7.3-3.2 1.8-6.7 2.7-10.5 2.7-3.2 0-6.1-.6-8.7-1.7-2.6-1.1-4.6-2.7-6.1-4.7s-2.2-4.3-2.2-6.8c0-2.6.8-4.8 2.2-6.8 1.5-2 3.4-3.3 5.9-3.9v-.8c-1.8.4-3.5 1.2-4.9 2.3-1.4 1.1-2.5 2.5-3.4 4.1-.2.4-.4.8-.5 1.2-.5 1.3-.7 2.6-.7 4 0 2.8.8 5.3 2.4 7.5 1.6 2.2 3.8 4 6.7 5.2 2.9 1.3 6 1.9 9.5 1.9 2.8 0 5.4-.4 7.7-1.2 2.3-.8 4.5-2.1 6.5-3.8 1.7-1.4 3.1-2.9 4.2-4.6 1.2-1.7 2.1-3.6 2.6-5.6.6-2 .9-4 .9-6.1.5-4.7-.6-8.5-2.9-11.9zm-81.9-2.1c1.7-2.1 3.9-3.1 6.6-3.1 1.3 0 2.5.2 3.5.6 1 .4 1.9 1.2 2.6 2.2.7 1 1.3 2.3 1.7 3.9.4 1.6.7 3.6.8 6h-18.2c.3-4.3 1.3-7.5 3-9.6zm42.4 3.8l.1 1.2c0 1.7-.2 3.4-.7 5.2-.5 1.8-1.1 3.5-2 5.3-.9 1.8-1.9 3.4-3.1 5-1.2 1.5-2.5 2.9-3.9 4.2-2.7 2.3-5.6 4-8.8 5.2-2.9 1.1-5.8 1.7-8.7 1.8 2.2-1.4 4-3.1 5.2-5 0 0 0-.1.1-.1 1-1.2 2.6-4 5.1-9.3l.1-.3c2.3-4.7 5.4-9.3 6.4-10.9l.2-.3c2.2-2.8 4.8-5.3 8-7.6.7 1.4 1.2 2.7 1.4 4-2.8 1.8-5.4 4.3-7.9 7.3-2.4 3-4.9 6.8-7.3 11.3l.8.5c.7-1.3 1.7-2.8 2.8-4.5 1.2-1.7 2.3-3.4 3.6-4.9 1.5-1.9 2.9-3.4 4.2-4.7 1.5-1.4 2.9-2.5 4.4-3.4z"/></svg>