<?xml version="1.0" encoding="utf-8"?>
<!-- Generator: Adobe Illustrator 17.1.0, SVG Export Plug-In . SVG Version: 6.00 Build 0)  -->
<!DOCTYPE svg PUBLIC "-//W3C//DTD SVG 1.1//EN" "http://www.w3.org/Graphics/SVG/1.1/DTD/svg11.dtd">
<svg version="1.1" id="Layer_1" xmlns="http://www.w3.org/2000/svg" xmlns:xlink="http://www.w3.org/1999/xlink" x="0px" y="0px"
	 viewBox="0 0 195 136" enable-background="new 0 0 195 136" xml:space="preserve">
<g>
	<path fill="#231F20" d="M62.283,74.287c-0.86,1.42-1.75,2.47-2.67,3.15c-0.93,0.68-2.1,1.01-3.52,1.01c-2.05,0-3.69-0.85-4.91-2.57
		c-1.22-1.72-1.83-4.46-1.83-8.23c0-3.77,0.63-6.53,1.88-8.28c1.26-1.75,2.91-2.62,4.96-2.62c1.19,0,2.22,0.25,3.09,0.74
		c0.88,0.5,1.75,1.37,2.61,2.63l3.07-2.23c-1.19-1.59-2.48-2.7-3.87-3.35c-1.38-0.64-3.02-0.96-4.9-0.96c-1.56,0-3,0.28-4.34,0.84
		c-1.34,0.56-2.5,1.42-3.49,2.58c-1,1.15-1.77,2.62-2.33,4.41c-0.56,1.78-0.85,3.89-0.85,6.34c0,2.51,0.29,4.65,0.87,6.42
		c0.58,1.77,1.36,3.21,2.36,4.33c0.99,1.13,2.13,1.95,3.44,2.46c1.3,0.51,2.7,0.77,4.19,0.77c2.21,0,4.1-0.52,5.67-1.54
		c1.57-1.03,2.84-2.3,3.79-3.82L62.283,74.287z"/>
	<path fill="#231F20" d="M87.853,58.407c-0.36-0.98-0.91-1.82-1.66-2.53c-0.74-0.71-1.67-1.27-2.79-1.69
		c-1.13-0.41-2.45-0.61-3.97-0.61c-2.31,0-4.26,0.52-5.85,1.58c-1.58,1.06-2.77,2.48-3.57,4.26l3.62,1.39
		c0.5-1.35,1.22-2.39,2.16-3.1c0.94-0.71,2.12-1.06,3.54-1.06c1.85,0,3.16,0.52,3.94,1.56c0.78,1.04,1.17,2.35,1.17,3.94v2.23
		c-5.32,0.1-9.18,0.99-11.58,2.68c-2.39,1.68-3.59,3.98-3.59,6.88c0,1.39,0.25,2.56,0.74,3.52c0.5,0.96,1.14,1.75,1.91,2.36
		c0.78,0.61,1.65,1.05,2.63,1.34c0.97,0.28,1.94,0.42,2.9,0.42c1.81,0,3.31-0.33,4.48-0.99c1.18-0.67,2.13-1.49,2.85-2.48l0.2,2.97
		h3.42v-19.53C88.403,60.427,88.223,59.377,87.853,58.407z M84.443,75.427c-0.76,0.86-1.62,1.57-2.58,2.13
		c-0.96,0.56-2.07,0.85-3.32,0.85c-1.42,0-2.64-0.38-3.64-1.12c-1.01-0.74-1.52-1.96-1.52-3.64c0-2.02,0.9-3.53,2.68-4.54
		c1.78-1.01,4.58-1.54,8.38-1.61V75.427z"/>
	<path fill="#231F20" d="M104.513,65.957l10.75-11.64h-5.15l-9.82,11.15v-20.82h-3.96v36.43h3.96v-14.12l11.55,14.12h5.06
		L104.513,65.957z"/>
	<path fill="#231F20" d="M135.393,76.337c0.51-0.41,1.03-0.92,1.56-1.53L135.393,76.337z"/>
</g>
<g>
	<path fill="#D2A1A7" d="M162.104,71.979c-0.5,0.178-0.99,0.396-1.47,0.644c-0.267-0.406-0.48-0.856-0.629-1.332
		C160.708,71.474,161.406,71.706,162.104,71.979z"/>
	<path fill="#D2A1A7" d="M166.43,74.206c0.109,0.074,0.218,0.153,0.322,0.233c-0.604,0.262-1.267,0.406-1.965,0.406
		c-1.515,0-2.866-0.673-3.782-1.738c0.619-0.342,1.213-0.624,1.797-0.851C164.148,72.805,165.356,73.454,166.43,74.206z"/>
	<path fill="#D2A1A7" d="M163.5,72.018c1.901-0.787,3.97-1.233,6.208-1.337c-0.248,1.49-1.158,2.757-2.416,3.49
		c-0.099-0.074-0.198-0.153-0.302-0.228C165.94,73.181,164.782,72.538,163.5,72.018z"/>
	<path fill="#D2A1A7" d="M169.782,69.85c0,0.094-0.005,0.183-0.005,0.277c-2.341,0.114-4.678,0.604-7.014,1.47
		c-0.926-0.356-1.886-0.658-2.891-0.891c-0.049-0.277-0.074-0.564-0.074-0.856c0-2.757,2.233-4.99,4.99-4.99
		C167.544,64.86,169.782,67.093,169.782,69.85z"/>
	<g>
		<path fill="#231718" d="M189.347,85.448c-0.203-0.688-0.48-1.356-0.827-1.995c-0.346-0.639-0.738-1.198-1.178-1.678
			c0.079-0.322,0.119-0.569,0.119-0.743c0-1.342-1.064-2.242-3.198-2.698c-0.639-1.703-1.599-3.183-2.876-4.435
			c-1.282-1.252-2.817-2.203-4.619-2.846c-1.797-0.648-3.777-0.97-5.935-0.97c-0.376,0-0.757,0.01-1.134,0.03
			c-0.015,0.188-0.035,0.371-0.069,0.554c0.356-0.015,0.718-0.025,1.084-0.025c2.094,0,4.015,0.312,5.767,0.931
			c1.752,0.619,3.242,1.505,4.475,2.658c1.233,1.153,2.139,2.52,2.728,4.104c-0.589-0.049-0.926-0.079-1.02-0.079
			c-1.238,0-3.257,0.495-6.054,1.48c-0.426-0.757-1.04-1.139-1.837-1.139c-0.787,0-1.866,0.381-3.237,1.139
			c-0.431-1.104-1.035-2.158-1.822-3.158c-0.723-0.916-1.549-1.733-2.49-2.455c-0.173,0.104-0.351,0.193-0.54,0.272
			c0.96,0.703,1.792,1.5,2.51,2.401c0.787,0.99,1.421,2.059,1.901,3.218c-1.188,0.668-3.138,2.198-5.856,4.599
			c-0.455-0.198-0.842-0.302-1.158-0.302c-0.599,0-1.198,0.233-1.787,0.693c-0.594,0.455-1.317,1.228-2.173,2.307
			c-1.01-0.629-2.025-1.148-3.034-1.559c0.653-0.545,1.198-1.124,1.639-1.728c0.441-0.609,0.777-1.242,1.01-1.911
			c0.233-0.663,0.347-1.337,0.347-2.015c0-1.945-0.846-3.47-2.535-4.579c1.203-1.01,2.361-1.822,3.465-2.44
			c-0.134-0.153-0.257-0.317-0.371-0.485c-1.233,0.634-2.421,1.485-3.554,2.564c-0.441-0.238-0.945-0.426-1.51-0.569
			c-0.564-0.139-1.143-0.208-1.728-0.208c-0.891,0-1.832,0.188-2.817,0.559l0.158,0.579c0.842-0.411,1.728-0.619,2.658-0.619
			c0.97,0,1.876,0.208,2.718,0.619c-3.01,2.797-4.678,5.633-4.995,8.514c-0.614-0.134-1.287-0.203-2.02-0.203
			c-1.797,0-3.336,0.342-4.619,1.02c-1.772-1.569-2.653-3.317-2.653-5.232c0-1.158,0.312-2.317,0.936-3.47
			c0.629-1.148,1.46-2.138,2.5-2.965c1.064-0.827,2.376-1.465,3.926-1.911c1.554-0.446,3.242-0.668,5.064-0.668
			c1.307,0,2.564,0.109,3.767,0.332c0.515,0.094,1.03,0.208,1.544,0.347c-0.059-0.188-0.109-0.386-0.139-0.584
			c-0.347-0.079-0.703-0.153-1.064-0.223c-1.376-0.262-2.772-0.391-4.188-0.391c-2.435,0-4.643,0.406-6.623,1.218
			c-1.98,0.817-3.515,1.945-4.614,3.391c-1.099,1.445-1.648,3.059-1.648,4.846c0,1.143,0.203,2.143,0.619,3.005
			c0.411,0.861,1.104,1.738,2.079,2.629c-0.936,0.747-1.619,1.5-2.049,2.267c-0.436,0.767-0.648,1.594-0.648,2.49
			c0,1.223,0.386,2.332,1.168,3.317c0.777,0.985,1.871,1.752,3.277,2.307c1.406,0.554,2.98,0.832,4.722,0.832
			c2.361,0,4.747-0.559,7.158-1.678c1.079,0.515,2.257,0.777,3.534,0.777c1.238,0,2.44-0.228,3.609-0.688
			c1.163-0.46,2.252-1.119,3.267-1.97c1.544,0.361,2.931,0.54,4.158,0.54c0.386,0,1.099-0.054,2.139-0.158
			c0.545,1.827,2.183,2.737,4.916,2.737c1.851,0,3.539-0.366,5.074-1.099c1.53-0.733,2.733-1.747,3.599-3.049
			c0.866-1.297,1.297-2.752,1.297-4.366C189.659,86.804,189.555,86.141,189.347,85.448z M159.186,88.408
			c-0.574,0.772-1.148,1.51-1.718,2.218c-0.747,0.881-1.381,1.544-1.901,2c-0.827-0.589-1.52-1.302-2.089-2.138
			c-0.564-0.842-0.97-1.782-1.208-2.817c1.277-0.109,2.53-0.54,3.757-1.302C156.879,86.834,157.933,87.517,159.186,88.408z
			 M157.087,75.84c1.584,1.064,2.376,2.47,2.376,4.213c0,2.069-0.99,3.886-2.975,5.46c-1.465-0.683-2.931-1.163-4.396-1.44
			C152.543,81.151,154.211,78.409,157.087,75.84z M152.092,84.651c1.049,0.292,2.168,0.752,3.356,1.381
			c-0.549,0.317-1.069,0.559-1.569,0.718c-0.5,0.158-1.094,0.277-1.787,0.361c-0.054-0.777-0.079-1.213-0.079-1.322
			C152.013,85.671,152.038,85.29,152.092,84.651z M149.731,84.349c0.668,0,1.267,0.064,1.802,0.183
			c-0.03,0.238-0.04,0.505-0.04,0.797c0,0.426,0.04,1.035,0.119,1.822c-2.346-0.04-4.406-0.673-6.178-1.901
			C146.622,84.651,148.053,84.349,149.731,84.349z M148.731,95.403c-1.129,0-2.188-0.248-3.173-0.738
			c-0.99-0.495-1.782-1.163-2.381-2c-0.599-0.842-0.896-1.738-0.896-2.698c0-0.827,0.238-1.639,0.718-2.44
			c0.48-0.797,1.124-1.455,1.936-1.975c0.906,0.718,1.985,1.252,3.228,1.599c1.247,0.347,2.435,0.52,3.569,0.52
			c0.574,2.247,1.703,4.069,3.396,5.455c-1.119,0.782-2.183,1.361-3.198,1.728C150.919,95.22,149.855,95.403,148.731,95.403z
			 M156.929,94.423c-1.906,0.931-3.614,1.401-5.119,1.401h-0.441c0.975-0.213,1.767-0.455,2.381-0.723
			c0.609-0.267,1.317-0.653,2.119-1.158c0.772-0.52,1.594-1.129,2.465-1.827c0.871-0.703,1.708-1.411,2.51-2.129
			c0.797-0.723,1.549-1.406,2.247-2.059c0.698-0.653,1.247-1.158,1.648-1.52c1.945-1.822,4.128-3.277,6.544-4.356
			c2.421-1.079,4.727-1.619,6.925-1.619c2.025,0,3.96,0.381,5.816,1.139c0.916,0.361,1.678,0.762,2.287,1.213
			c0.604,0.446,1.079,0.955,1.426,1.525c-1.332-1.465-3.896-2.198-7.693-2.198c-1.332,0-2.574,0.119-3.727,0.351
			c-1.148,0.233-2.312,0.594-3.485,1.089c-1.173,0.495-2.391,1.143-3.658,1.96c-1.267,0.812-2.549,1.762-3.856,2.856
			c-2.827,2.302-4.628,3.742-5.416,4.317C159.117,93.259,158.127,93.839,156.929,94.423z M161.641,94.962
			c-1.089,0-2.064-0.193-2.916-0.579c0.733-0.361,1.475-0.772,2.228-1.238c0.752-0.465,1.782-1.134,3.089-2
			c1.198,0.584,2.495,1.064,3.896,1.441C166.032,94.17,163.933,94.962,161.641,94.962z M165.121,90.284
			c0.267-0.198,0.604-0.446,1.02-0.747c0.411-0.302,0.752-0.554,1.015-0.767c1.629-1.188,3.153-2.208,4.579-3.059
			c-0.252,2.223-1.297,4.312-3.138,6.252C167.037,91.339,165.879,90.779,165.121,90.284z M174.65,92.626
			c-0.569,0.079-1.064,0.119-1.475,0.119c-1.465,0-2.807-0.193-4.02-0.579c1.015-1.119,1.757-2.188,2.237-3.208
			c0.48-1.02,0.802-2.193,0.96-3.529c0.802-0.48,1.708-0.901,2.728-1.267s2.074-0.644,3.168-0.827
			c1.094-0.188,2.158-0.282,3.198-0.282c0.827,0,1.723,0.079,2.698,0.238c-0.158,1.802-0.842,3.505-2.039,5.119
			c-0.772-0.465-1.579-0.698-2.416-0.698c-1.693,0-2.97,0.465-3.826,1.406c-0.861,0.941-1.292,1.822-1.292,2.648
			C174.571,92.151,174.596,92.438,174.65,92.626z M175.091,91.685c0-0.812,0.421-1.594,1.257-2.346
			c0.842-0.752,1.995-1.134,3.46-1.134c0.678,0,1.332,0.208,1.955,0.624c-0.812,0.931-1.782,1.708-2.916,2.337
			c-1.134,0.629-2.356,1.074-3.678,1.337C175.116,92.279,175.091,92.007,175.091,91.685z M187.491,91.764
			c-0.822,1.104-1.926,1.98-3.317,2.629c-1.391,0.644-2.886,0.97-4.485,0.97c-1.163,0-2.129-0.203-2.901-0.599
			c-0.772-0.401-1.262-0.96-1.475-1.678c0.812-0.173,1.658-0.46,2.535-0.861c0.881-0.401,1.683-0.861,2.411-1.391
			c0.723-0.525,1.351-1.114,1.886-1.767c0.322,0.322,0.545,0.609,0.668,0.861c0.129,0.252,0.193,0.525,0.193,0.817
			c0,0.322-0.114,0.673-0.342,1.059l0.381,0.243c0.292-0.48,0.441-0.926,0.441-1.342c0-0.743-0.342-1.416-1.02-2.02
			c1.143-1.223,1.871-2.995,2.178-5.312c1.277,0.238,2.277,0.842,2.995,1.807c0.723,0.965,1.079,1.975,1.079,3.025
			C188.719,89.473,188.313,90.661,187.491,91.764z"/>
	</g>
	<g>
		<path fill="#231F20" d="M164.695,113.585c-4.569,0-9.01-0.43-12.85-1.243l-9.392-16.264c1.785,1.391,4.692,2.589,8.464,3.465
			c4.068,0.938,8.83,1.435,13.777,1.435s9.709-0.496,13.772-1.435c4.125-0.957,7.214-2.299,8.934-3.856l-9.583,16.599
			C173.926,113.136,169.391,113.585,164.695,113.585z"/>
		<path fill="#231F20" d="M186.555,96.657l-2.542,4.404l-2.606,4.512l-3.75,6.493c-3.852,0.831-8.328,1.27-12.963,1.27
			c-4.51,0-8.893-0.42-12.69-1.214l-3.781-6.55l-2.658-4.602l-2.347-4.063c1.826,1.143,4.426,2.128,7.642,2.875
			c0.01,0.002,0.021,0.004,0.032,0.006c4.075,0.939,8.847,1.436,13.801,1.436c4.954,0,9.724-0.496,13.799-1.435
			c0.011-0.002,0.023-0.004,0.034-0.007C181.979,98.983,184.718,97.908,186.555,96.657 M188.213,94.359
			c-1.255,2.038-4.843,3.793-9.797,4.943h-0.005c-3.887,0.898-8.615,1.429-13.716,1.429c-5.101,0-9.829-0.531-13.716-1.429h-0.005
			c-4.933-1.145-8.521-2.895-9.787-4.922l3.95,6.84l2.658,4.602l3.887,6.735v0.005c3.751,0.804,8.216,1.271,13.012,1.271
			c4.912,0,9.482-0.489,13.285-1.329v-0.005l3.856-6.677l2.606-4.512l3.95-6.845L188.213,94.359L188.213,94.359z"/>
	</g>
</g>
<g>
	<g>
		<path fill="#231F20" d="M158.733,68L158.733,68z"/>
		<circle fill="#231F20" cx="158.447" cy="74.005" r="0.014"/>
		<circle fill="#231F20" cx="157.586" cy="79.954" r="0.028"/>
		<circle fill="#231F20" cx="156.151" cy="85.793" r="0.042"/>
		<circle fill="#231F20" cx="154.156" cy="91.463" r="0.056"/>
		<circle fill="#231F20" cx="151.619" cy="96.913" r="0.08"/>
		<circle fill="#231F20" cx="148.567" cy="102.09" r="0.121"/>
		<circle fill="#231F20" cx="145.031" cy="106.949" r="0.162"/>
		<circle fill="#231F20" cx="141.044" cy="111.445" r="0.203"/>
		<circle fill="#231F20" cx="136.646" cy="115.538" r="0.251"/>
		<circle fill="#231F20" cx="131.875" cy="119.189" r="0.319"/>
		<circle fill="#231F20" cx="126.776" cy="122.364" r="0.387"/>
		<circle fill="#231F20" cx="121.393" cy="125.031" r="0.456"/>
		<circle fill="#231F20" cx="115.776" cy="127.164" r="0.524"/>
		<circle fill="#231F20" cx="109.977" cy="128.741" r="0.593"/>
		<circle fill="#231F20" cx="104.051" cy="129.747" r="0.661"/>
		<circle fill="#231F20" cx="98.057" cy="130.178" r="0.729"/>
		<circle fill="#231F20" cx="92.047" cy="130.037" r="0.798"/>
		<circle fill="#231F20" cx="86.078" cy="129.321" r="0.866"/>
		<circle fill="#231F20" cx="80.206" cy="128.03" r="0.935"/>
		<circle fill="#231F20" cx="74.488" cy="126.175" r="1.003"/>
		<circle fill="#231F20" cx="68.978" cy="123.773" r="1.071"/>
		<circle fill="#231F20" cx="63.727" cy="120.848" r="1.14"/>
		<circle fill="#231F20" cx="58.783" cy="117.431" r="1.208"/>
		<circle fill="#231F20" cx="54.192" cy="113.555" r="1.272"/>
		<circle fill="#231F20" cx="49.993" cy="109.257" r="1.313"/>
		<circle fill="#231F20" cx="46.227" cy="104.577" r="1.354"/>
		<circle fill="#231F20" cx="42.929" cy="99.556" r="1.395"/>
		<circle fill="#231F20" cx="40.13" cy="94.24" r="1.436"/>
		<circle fill="#231F20" cx="37.86" cy="88.677" r="1.45"/>
		<circle fill="#231F20" cx="36.142" cy="82.919" r="1.464"/>
		<circle fill="#231F20" cx="34.99" cy="77.021" r="1.478"/>
		<circle fill="#231F20" cx="34.414" cy="71.038" r="1.492"/>
		<circle fill="#231F20" cx="34.41" cy="65.027" r="1.494"/>
		<circle fill="#231F20" cx="34.981" cy="59.043" r="1.48"/>
		<circle fill="#231F20" cx="36.126" cy="53.143" r="1.466"/>
		<circle fill="#231F20" cx="37.84" cy="47.38" r="1.452"/>
		<circle fill="#231F20" cx="40.104" cy="41.817" r="1.438"/>
		<circle fill="#231F20" cx="42.899" cy="36.495" r="1.402"/>
		<circle fill="#231F20" cx="46.194" cy="31.469" r="1.361"/>
		<circle fill="#231F20" cx="49.957" cy="26.784" r="1.32"/>
		<circle fill="#231F20" cx="54.151" cy="22.482" r="1.278"/>
		<circle fill="#231F20" cx="58.739" cy="18.603" r="1.218"/>
		<circle fill="#231F20" cx="63.677" cy="15.183" r="1.149"/>
		<circle fill="#231F20" cx="68.923" cy="12.255" r="1.081"/>
		<circle fill="#231F20" cx="74.428" cy="9.848" r="1.012"/>
		<circle fill="#231F20" cx="80.141" cy="7.987" r="0.943"/>
		<circle fill="#231F20" cx="86.009" cy="6.691" r="0.874"/>
		<circle fill="#231F20" cx="91.977" cy="5.968" r="0.805"/>
		<circle fill="#231F20" cx="97.985" cy="5.82" r="0.736"/>
		<circle fill="#231F20" cx="103.982" cy="6.245" r="0.668"/>
		<circle fill="#231F20" cx="109.909" cy="7.245" r="0.599"/>
		<circle fill="#231F20" cx="115.712" cy="8.815" r="0.53"/>
		<circle fill="#231F20" cx="121.334" cy="10.943" r="0.461"/>
		<circle fill="#231F20" cx="126.723" cy="13.607" r="0.392"/>
		<circle fill="#231F20" cx="131.828" cy="16.778" r="0.323"/>
		<circle fill="#231F20" cx="136.603" cy="20.426" r="0.255"/>
		<circle fill="#231F20" cx="141.006" cy="24.515" r="0.205"/>
		<circle fill="#231F20" cx="144.995" cy="29.007" r="0.164"/>
		<circle fill="#231F20" cx="148.535" cy="33.861" r="0.123"/>
		<circle fill="#231F20" cx="151.59" cy="39.033" r="0.082"/>
		<circle fill="#231F20" cx="154.131" cy="44.477" r="0.056"/>
		<circle fill="#231F20" cx="156.132" cy="50.143" r="0.042"/>
		<circle fill="#231F20" cx="157.572" cy="55.977" r="0.028"/>
		<circle fill="#231F20" cx="158.441" cy="61.925" r="0.014"/>
	</g>
</g>
<g>
	<path fill="#231F20" d="M181.223,60.117c-1.56-2.31-3.7-4.13-6.43-5.47c-2.72-1.33-5.72-2-8.99-2c-1.36,0-2.75,0.12-4.15,0.37
		c-1.4,0.24-2.79,0.6-4.14,1.07c-1.36,0.46-2.64,1.05-3.85,1.74c-0.93-1.32-1.97-2.32-3.11-3.01c-1.13-0.69-2.33-1.04-3.59-1.04
		c-0.91,0-1.73,0.18-2.47,0.54c-0.73,0.35-1.31,0.85-1.73,1.49c-0.43,0.64-0.64,1.36-0.64,2.16c0,1.16,0.41,2.1,1.23,2.83l0.38-0.27
		c-0.46-0.65-0.69-1.35-0.69-2.09c0-1.07,0.37-1.96,1.12-2.66c0.75-0.69,1.7-1.04,2.84-1.04c2.02,0,3.91,1.22,5.66,3.65
		c-1.52,0.94-2.87,1.9-4.08,2.9c-1.05,0.87-2.03,1.81-2.93,2.82c-0.13,0.14-0.26,0.28-0.38,0.42c-0.68,0.79-1.29,1.6-1.84,2.43
		c-0.27,0.39-0.52,0.79-0.75,1.19c-0.61,1.04-1.18,2-1.71,2.86c-0.55,0.91-1.06,1.71-1.52,2.42c-0.91,1.38-1.69,2.45-2.35,3.22
		c-0.05,0.05-0.09,0.11-0.15,0.16c-0.53,0.61-1.05,1.12-1.56,1.53c-0.27,0.28-0.57,0.54-0.9,0.78c-0.49,0.36-1.06,0.67-1.71,0.91
		c-0.45,0.18-0.94,0.29-1.46,0.34c-0.22,0.03-0.45,0.04-0.69,0.04c-0.96,0-1.86-0.17-2.71-0.5c-0.84-0.33-1.57-0.88-2.2-1.64
		s-1.13-1.77-1.51-3.04c-0.38-1.28-0.59-2.85-0.62-4.74h16.55c0-2.67-0.21-4.95-0.62-6.84c-0.41-1.88-1.03-3.42-1.86-4.63
		c-0.82-1.21-1.86-2.08-3.09-2.63c-1.24-0.54-2.69-0.81-4.34-0.81c-1.49,0-2.88,0.27-4.19,0.81c-1.3,0.55-2.44,1.41-3.42,2.58
		c-0.97,1.17-1.73,2.67-2.28,4.48c-0.54,1.82-0.82,3.99-0.82,6.5c0,2.34,0.27,4.37,0.8,6.07c0.53,1.7,1.27,3.11,2.23,4.24
		c0.96,1.12,2.1,1.95,3.42,2.5c1.32,0.54,2.79,0.82,4.41,0.82c1.68,0,3.15-0.26,4.43-0.79c0.47,0.04,0.9,0.06,1.3,0.06
		c3.37,0,6.54-0.86,9.51-2.59s5.35-4.04,7.14-6.92c0.45-0.72,0.84-1.45,1.17-2.19c0.13-0.28,0.24-0.56,0.36-0.84
		c0.77-1.97,1.16-4.01,1.16-6.13c0-0.54-0.02-1.02-0.05-1.42c1.23-0.71,2.42-1.23,3.55-1.56c1.14-0.33,2.32-0.49,3.54-0.49
		c1.87,0,3.6,0.41,5.21,1.22c1.6,0.82,2.88,1.93,3.82,3.32c0.94,1.4,1.41,2.91,1.41,4.55c0,1.68-0.52,3.14-1.57,4.38
		c-1.04,1.24-2.41,2.03-4.08,2.37v0.49c1.3-0.15,2.47-0.57,3.5-1.27c1.04-0.7,1.84-1.62,2.4-2.76c0.56-1.15,0.85-2.39,0.85-3.72
		c0-1.79-0.49-3.43-1.47-4.93s-2.31-2.69-3.97-3.58c-1.66-0.9-3.46-1.34-5.39-1.34c-2.56,0-5.23,0.71-8.02,2.14
		c-0.18-1.03-0.48-1.94-0.92-2.74c3.88-2.19,7.82-3.28,11.81-3.28c3.05,0,5.83,0.62,8.36,1.86c2.52,1.24,4.51,2.94,5.96,5.08
		c1.44,2.15,2.17,4.51,2.17,7.08c0,2.52-0.62,4.83-1.85,6.94c-1.23,2.1-2.92,3.75-5.07,4.94c-2.14,1.2-4.52,1.8-7.14,1.8
		c-2.17,0-4.13-0.39-5.89-1.15c-1.76-0.77-3.14-1.83-4.12-3.2c-0.99-1.37-1.49-2.91-1.49-4.63c0-1.74,0.51-3.27,1.51-4.6
		s2.33-2.22,3.98-2.67v-0.55c-1.25,0.26-2.36,0.78-3.32,1.53c-0.97,0.76-1.72,1.69-2.27,2.8c-0.13,0.28-0.25,0.56-0.35,0.84
		c-0.31,0.86-0.46,1.75-0.46,2.69c0,1.87,0.54,3.57,1.62,5.08c1.07,1.52,2.58,2.7,4.51,3.54c1.93,0.85,4.08,1.27,6.46,1.27
		c1.91,0,3.65-0.27,5.19-0.82c1.55-0.55,3.02-1.4,4.43-2.56c1.12-0.92,2.07-1.96,2.87-3.12c0.79-1.16,1.39-2.41,1.79-3.76
		c0.4-1.34,0.6-2.73,0.6-4.15C183.563,64.987,182.783,62.427,181.223,60.117z M125.773,58.727c1.12-1.39,2.61-2.08,4.46-2.08
		c0.89,0,1.68,0.15,2.35,0.44c0.68,0.3,1.27,0.79,1.76,1.47c0.5,0.67,0.89,1.57,1.17,2.67c0.28,1.11,0.45,2.47,0.52,4.09h-12.34
		C123.953,62.307,124.653,60.117,125.773,58.727z M154.493,61.317c0.03,0.26,0.04,0.54,0.04,0.82c0,1.13-0.15,2.29-0.47,3.49
		c-0.31,1.19-0.76,2.38-1.36,3.57c-0.59,1.19-1.28,2.31-2.08,3.36c-0.79,1.04-1.67,1.98-2.62,2.81c-1.81,1.55-3.79,2.73-5.95,3.53
		c-1.94,0.73-3.9,1.13-5.89,1.2c0.01,0,0.01-0.01,0.02-0.01c1.51-0.96,2.69-2.1,3.53-3.41c0-0.01,0.01-0.02,0.03-0.03
		c0.02-0.02,0.03-0.04,0.05-0.07v-0.01c0.67-0.83,1.76-2.7,3.47-6.28c0.03-0.06,0.06-0.13,0.1-0.2c1.57-3.19,3.63-6.3,4.36-7.37
		v-0.01c0.05-0.06,0.1-0.12,0.15-0.17c1.47-1.89,3.28-3.6,5.44-5.15c0.5,0.94,0.82,1.85,0.95,2.74c-1.9,1.25-3.67,2.89-5.32,4.91
		c-1.65,2.02-3.3,4.58-4.95,7.68l0.52,0.31c0.49-0.86,1.12-1.87,1.9-3.03c0.78-1.15,1.59-2.27,2.42-3.34
		c0.99-1.26,1.93-2.31,2.82-3.15C152.533,62.667,153.483,61.937,154.493,61.317z"/>
</g>
</svg>
