<?xml version="1.0" encoding="utf-8"?>
<!-- Generator: Adobe Illustrator 17.1.0, SVG Export Plug-In . SVG Version: 6.00 Build 0)  -->
<!DOCTYPE svg PUBLIC "-//W3C//DTD SVG 1.1//EN" "http://www.w3.org/Graphics/SVG/1.1/DTD/svg11.dtd">
<svg version="1.1" id="Layer_1" xmlns="http://www.w3.org/2000/svg" xmlns:xlink="http://www.w3.org/1999/xlink" x="0px" y="0px"
	 viewBox="0 0 792 1224" enable-background="new 0 0 792 1224" xml:space="preserve">
<path fill="#231F20" d="M253,637.6c-3.6,5.8-7.1,9.9-10.7,12.9c-3.9,2.8-8.5,4.1-14.3,4.1c-8.2,0-14.9-3.6-20.1-10.5
	c-5-6.9-7.4-18.2-7.4-33.5s2.5-26.4,7.7-33.5c5.2-7.2,11.8-10.7,20.1-10.7c5,0,9.1,1.1,12.7,3s7.1,5.5,10.7,10.7L264,571
	c-5-6.3-10.2-11-15.7-13.5c-5.5-2.5-12.4-3.9-19.8-3.9c-6.3,0-12.1,1.1-17.6,3.3c-5.5,2.2-10.2,5.8-14.3,10.5s-7.1,10.7-9.4,17.9
	s-3.6,15.7-3.6,25.8s1.1,19,3.6,26.1s5.5,12.9,9.6,17.6c4.1,4.7,8.5,8,14,9.9c5.2,2.2,11,3,17,3c9.1,0,16.8-2.2,23.1-6.3
	c6.3-4.1,11.6-9.3,15.4-15.4L253,637.6L253,637.6z M357,573c-1.4-3.8-3.6-7.4-6.9-10.2c-3-2.8-6.9-5.2-11.3-6.9
	c-4.7-1.7-9.9-2.5-16.2-2.5c-9.4,0-17.3,2.2-23.6,6.3c-6.3,4.4-11.3,10.2-14.6,17.3l14.6,5.8c1.9-5.5,5-9.6,8.8-12.7
	c3.9-2.8,8.5-4.4,14.3-4.4c7.4,0,12.9,2.2,16,6.3c3.3,4.1,4.7,9.6,4.7,16v9.1c-21.7,0.3-37.4,4.1-47,11s-14.6,16.2-14.6,28
	c0,5.8,1.1,10.5,3,14.3s4.7,7.2,7.7,9.6c3.3,2.5,6.6,4.4,10.7,5.5c3.9,1.1,8,1.7,11.8,1.7c7.4,0,13.5-1.4,18.1-4.1s8.5-6,11.5-10.2
	l0.8,12.1h14v-79.2C359.2,581.2,358.3,577.1,357,573z M342.9,642.2c-3,3.6-6.6,6.3-10.5,8.5s-8.5,3.6-13.5,3.6
	c-5.8,0-10.7-1.7-14.9-4.7c-4.1-3-6-8-6-14.8c0-8.2,3.6-14.3,11-18.4s18.7-6.3,34.1-6.6v32.5L342.9,642.2z M424.6,603.8l43.7-47.3
	h-20.9l-39.9,45.4v-84.4h-16v148h16v-57.5l47,57.5h20.6L424.6,603.8L424.6,603.8z M550,645.8c2.2-1.7,4.1-3.8,6.3-6.3L550,645.8z"/>
<path fill="#D2A1A7" d="M658.3,628.2c-1.9,0.8-4.1,1.7-6,2.8c-1.1-1.7-1.9-3.6-2.5-5.5C652.9,626,655.6,627.1,658.3,628.2
	L658.3,628.2z M675.9,637.3l1.4,0.8c-2.5,1.1-5.2,1.7-8,1.7c-6,0-11.5-2.8-15.4-7.2c2.5-1.4,5-2.5,7.4-3.6
	C666.6,631.5,671.5,634.3,675.9,637.3z M664.1,628.2c7.7-3.3,16.2-5,25.3-5.5c-1.1,6-4.7,11.3-9.9,14.3l-1.1-0.8
	C674,633.2,669.3,630.4,664.1,628.2z M689.7,619.4v1.1c-9.6,0.5-19,2.5-28.6,6c-3.8-1.4-7.7-2.8-11.8-3.6c-0.3-1.1-0.3-2.2-0.3-3.6
	c0-11.3,9.1-20.3,20.3-20.3C680.3,599.3,689.7,608.4,689.7,619.4L689.7,619.4z"/>
<path fill="#231718" d="M769.2,683c-0.8-2.8-1.9-5.5-3.3-8s-3-5-4.7-6.9c0.3-1.4,0.6-2.2,0.6-3c0-5.5-4.4-9.1-12.9-11
	c-2.5-6.9-6.6-12.9-11.6-18.2c-5.2-5-11.5-9.1-18.7-11.5c-7.4-2.8-15.4-3.8-24.2-3.8h-4.7l-0.3,2.2h4.4c8.5,0,16.2,1.4,23.4,3.8
	s13.2,6,18.2,10.7s8.8,10.2,11,16.8c-2.5-0.3-3.8-0.3-4.1-0.3c-4.9,0-13.2,1.9-24.5,6c-1.7-3-4.1-4.7-7.4-4.7s-7.7,1.7-13.2,4.7
	c-1.7-4.4-4.1-8.8-7.4-12.9c-3-3.8-6.3-7.2-10.2-9.9c-0.8,0.5-1.4,0.8-2.2,1.1c3.8,2.8,7.2,6,10.2,9.6c3.3,4.1,5.8,8.2,7.7,13.2
	c-5,2.8-12.7,8.8-23.7,18.7c-1.9-0.8-3.3-1.1-4.7-1.1c-2.5,0-5,0.8-7.2,2.8c-2.5,1.9-5.2,5-8.8,9.3c-4.1-2.5-8.2-4.7-12.4-6.3
	c2.8-2.2,5-4.7,6.6-7.2c1.9-2.5,3-5,4.1-7.7c0.8-2.8,1.4-5.5,1.4-8.2c0-8-3.3-14-10.2-18.7c5-4.1,9.6-7.4,14-9.9
	c-0.5-0.5-1.1-1.4-1.4-1.9c-5,2.5-9.9,6-14.3,10.4c-1.9-1.1-3.8-1.6-6-2.2c-2.2-0.6-4.7-0.8-7.2-0.8c-3.6,0-7.4,0.8-11.5,2.2
	l0.5,2.5c3.3-1.7,7.2-2.5,10.7-2.5c3.9,0,7.7,0.8,11,2.5c-12.1,11.3-19,22.8-20.3,34.7c-2.5-0.6-5.2-0.8-8.2-0.8
	c-7.4,0-13.5,1.4-18.7,4.1c-7.2-6.3-10.7-13.5-10.7-21.2c0-4.7,1.4-9.4,3.8-14s6-8.8,10.2-12.1c4.4-3.3,9.6-6.1,16-7.7
	c6.3-1.9,13.2-2.8,20.6-2.8c5.2,0,10.5,0.5,15.4,1.4c2.2,0.3,4.1,0.8,6.3,1.4c-0.3-0.8-0.5-1.7-0.5-2.5c-1.4-0.3-2.8-0.5-4.4-0.8
	c-5.5-1.1-11.3-1.7-17-1.7c-9.9,0-19,1.7-27,5c-8,3.3-14.3,8-18.7,13.8c-4.4,5.8-6.6,12.4-6.6,19.8c0,4.7,0.8,8.8,2.5,12.1
	c1.7,3.6,4.4,7.2,8.5,10.7c-3.8,3-6.6,6-8.2,9.1s-2.8,6.6-2.8,10.2c0,5,1.7,9.3,4.7,13.5c3,4.1,7.7,7.2,13.2,9.3
	c5.8,2.2,12.1,3.3,19.2,3.3c9.6,0,19.2-2.2,29.2-6.9c4.4,2.2,9.1,3,14.3,3c5,0,9.9-0.8,14.6-2.8s9.1-4.7,13.2-8
	c6.3,1.4,11.8,2.2,16.8,2.2c1.7,0,4.4-0.3,8.8-0.5c2.2,7.4,8.8,11,20.1,11c7.4,0,14.3-1.4,20.6-4.4s11-7.2,14.6-12.4
	s5.2-11.3,5.2-17.6C770.3,688.4,770,685.7,769.2,683L769.2,683z M646.5,694.8l-6.9,9.1c-3,3.6-5.5,6.3-7.7,8.2
	c-3.3-2.5-6-5.2-8.5-8.8c-2.2-3.3-3.8-7.2-5-11.5c5.2-0.5,10.2-2.2,15.1-5.2C637.2,688.5,641.6,691.2,646.5,694.8L646.5,694.8z
	 M638,643.9c6.3,4.4,9.6,9.9,9.6,17c0,8.5-4.1,15.7-12.1,22.3c-6-2.8-11.8-4.7-17.9-5.8C619.6,665.4,626.5,654.4,638,643.9z
	 M617.7,679.7c4.1,1.1,8.8,3,13.8,5.5c-2.2,1.4-4.4,2.2-6.3,3c-1.9,0.5-4.4,1.1-7.2,1.4c-0.3-3-0.3-5-0.3-5.5
	C617.4,683.8,617.4,682.1,617.7,679.7L617.7,679.7z M608,678.3c2.8,0,5.2,0.3,7.4,0.8c0,1.1-0.3,1.9-0.3,3.3c0,1.7,0.3,4.1,0.5,7.4
	c-9.6-0.3-17.9-2.8-25-7.7C595.4,679.7,601.4,678.3,608,678.3L608,678.3z M604.2,723.4c-4.7,0-8.8-1.1-12.9-3
	c-4.1-1.9-7.2-4.7-9.6-8.2c-2.5-3.3-3.6-7.2-3.6-11c0-3.3,1.1-6.6,3-9.9c1.9-3.3,4.7-5.8,8-8c3.6,3,8,5,13.2,6.6
	c5,1.4,9.9,2.2,14.6,2.2c2.2,9.1,6.9,16.5,13.8,22.3c-4.7,3.3-8.8,5.5-12.9,7.2C613,722.5,608.6,723.4,604.2,723.4L604.2,723.4z
	 M637.5,719.2c-7.7,3.8-14.6,5.8-20.9,5.8h-1.9c3.8-0.8,7.2-1.9,9.6-3c2.5-1.1,5.2-2.8,8.5-4.7c3-2.2,6.6-4.7,9.9-7.4
	c3.6-2.8,6.9-5.8,10.2-8.5c3.3-3,6.3-5.8,9.1-8.2s5-4.7,6.6-6c8-7.4,16.8-13.2,26.7-17.6c9.9-4.4,19.2-6.6,28-6.6
	c8.2,0,16,1.7,23.7,4.7c3.8,1.4,6.9,3,9.3,5c2.5,1.9,4.4,3.8,5.8,6.3c-5.5-6-15.9-8.8-31.3-8.8c-5.5,0-10.4,0.5-15.1,1.4
	s-9.3,2.5-14,4.4c-4.7,1.9-9.6,4.7-14.8,8s-10.5,7.1-15.7,11.5c-11.5,9.3-18.7,15.1-22,17.6C646.3,714.6,642.1,717.1,637.5,719.2
	L637.5,719.2z M656.4,721.5c-4.4,0-8.2-0.8-11.8-2.5c3-1.4,6-3,9.1-5s7.2-4.7,12.7-8.2c5,2.5,10.2,4.4,16,5.8
	C674.3,718.4,665.8,721.5,656.4,721.5L656.4,721.5z M670.7,702.5c1.1-0.8,2.5-1.9,4.1-3c1.7-1.1,3-2.2,4.1-3
	c6.6-5,12.9-9.1,18.7-12.4c-1.1,9.1-5.2,17.6-12.7,25.3C678.4,706.9,673.8,704.4,670.7,702.5L670.7,702.5z M709.2,712.1
	c-2.2,0.3-4.4,0.5-6.1,0.5c-6,0-11.3-0.8-16.2-2.5c4.1-4.7,7.2-8.8,9.1-12.9s3.3-8.8,3.8-14.3c3.3-1.9,6.9-3.6,11-5.2
	c4.1-1.4,8.5-2.8,12.9-3.3c4.4-0.8,8.8-1.1,12.9-1.1c3.3,0,6.9,0.3,11,1.1c-0.6,7.4-3.3,14.3-8.2,20.9c-3-1.9-6.3-2.8-9.9-2.8
	c-6.9,0-12.1,1.9-15.7,5.8c-3.6,3.8-5.2,7.4-5.2,10.7C709,710.2,709.2,711.3,709.2,712.1L709.2,712.1z M711.2,708.3
	c0-3.3,1.7-6.6,5.2-9.6c3.3-3,8-4.7,14-4.7c2.8,0,5.5,0.8,8,2.5c-3.3,3.8-7.1,6.9-11.8,9.6c-4.7,2.5-9.6,4.4-14.8,5.5
	C711.2,710.7,711.2,709.6,711.2,708.3z M761.5,708.5c-3.3,4.4-7.7,8-13.5,10.7c-5.8,2.8-11.8,3.8-18.1,3.8c-4.7,0-8.5-0.8-11.8-2.5
	c-3-1.7-5.2-3.8-6-6.9c3.3-0.8,6.6-1.9,10.2-3.6s6.9-3.6,9.9-5.8s5.5-4.4,7.7-7.2c1.4,1.4,2.2,2.5,2.8,3.6c0.6,1.1,0.8,2.2,0.8,3.3
	c0,1.4-0.6,2.8-1.4,4.4l1.7,1.1c1.1-1.9,1.9-3.8,1.9-5.5c0-3-1.4-5.8-4.1-8.2c4.7-5,7.7-12.1,8.8-21.5c5.2,1.1,9.3,3.3,12.1,7.4
	c3,3.8,4.4,8,4.4,12.4C766.4,699.2,764.8,704.1,761.5,708.5L761.5,708.5z"/>
<path fill="#231F20" d="M668.8,797.1c-18.4,0-36.6-1.7-52.2-5l-38.2-66c7.2,5.8,19,10.5,34.4,14c16.5,3.8,35.8,5.8,55.8,5.8
	s39.3-1.9,55.8-5.8c16.8-3.8,29.4-9.3,36.3-15.7l-39.1,67.4C706.5,795.4,688,797.1,668.8,797.1z M757.6,728.3l-10.4,17.9l-10.4,18.4
	L721.6,791c-15.7,3.3-33.8,5.2-52.5,5.2c-18.4,0-36-1.7-51.4-5l-15.4-26.7l-10.7-18.7l-9.6-16.5c7.4,4.7,17.9,8.5,31.1,11.5
	c16.5,3.8,36,5.8,56.1,5.8c20.1,0,39.6-1.9,56.1-5.8h0.3C739.2,737.9,750.2,733.5,757.6,728.3"/>
<g>
	<path fill="#231F20" d="M644.6,612"/>
	<circle fill="#231F20" cx="634.2" cy="684.3" r="0.3"/>
	<circle fill="#231F20" cx="626.2" cy="707.4" r="0.3"/>
	<circle fill="#231F20" cx="615.7" cy="729.4" r="0.3"/>
	<circle fill="#231F20" cx="603.3" cy="750.3" r="0.5"/>
	<circle fill="#231F20" cx="589" cy="770.1" r="0.5"/>
	<circle fill="#231F20" cx="572.8" cy="788.5" r="0.8"/>
	<circle fill="#231F20" cx="555" cy="805" r="1.1"/>
	<circle fill="#231F20" cx="535.7" cy="819.9" r="1.4"/>
	<circle fill="#231F20" cx="514.8" cy="832.8" r="1.7"/>
	<circle fill="#231F20" cx="493.1" cy="843.5" r="1.9"/>
	<circle fill="#231F20" cx="470.2" cy="852.3" r="2.2"/>
	<circle fill="#231F20" cx="446.6" cy="858.7" r="2.5"/>
	<circle fill="#231F20" cx="422.7" cy="862.8" r="2.8"/>
	<circle fill="#231F20" cx="398.2" cy="864.5" r="3"/>
	<circle fill="#231F20" cx="373.7" cy="863.9" r="3.3"/>
	<circle fill="#231F20" cx="349.5" cy="861.2" r="3.6"/>
	<circle fill="#231F20" cx="325.9" cy="855.9" r="3.8"/>
	<circle fill="#231F20" cx="302.5" cy="848.2" r="4.1"/>
	<circle fill="#231F20" cx="280.2" cy="838.6" r="4.4"/>
	<circle fill="#231F20" cx="258.8" cy="826.8" r="4.7"/>
	<circle fill="#231F20" cx="238.7" cy="812.8" r="5"/>
	<circle fill="#231F20" cx="220" cy="797.1" r="5.2"/>
	<circle fill="#231F20" cx="203" cy="779.5" r="5.2"/>
	<circle fill="#231F20" cx="187.8" cy="760.5" r="5.5"/>
	<circle fill="#231F20" cx="174.4" cy="740.2" r="5.8"/>
	<circle fill="#231F20" cx="163.1" cy="718.7" r="5.8"/>
	<circle fill="#231F20" cx="153.7" cy="695.9" r="5.8"/>
	<circle fill="#231F20" cx="146.9" cy="672.5" r="6"/>
	<circle fill="#231F20" cx="142.2" cy="648.6" r="6"/>
	<circle fill="#231F20" cx="139.7" cy="624.4" r="6"/>
	<circle fill="#231F20" cx="139.7" cy="599.9" r="6"/>
	<circle fill="#231F20" cx="142.2" cy="575.7" r="6"/>
	<circle fill="#231F20" cx="146.9" cy="551.8" r="6"/>
	<circle fill="#231F20" cx="153.7" cy="528.1" r="5.8"/>
	<circle fill="#231F20" cx="162.8" cy="505.6" r="5.8"/>
	<circle fill="#231F20" cx="174.4" cy="484.1" r="5.8"/>
	<circle fill="#231F20" cx="187.5" cy="463.5" r="5.5"/>
	<circle fill="#231F20" cx="203" cy="444.5" r="5.2"/>
	<circle fill="#231F20" cx="220" cy="427.2" r="5.2"/>
	<circle fill="#231F20" cx="238.7" cy="411.2" r="5"/>
	<circle fill="#231F20" cx="258.5" cy="397.5" r="4.7"/>
	<circle fill="#231F20" cx="280" cy="385.7" r="4.4"/>
	<circle fill="#231F20" cx="302.2" cy="375.8" r="4.1"/>
	<circle fill="#231F20" cx="325.6" cy="368.3" r="3.9"/>
	<circle fill="#231F20" cx="349.2" cy="363.1" r="3.6"/>
	<circle fill="#231F20" cx="373.5" cy="360.1" r="3.3"/>
	<circle fill="#231F20" cx="397.9" cy="359.5" r="3"/>
	<circle fill="#231F20" cx="422.4" cy="361.2" r="2.8"/>
	<circle fill="#231F20" cx="446.3" cy="365.3" r="2.5"/>
	<circle fill="#231F20" cx="470" cy="371.7" r="2.2"/>
	<circle fill="#231F20" cx="492.8" cy="380.2" r="1.9"/>
	<circle fill="#231F20" cx="514.8" cy="391.2" r="1.7"/>
	<circle fill="#231F20" cx="535.4" cy="403.8" r="1.4"/>
	<circle fill="#231F20" cx="555" cy="418.7" r="1.1"/>
	<circle fill="#231F20" cx="572.8" cy="435.5" r="0.8"/>
	<circle fill="#231F20" cx="588.8" cy="453.6" r="0.5"/>
	<circle fill="#231F20" cx="603.3" cy="473.4" r="0.5"/>
	<circle fill="#231F20" cx="615.7" cy="494.3" r="0.3"/>
	<circle fill="#231F20" cx="625.9" cy="516.6" r="0.3"/>
	<circle fill="#231F20" cx="634.2" cy="539.4" r="0.3"/>
</g>
<path fill="#231F20" d="M736.2,580.1c-6.3-9.3-15.1-16.8-26.1-22.3s-23.1-8.2-36.6-8.2c-5.5,0-11.3,0.5-16.8,1.4
	c-5.8,1.1-11.3,2.5-16.8,4.4s-10.7,4.4-15.7,7.2c-3.8-5.2-8-9.4-12.7-12.1c-4.7-2.8-9.3-4.1-14.6-4.1c-3.6,0-7.2,0.8-9.9,2.2
	c-3,1.4-5.2,3.6-7.2,6c-1.6,2.5-2.5,5.5-2.5,8.8c0,4.7,1.7,8.5,5,11.5l1.7-1.1c-1.9-2.8-2.8-5.5-2.8-8.5c0-4.4,1.4-8,4.7-10.7
	c3-2.8,6.9-4.1,11.5-4.1c8.2,0,16,5,23.1,14.9c-6,3.8-11.5,7.7-16.5,11.8c-4.4,3.6-8.2,7.4-11.8,11.5l-1.6,1.7
	c-2.8,3.3-5.2,6.6-7.4,9.9c-1.1,1.7-2.2,3.3-3,5c-2.5,4.1-4.7,8.2-6.9,11.5c-2.2,3.6-4.4,6.9-6,9.9c-3.6,5.5-6.9,9.9-9.6,13.2
	c-0.3,0.3-0.3,0.5-0.6,0.5c-2.2,2.5-4.4,4.7-6.3,6.3c-1.1,1.1-2.2,2.2-3.6,3.3c-1.9,1.4-4.4,2.8-6.9,3.6c-1.9,0.8-3.9,1.1-6,1.4
	l-2.8,0.3c-3.9,0-7.4-0.8-11-1.9c-3.3-1.4-6.3-3.6-8.8-6.6c-2.5-3-4.7-7.2-6-12.4c-1.7-5.2-2.5-11.5-2.5-19.2h66
	c0-10.7-0.8-20.1-2.5-27.8c-1.7-7.7-4.1-14-7.4-18.7c-3.3-5-7.4-8.5-12.7-10.7c-5-2.2-11-3.3-17.6-3.3c-6,0-11.8,1.1-17,3.3
	c-5.2,2.2-9.9,5.8-14,10.5c-3.8,4.7-7.1,10.7-9.3,18.2c-2.2,7.4-3.3,16.2-3.3,26.4c0,9.6,1.1,17.9,3.3,24.8s5.2,12.7,9.1,17.3
	c3.8,4.7,8.5,8,14,10.2c5.2,2.2,11.3,3.3,17.9,3.3c6.9,0,12.9-1.1,17.9-3.3c1.9,0.3,3.6,0.3,5.2,0.3c13.8,0,26.7-3.6,38.5-10.5
	s21.7-16.5,28.9-28c1.9-3,3.3-5.8,4.7-8.8c0.5-1.1,1.1-2.2,1.4-3.3c3-8,4.7-16.2,4.7-25c0-2.2,0-4.1-0.3-5.8c5-2.8,9.9-5,14.3-6.3
	c4.7-1.4,9.3-1.9,14.3-1.9c7.7,0,14.6,1.7,21.2,5c6.6,3.3,11.8,8,15.4,13.5c3.8,5.8,5.8,11.8,5.8,18.4c0,6.9-2.2,12.7-6.3,17.9
	c-4.1,5-9.9,8.2-16.5,9.6v1.9c5.2-0.5,9.9-2.2,14.3-5.2c4.1-2.8,7.4-6.6,9.6-11.3c2.2-4.7,3.6-9.6,3.6-15.1c0-7.2-1.9-14-6-20.1
	c-3.8-6-9.3-11-16.2-14.6s-14-5.5-22-5.5c-10.5,0-21.2,2.8-32.5,8.8c-0.8-4.1-1.9-8-3.8-11c15.7-8.8,31.6-13.2,47.8-13.2
	c12.4,0,23.7,2.5,33.8,7.4c10.2,5,18.4,11.8,24.2,20.6s8.8,18.4,8.8,28.9c0,10.2-2.5,19.5-7.4,28c-5,8.5-11.8,15.1-20.6,20.1
	s-18.4,7.4-28.9,7.4c-8.8,0-16.8-1.7-23.9-4.7c-7.2-3-12.7-7.4-16.8-12.9s-6-11.8-6-18.7c0-7.2,2.2-13.2,6-18.7
	c4.1-5.5,9.3-9.1,16.2-10.7v-2.2c-5,1.1-9.6,3.3-13.5,6.3s-6.9,6.9-9.3,11.3c-0.6,1.1-1.1,2.2-1.4,3.3c-1.4,3.6-1.9,7.2-1.9,11
	c0,7.7,2.2,14.6,6.6,20.6c4.4,6,10.5,11,18.4,14.3c8,3.6,16.5,5.2,26.1,5.2c7.7,0,14.8-1.1,21.2-3.3c6.3-2.2,12.4-5.8,17.9-10.5
	c4.7-3.8,8.5-8,11.5-12.7c3.3-4.7,5.8-9.9,7.2-15.4c1.7-5.5,2.5-11,2.5-16.8C745.5,599.9,742.5,589.4,736.2,580.1L736.2,580.1z
	 M511,574.3c4.7-5.8,10.7-8.5,18.2-8.5c3.6,0,6.9,0.5,9.6,1.6s5.2,3.3,7.1,6s3.6,6.3,4.7,10.7c1.1,4.4,1.9,9.9,2.2,16.5h-50
	C503.5,588.9,506.3,580.1,511,574.3L511,574.3z M627.6,584.8l0.3,3.3c0,4.7-0.5,9.3-1.9,14.3s-3,9.6-5.5,14.6
	c-2.5,5-5.2,9.3-8.5,13.8c-3.3,4.1-6.9,8-10.7,11.5c-7.4,6.3-15.4,11-24.2,14.3c-8,3-16,4.7-23.9,5c6-3.8,11-8.5,14.3-13.8
	c0,0,0-0.3,0.3-0.3c2.8-3.3,7.1-11,14-25.6l0.3-0.8c6.3-12.9,14.8-25.6,17.6-30l0.5-0.8c6.1-7.7,13.2-14.6,22-20.9
	c1.9,3.8,3.3,7.4,3.9,11c-7.7,5-14.9,11.8-21.7,20.1c-6.6,8.2-13.5,18.7-20.1,31.1l2.2,1.4c1.9-3.6,4.7-7.7,7.7-12.4
	c3.3-4.7,6.3-9.3,9.9-13.5c4.1-5.2,8-9.3,11.5-12.9C619.6,590.3,623.4,587.2,627.6,584.8L627.6,584.8z"/>
</svg>
