<?xml version="1.0" encoding="utf-8"?>
<!-- Generator: Adobe Illustrator 17.1.0, SVG Export Plug-In . SVG Version: 6.00 Build 0)  -->
<!DOCTYPE svg PUBLIC "-//W3C//DTD SVG 1.1//EN" "http://www.w3.org/Graphics/SVG/1.1/DTD/svg11.dtd">
<svg version="1.1" id="Layer_1" xmlns="http://www.w3.org/2000/svg" xmlns:xlink="http://www.w3.org/1999/xlink" x="0px" y="0px"
	 viewBox="0 0 792 1224" enable-background="new 0 0 792 1224" xml:space="preserve">
<path fill="#D3A1A7" d="M359.2,410.4c-5.5,1.9-11,4.4-16.5,7.1c-3-4.4-5.2-9.6-6.9-14.9C343.5,404.9,351.2,407.4,359.2,410.4z
	 M407.3,435.2l3.6,2.5c-6.6,3-14,4.4-22,4.4c-16.8,0-31.9-7.4-42.1-19.2c6.9-3.9,13.5-6.9,20.1-9.4
	C381.7,419.8,395.2,426.9,407.3,435.2z M374.6,411c21.2-8.8,44.3-13.8,69-14.9c-2.8,16.5-12.9,30.8-27,38.8l-3.3-2.5
	C401.8,423.9,388.9,416.7,374.6,411L374.6,411z M444.7,386.8v3c-26.1,1.4-52,6.6-78.1,16.5c-10.5-3.9-20.9-7.4-32.2-9.9
	c-0.5-3-0.8-6.3-0.8-9.6c0-30.8,24.8-55.5,55.5-55.5C419.7,331.2,444.7,356,444.7,386.8L444.7,386.8z"/>
<path fill="#231718" d="M662.5,560.6c-2.2-7.7-5.2-15.1-9.1-22.3c-3.8-7.1-8.2-13.5-13.2-18.7c0.8-3.6,1.4-6.3,1.4-8.2
	c0-14.9-11.8-25-35.8-30c-7.2-19-17.9-35.5-32.2-49.5s-31.3-24.5-51.4-31.6s-42.1-10.7-66-10.7c-4.1,0-8.5,0-12.7,0.3
	c-0.3,2.2-0.3,4.1-0.8,6c3.8-0.3,8-0.3,12.1-0.3c23.4,0,44.8,3.6,64.4,10.5c19.5,6.9,36,16.8,49.8,29.7s23.9,27.8,30.5,45.6
	c-6.6-0.5-10.5-0.8-11.3-0.8c-13.8,0-36.3,5.5-67.4,16.5c-4.7-8.5-11.5-12.6-20.3-12.6c-8.8,0-20.9,4.1-36,12.6
	c-4.7-12.4-11.5-23.9-20.3-35.2c-8-10.2-17.3-19.2-27.8-27.2c-1.9,1.1-3.8,2.2-6,3c10.7,7.7,20.1,16.8,28,26.7
	c8.8,11,16,22.8,21.2,35.8c-13.2,7.4-34.9,24.5-65.2,51.2c-5-2.2-9.3-3.3-12.9-3.3c-6.6,0-13.5,2.5-19.8,7.7
	c-6.6,5-14.6,13.8-24.2,25.6c-11.3-6.9-22.5-12.9-33.8-17.3c7.1-6,13.5-12.6,18.1-19.2c5-6.9,8.5-13.8,11.3-21.2
	c2.5-7.4,3.9-14.8,3.9-22.5c0-21.7-9.4-38.8-28.3-50.9c13.5-11.3,26.4-20.4,38.5-27.2c-1.4-1.6-2.8-3.6-4.1-5.5
	c-13.8,7.1-27,16.5-39.6,28.6c-5-2.8-10.5-4.7-16.8-6.3c-6.3-1.6-12.6-2.2-19.2-2.2c-9.9,0-20.4,2.2-31.4,6.3l1.6,6.3
	c9.4-4.7,19.2-6.9,29.7-6.9c10.7,0,20.9,2.2,30.2,6.9c-33.5,31.1-52,62.7-55.6,94.9c-6.9-1.4-14.3-2.2-22.5-2.2
	c-20.1,0-37.1,3.9-51.4,11.3c-19.8-17.6-29.4-36.9-29.4-58.3c0-12.9,3.6-25.9,10.4-38.8s16.2-23.9,27.8-33
	c11.8-9.4,26.4-16.2,43.7-21.2c17.3-5,36-7.4,56.4-7.4c14.6,0,28.6,1.1,42.1,3.6c5.8,1.1,11.5,2.2,17.3,3.9l-1.6-6.6
	c-3.9-0.8-7.7-1.6-11.8-2.5c-15.4-3-30.8-4.4-46.8-4.4c-27.2,0-51.7,4.4-73.7,13.5s-39.1,21.7-51.4,37.7
	c-12.4,16.2-18.4,34.1-18.4,53.9c0,12.6,2.2,23.9,6.9,33.6s12.4,19.2,23.1,29.1c-10.4,8.2-18.1,16.8-22.8,25.3
	c-4.9,8.5-7.1,17.9-7.1,27.8c0,13.8,4.4,25.8,12.9,36.8s20.9,19.5,36.6,25.6c15.7,6,33.3,9.3,52.5,9.3c26.4,0,52.8-6.3,79.8-18.7
	c12.1,5.8,25,8.5,39.3,8.5c13.8,0,27.2-2.5,40.2-7.7c12.9-5.2,25-12.4,36.3-22c17.3,4.1,32.7,6,46.2,6c4.4,0,12.4-0.5,23.9-1.6
	c6,20.3,24.2,30.5,54.7,30.5c20.6,0,39.3-4.1,56.6-12.4c17-8.2,30.5-19.5,40.2-34.1s14.6-30.5,14.6-48.7
	C666,575.7,664.9,568.3,662.5,560.6L662.5,560.6z M326.4,593.6c-6.3,8.5-12.9,16.8-19.2,24.8c-8.2,9.9-15.4,17.3-21.2,22.3
	c-9.1-6.6-17-14.6-23.4-23.9s-10.7-19.8-13.5-31.3c14.3-1.1,28-6,41.8-14.6C300.8,576,312.7,583.7,326.4,593.6L326.4,593.6z
	 M303,453.6c17.6,11.8,26.4,27.5,26.4,47c0,23.1-11,43.2-33.3,60.8c-16.2-7.7-32.7-12.9-49-16C252.4,512.7,271.1,482.2,303,453.6
	L303,453.6z M247.5,551.5c11.5,3.3,24.2,8.2,37.4,15.4c-6,3.6-11.8,6.3-17.6,8c-5.5,1.7-12.1,3-19.8,4.1c-0.5-8.5-0.8-13.5-0.8-14.8
	C246.7,563,246.9,558.7,247.5,551.5z M221.1,548.2c7.4,0,14,0.8,20.1,1.9c-0.3,2.8-0.6,5.5-0.6,8.8c0,4.7,0.6,11.5,1.4,20.3
	c-26.1-0.5-48.9-7.4-68.8-21.2C186.5,551.5,202.4,548.2,221.1,548.2L221.1,548.2z M210.1,671.4c-12.6,0-24.5-2.8-35.5-8.2
	s-19.8-12.9-26.4-22.3c-6.6-9.3-9.9-19.2-9.9-30c0-9.3,2.8-18.2,8-27.2c5.2-8.8,12.6-16.2,21.4-22c10.2,8,22,14,36,17.9
	c14,3.8,27.2,5.8,39.9,5.8c6.3,25,19,45.4,38,60.8c-12.4,8.8-24.2,15.1-35.8,19.2C234.3,669.5,222.5,671.4,210.1,671.4L210.1,671.4z
	 M301.4,660.4c-21.2,10.5-40.1,15.7-56.9,15.7h-4.9c10.7-2.5,19.8-5,26.4-8c6.9-3,14.6-7.2,23.6-12.9c8.5-5.8,17.9-12.7,27.5-20.3
	c9.6-7.7,19-15.7,28-23.7c8.8-8,17.3-15.7,25-22.8s14-12.9,18.4-17c21.7-20.4,45.9-36.6,72.9-48.4c27-12.1,52.5-18.1,77.3-18.1
	c22.5,0,44,4.1,64.9,12.6c10.2,4.1,18.7,8.5,25.6,13.5c6.6,5,12.1,10.7,16,17c-14.9-16.2-43.5-24.5-85.8-24.5
	c-14.9,0-28.6,1.4-41.5,3.9c-12.9,2.5-25.9,6.6-38.8,12.1c-13.2,5.5-26.7,12.7-40.7,21.7c-14,9.1-28.3,19.5-42.9,31.9
	c-31.6,25.6-51.4,41.8-60.2,48.1C325.9,647.5,314.6,654.1,301.4,660.4L301.4,660.4z M353.9,666.5c-12.1,0-23.1-2.2-32.5-6.3
	c8.2-4.1,16.5-8.5,24.8-13.8s19.8-12.7,34.4-22.3c13.5,6.6,27.8,11.8,43.5,16C402.9,657.6,379.5,666.5,353.9,666.5z M392.7,614.5
	c3-2.2,6.6-5,11.3-8.2c4.7-3.3,8.2-6,11.3-8.5c18.1-13.2,35.2-24.5,50.9-34.1c-2.8,24.8-14.6,48.1-34.9,69.6
	C413.9,626,401,620,392.7,614.5L392.7,614.5z M498.9,640.3c-6.3,0.8-11.8,1.4-16.5,1.4c-16.2,0-31.3-2.2-44.8-6.3
	c11.3-12.4,19.5-24.5,25-35.8s8.8-24.5,10.7-39.3c8.8-5.2,19-9.9,30.5-14c11.3-4.1,23.1-7.2,35.2-9.4c12.1-2.2,23.9-3,35.8-3
	c9.1,0,19.2,0.8,30,2.8c-1.7,20.1-9.4,39-22.8,56.9c-8.5-5.2-17.6-7.7-27-7.7c-19,0-33,5.2-42.6,15.7C502.7,612,498,621.9,498,631
	C498,635.1,498.3,638.4,498.9,640.3L498.9,640.3z M503.8,629.9c0-9.1,4.7-17.9,14-26.1c9.3-8.2,22.3-12.7,38.5-12.7
	c7.4,0,14.8,2.2,21.7,6.9c-9.1,10.5-19.8,19-32.4,26.1c-12.7,6.9-26.1,12.1-41,14.8C504.1,636.5,503.8,633.4,503.8,629.9
	L503.8,629.9z M641.9,631c-9.1,12.4-21.5,22-36.9,29.2c-15.4,7.2-32.2,10.7-50,10.7c-12.9,0-23.7-2.2-32.5-6.6
	c-8.5-4.4-14-10.7-16.5-18.7c9.1-1.9,18.4-5.2,28.3-9.6s18.7-9.6,27-15.4c8-5.8,15.1-12.4,20.9-19.8c3.6,3.6,6,6.9,7.4,9.6
	s2.2,5.8,2.2,9.1c0,3.6-1.4,7.4-3.8,11.8l4.1,2.8c3.3-5.2,5-10.5,5-14.8c0-8.2-3.8-15.7-11.3-22.5c12.7-13.8,20.9-33.3,24.2-59.1
	c14.3,2.8,25.3,9.3,33.3,20.1c8,10.7,12.1,22,12.1,33.8C655.6,605.4,650.9,618.6,641.9,631L641.9,631z"/>
<path fill="#231F20" d="M387.8,874.1c-50.9,0-100.4-4.7-143.3-13.8L140,679.1c19.8,15.4,52.2,28.9,94.3,38.5
	c45.4,10.5,98.5,16,153.5,16s108.1-5.5,153.5-16c45.9-10.7,80.3-25.6,99.5-42.9L534,859.5C490.6,868.8,440.3,874.1,387.8,874.1
	L387.8,874.1z M631.4,685.4l-28.3,49l-29.2,50.3L532.1,857c-42.9,9.3-92.7,14-144.4,14c-50.3,0-99-4.7-141.4-13.5l-42.1-72.9
	l-29.7-51.2l-26.1-45.4c20.4,12.7,49.2,23.7,85.3,31.9h0.3c45.4,10.5,98.4,16,153.7,16s108.3-5.5,153.7-16h0.3
	C580.5,711.3,611,699.2,631.4,685.4"/>
</svg>
