<svg xmlns="http://www.w3.org/2000/svg" xmlns:xlink="http://www.w3.org/1999/xlink" viewBox="0 0 288 361" enable-background="new 0 0 288 361"><path fill="#D3A1A7" d="M276.2 243.6c-10.2 43.9-89.2 101.1-122.7 114-.3-.2-.6-.4-1-.6-.8-.5-1.8-1.1-2.9-1.8l.1 1.2c-36.5-8.9-117.2-54.9-132.8-95.8-24.2-41.5-15.5-91.2 19.1-111.3 32.3-18.6 75.6-5.2 101 29.7 1.9 2.6 3.7 5.3 5.4 8.2 18.7-43.4 63.1-66.3 100.1-51.2 36.9 15.2 52.2 63.4 33.7 107.6z"/><defs><path id="a" d="M275.9 243c-10.2 43.9-89.2 101.1-122.7 114-.3-.2-.6-.4-1-.6-.8-.5-1.8-1.1-2.9-1.8l.1 1.2c-36.5-8.9-117.2-54.9-132.8-95.8-24.2-41.4-15.6-91.2 19-111.2 32.3-18.6 75.6-5.2 101 29.7 1.9 2.6 3.7 5.3 5.4 8.2 18.7-43.4 63.1-66.3 100.1-51.2 37 15.2 52.2 63.3 33.8 107.5z"/></defs><clipPath id="b"><use xlink:href="#a" overflow="visible"/></clipPath><g clip-path="url(#b)"><path fill="#fff" d="M123.4 220.7c-2.9 1-5.7 2.3-8.4 3.7-1.5-2.3-2.7-4.9-3.6-7.6 4 1.1 8 2.4 12 3.9zM148.2 233.5l1.8 1.3c-3.5 1.5-7.3 2.3-11.2 2.3-8.7 0-16.4-3.9-21.6-9.9 3.5-2 6.9-3.6 10.3-4.9 7.6 3.2 14.5 6.9 20.7 11.2zM131.4 221c10.9-4.5 22.7-7.1 35.5-7.7-1.4 8.5-6.6 15.8-13.8 20l-1.7-1.3c-6-4.4-12.7-8.1-20-11zM167.4 208.6v1.6c-13.4.7-26.8 3.5-40.1 8.4-5.3-2-10.8-3.8-16.5-5.1-.3-1.6-.4-3.2-.4-4.9 0-15.8 12.8-28.6 28.6-28.6 15.5 0 28.4 12.8 28.4 28.6zM279.3 297.8c-1.2-3.9-2.7-7.8-4.7-11.4-2-3.7-4.2-6.9-6.7-9.6.5-1.8.7-3.3.7-4.3 0-7.7-6.1-12.8-18.3-15.4-3.7-9.7-9.2-18.2-16.5-25.4-7.3-7.2-16.1-12.6-26.4-16.3-10.3-3.7-21.6-5.6-34-5.6-2.2 0-4.3.1-6.5.2-.1 1.1-.2 2.1-.4 3.2 2-.1 4.1-.1 6.2-.1 12 0 23 1.8 33 5.3s18.6 8.6 25.6 15.2c7.1 6.6 12.2 14.4 15.6 23.5-3.4-.3-5.3-.5-5.8-.5-7.1 0-18.6 2.8-34.6 8.5-2.4-4.3-6-6.5-10.5-6.5s-10.7 2.2-18.5 6.5c-2.5-6.3-5.9-12.3-10.4-18.1-4.1-5.2-8.9-9.9-14.2-14-1 .6-2 1.1-3.1 1.6 5.5 4 10.3 8.6 14.4 13.7 4.5 5.7 8.1 11.8 10.9 18.4-6.8 3.8-18 12.6-33.5 26.3-2.6-1.1-4.8-1.7-6.6-1.7-3.4 0-6.9 1.3-10.2 4-3.4 2.6-7.5 7-12.4 13.2-5.8-3.6-11.6-6.6-17.4-8.9 3.7-3.1 6.9-6.4 9.4-9.9s4.4-7.1 5.8-10.9c1.3-3.8 2-7.7 2-11.5 0-11.1-4.8-19.9-14.5-26.2 6.9-5.8 13.5-10.4 19.8-14-.8-.9-1.5-1.8-2.1-2.8-7.1 3.6-13.9 8.5-20.3 14.7-2.5-1.4-5.4-2.4-8.6-3.3-3.2-.8-6.5-1.2-9.9-1.2-5.1 0-10.5 1.1-16.1 3.2l.5 3.3c4.8-2.4 9.9-3.5 15.2-3.5 5.6 0 10.7 1.2 15.6 3.5-17.2 16-26.8 32.2-28.6 48.7-3.5-.8-7.4-1.2-11.6-1.2-10.3 0-19.1 2-26.4 5.8-10.1-9-15.2-19-15.2-29.9 0-6.6 1.8-13.3 5.4-19.9 3.6-6.6 8.4-12.2 14.3-17 6.1-4.7 13.6-8.4 22.5-10.9 3.8-1.1 7.7-1.9 11.7-2.5 1.3-.8 2.8-1.3 4.7-1.3 1 0 1.9.2 2.7.4 3.2-.3 6.5-.4 9.9-.4 7.5 0 14.7.6 21.6 1.9 2.9.5 5.9 1.2 8.8 2-.3-1.1-.6-2.2-.8-3.3-2-.5-4-.9-6.1-1.3-7.9-1.5-15.9-2.2-24-2.2-13.9 0-26.6 2.3-37.9 7-11.3 4.7-20.1 11.1-26.4 19.4-5.2 6.9-8.2 14.4-9.1 22.6 0 .9-.1 1.8-.2 2.6l-.1 2.5c0 6.5 1.2 12.3 3.5 17.2 2.4 4.9 6.3 9.9 11.9 15-5.4 4.3-9.3 8.6-11.7 13-2.5 4.4-3.7 9.1-3.7 14.2 0 7 2.2 13.3 6.7 19 4.4 5.6 10.7 10 18.8 13.2 8 3.2 17.1 4.8 27 4.8 13.5 0 27.2-3.2 41-9.6 6.2 2.9 12.9 4.4 20.2 4.4 7.1 0 14-1.3 20.7-3.9 6.7-2.6 12.9-6.4 18.7-11.3 8.8 2.1 16.8 3.1 23.8 3.1 2.2 0 6.3-.3 12.2-.9 3.1 10.5 12.5 15.7 28.1 15.7 10.6 0 20.3-2.1 29-6.3 8.8-4.2 15.6-10 20.6-17.4 5-7.4 7.4-15.7 7.4-25-.1-3.6-.7-7.4-1.9-11.4zm-172.6 17c-3.3 4.4-6.6 8.6-9.8 12.7-4.3 5-7.9 8.8-10.9 11.4-4.7-3.4-8.7-7.5-12-12.2-3.2-4.8-5.6-10.2-6.9-16.1 7.3-.6 14.5-3.1 21.5-7.5 4.9 2.7 11 6.6 18.1 11.7zm-12-72c9.1 6.1 13.6 14.1 13.6 24.1 0 11.8-5.7 22.2-17 31.2-8.4-3.9-16.8-6.7-25.2-8.2 2.6-16.7 12.2-32.4 28.6-47.1zm-28.6 50.5c6 1.7 12.4 4.3 19.2 7.9-3.1 1.8-6.1 3.2-9 4.1-2.9.9-6.3 1.6-10.2 2.1-.3-4.4-.5-6.9-.5-7.6l.5-6.5zm-13.5-1.8c3.8 0 7.3.4 10.3 1-.2 1.4-.2 2.9-.2 4.6 0 2.4.2 5.9.7 10.4-13.4-.2-25.2-3.9-35.4-10.9 6.8-3.3 15-5.1 24.6-5.1zm-5.7 63.3c-6.5 0-12.5-1.4-18.2-4.2-5.7-2.8-10.2-6.7-13.6-11.4-3.4-4.8-5.1-9.9-5.1-15.4 0-4.7 1.4-9.4 4.1-14 2.7-4.6 6.4-8.3 11.1-11.3 5.2 4.1 11.4 7.2 18.5 9.2 7.1 2 13.9 3 20.4 3 3.3 12.9 9.7 23.3 19.4 31.2-6.4 4.5-12.5 7.8-18.3 9.9-5.8 1.9-11.9 3-18.3 3zm46.9-5.6c-10.9 5.3-20.7 8-29.3 8h-2.5c5.6-1.2 10.1-2.6 13.6-4.1 3.5-1.5 7.5-3.7 12.1-6.6 4.4-3 9.1-6.5 14.1-10.5s9.8-8.1 14.4-12.2 8.9-8 12.9-11.8c4-3.7 7.1-6.6 9.4-8.7 11.1-10.4 23.6-18.8 37.4-24.9 13.9-6.2 27.1-9.3 39.6-9.3 11.6 0 22.7 2.2 33.3 6.5 5.2 2.1 9.6 4.4 13.1 6.9 3.5 2.6 6.2 5.5 8.2 8.7-7.6-8.4-22.3-12.6-44-12.6-7.6 0-14.7.7-21.3 2-6.6 1.3-13.2 3.4-19.9 6.2-6.7 2.8-13.7 6.5-20.9 11.2-7.3 4.6-14.6 10.1-22.1 16.3-16.2 13.2-26.5 21.4-31 24.7-4.6 3.5-10.2 6.8-17.1 10.2zm27 3.1c-6.2 0-11.8-1.1-16.7-3.3 4.2-2.1 8.4-4.4 12.7-7.1 4.3-2.7 10.2-6.5 17.7-11.4 6.9 3.3 14.3 6.1 22.3 8.2-10.9 9-22.9 13.6-36 13.6zm19.9-26.8c1.5-1.1 3.5-2.6 5.8-4.3 2.4-1.7 4.3-3.2 5.8-4.4 9.3-6.8 18-12.6 26.2-17.5-1.4 12.7-7.4 24.7-18 35.8-8.9-3.6-15.5-6.8-19.8-9.6zm54.5 13.4c-3.3.5-6.1.7-8.4.7-8.4 0-16.1-1.1-23-3.3 5.8-6.4 10.1-12.5 12.8-18.4 2.7-5.8 4.6-12.5 5.5-20.2 4.6-2.7 9.8-5.2 15.6-7.3 5.8-2.1 11.9-3.7 18.1-4.7 6.3-1.1 12.3-1.6 18.3-1.6 4.7 0 9.9.5 15.4 1.4-.9 10.3-4.8 20.1-11.7 29.3-4.4-2.7-9-4-13.8-4-9.7 0-17 2.7-21.9 8-4.9 5.4-7.4 10.4-7.4 15.2.1 2.2.2 3.8.5 4.9zm2.5-5.4c0-4.6 2.4-9.1 7.2-13.4 4.8-4.3 11.4-6.5 19.8-6.5 3.9 0 7.6 1.2 11.2 3.6-4.6 5.3-10.2 9.8-16.7 13.4-6.5 3.6-13.5 6.1-21 7.7-.3-1.4-.5-2.9-.5-4.8zm71 .5c-4.7 6.3-11 11.3-19 15-8 3.7-16.5 5.6-25.7 5.6-6.7 0-12.2-1.2-16.6-3.4-4.4-2.3-7.2-5.5-8.4-9.6 4.6-1 9.5-2.6 14.5-4.9 5-2.3 9.6-4.9 13.8-8 4.1-3 7.7-6.4 10.8-10.1 1.8 1.8 3.1 3.5 3.8 4.9.7 1.4 1.1 3 1.1 4.7 0 1.8-.7 3.9-2 6.1l2.2 1.4c1.7-2.7 2.5-5.3 2.5-7.7 0-4.3-2-8.1-5.8-11.6 6.5-7 10.7-17.1 12.5-30.4 7.3 1.4 13 4.8 17.1 10.3 4.1 5.5 6.2 11.3 6.2 17.3 0 7.3-2.3 14.1-7 20.4z"/><g fill="#fff"><path d="M183.3 165.7c-5.6-8.6-13.2-15.4-22.7-20.5-9.5-5.2-19.8-7.7-30.8-7.7-14.4 0-29.5 4-45.2 11.9-.5.4-1.1.7-1.8.9-1.1 1.1-2.4 2-4.2 2.4v.2c-10.9 7.2-21 16.5-30.4 28.1s-19 26.2-28.4 44l3 1.8c2.8-4.9 6.4-10.7 10.9-17.3 4.5-6.6 9.1-13 13.8-19.1 5.7-7.2 11-13.2 16.1-18 4.5-4.3 9.3-8 14.3-11.3.7-.6 1.5-1.1 2.5-1.5 1.2-1.3 2.7-2.2 4.7-2.5v-.4c7-4.1 13.8-7 20.3-8.9 6.5-1.9 13.3-2.8 20.3-2.8 10.7 0 20.6 2.3 29.8 7s16.5 11 21.9 19c5.4 8 8.1 16.7 8.1 26 0 9.6-3 18-9 25.1-6 7.1-13.8 11.6-23.3 13.6v2.8c7.4-.9 14.1-3.3 20-7.3 6-4 10.5-9.3 13.7-15.8 3.2-6.6 4.9-13.7 4.9-21.3-.1-10.4-2.9-19.8-8.5-28.4zM232.8 152.9c-8.9-13.2-21.2-23.6-36.8-31.3-15.6-7.6-32.7-11.4-51.4-11.4-7.8 0-15.7.7-23.7 2.1-8 1.4-16 3.4-23.7 6.1-6.7 2.3-13.1 5.1-19.1 8.4.9 2 1.7 4 2.6 5.9.2 0 .4 0 .6.1 21.4-11.6 43-17.4 65-17.4 17.5 0 33.4 3.5 47.8 10.6 14.4 7.1 25.8 16.8 34.1 29.1 8.2 12.3 12.4 25.8 12.4 40.5 0 14.4-3.5 27.6-10.6 39.7-7 12-16.7 21.5-29 28.3-12.2 6.9-25.9 10.3-40.9 10.3-12.4 0-23.6-2.2-33.7-6.6-10.1-4.4-18-10.5-23.6-18.3-5.7-7.8-8.5-16.7-8.5-26.5 0-10 2.9-18.7 8.6-26.3 5.7-7.6 13.3-12.7 22.8-15.3v-3.1c-7.2 1.5-13.5 4.5-19 8.8-5.6 4.3-9.8 9.7-13 16-.7 1.6-1.4 3.2-2 4.8-1.8 4.9-2.6 10-2.6 15.4 0 10.7 3.1 20.4 9.3 29.1 6.1 8.7 14.8 15.5 25.8 20.3 11 4.9 23.3 7.3 37 7.3 10.9 0 20.9-1.5 29.7-4.7 8.9-3.1 17.3-8 25.4-14.6 6.4-5.3 11.8-11.2 16.4-17.9 4.5-6.6 8-13.8 10.2-21.5 2.3-7.7 3.4-15.6 3.4-23.7-.1-16.4-4.5-31-13.5-44.2z"/></g></g></svg>