<svg xmlns="http://www.w3.org/2000/svg" viewBox="0 0 288 288" enable-background="new 0 0 288 288"><path fill="#FBB040" d="M228 139.7c0 14.3-40.3 25.9-90 25.9s-90-11.6-90-25.9c0-14.3 40.3-25.9 90-25.9s90 11.6 90 25.9z"/><path d="M114.1 162.1l-7.2-8-8.7 6.3 3.4 103.5c4.4.6 9.1 1.1 14.1 1.5l-1.6-103.3zm31.9.7l-8-7.2-8 7.2-.3-.3.8 103.6c2.5.1 5 .1 7.5.1 2.8 0 5.6 0 8.3-.1l-.3-103.3zm-94.3-15.7l-3.3-11.8-4.9 1.6 18.5 110.4c.1 1 .5 1.9 1.1 2.8l-11.4-103zm30.6 10.7l-6.1-8.9-9.5 4.8 10.5 104.8c3.9 1.3 8.4 2.5 13.5 3.6l-8.4-104.3zm150.4-21.1l-3.7-.4-4.5 10.5-12.2 104.1c1-1.2 1.6-2.4 1.8-3.6l18.6-110.6zm-23.2 17l-9.6-4.8-6 8.8-7.9 104.3c5.1-1.1 9.6-2.3 13.5-3.6l10.1-104.8-.1.1zm-31.6 6.7l-8.7-6.3-7.2 7.9-.8 103.3c4.9-.4 9.6-.9 14-1.5l2.7-103.4z" fill="#1C75BC"/><path d="M98.2 160.4l-6.7-8.4-9.1 5.7 8.4 104.3c3.4.7 7 1.3 10.8 1.8l-3.4-103.4zm24.2-5.1l-8.3 6.8 1.5 103.3c4.8.4 9.8.6 14.9.8l-.8-103.6-7.3-7.3zm-55.8-1.6l-4.9-9.5-10 2.9 11.4 103.1c2.1 3.1 7 5.9 14.1 8.3l-10.6-104.8zm157.8-6.6l-10-2.9-4.8 9.4-10.1 104.8c6.1-2.2 10.5-4.7 12.8-7.4l12.2-104.1-.1.2zm-30.6 10.7l-9.1-5.7-6.7 8.3-2.7 103.4c3.8-.5 7.3-1.1 10.7-1.8l7.8-104.2zm-31.8 4.3l-8.3-6.8-7.6 7.6.3 103.3c5.2-.1 10.1-.4 14.9-.8l.7-103.3z" fill="#00AEEF"/></svg>