<?xml version="1.0" encoding="utf-8"?>
<!-- Generator: Adobe Illustrator 17.1.0, SVG Export Plug-In . SVG Version: 6.00 Build 0)  -->
<!DOCTYPE svg PUBLIC "-//W3C//DTD SVG 1.1//EN" "http://www.w3.org/Graphics/SVG/1.1/DTD/svg11.dtd">
<svg version="1.1" id="Layer_1" xmlns="http://www.w3.org/2000/svg" xmlns:xlink="http://www.w3.org/1999/xlink" x="0px" y="0px"
	 viewBox="0 0 288 288" enable-background="new 0 0 288 288" xml:space="preserve">
<g>
	<path fill="#D3A1A7" d="M130.6,70.7c-2,0.7-4,1.6-6,2.6c-1.1-1.6-1.9-3.5-2.5-5.4C124.9,68.7,127.7,69.6,130.6,70.7z"/>
	<path fill="#D3A1A7" d="M148.1,79.7c0.4,0.3,0.9,0.6,1.3,0.9c-2.4,1.1-5.1,1.6-8,1.6c-6.1,0-11.6-2.7-15.3-7
		c2.5-1.4,4.9-2.5,7.3-3.4C138.8,74.1,143.7,76.7,148.1,79.7z"/>
	<path fill="#D3A1A7" d="M136.2,70.9c7.7-3.2,16.1-5,25.1-5.4c-1,6-4.7,11.2-9.8,14.1c-0.4-0.3-0.8-0.6-1.2-0.9
		C146.1,75.6,141.4,73,136.2,70.9z"/>
	<path fill="#D3A1A7" d="M161.7,62.1c0,0.4,0,0.7,0,1.1c-9.5,0.5-18.9,2.4-28.4,6c-3.8-1.4-7.6-2.7-11.7-3.6
		c-0.2-1.1-0.3-2.3-0.3-3.5c0-11.2,9-20.2,20.2-20.2C152.6,41.9,161.7,50.9,161.7,62.1z"/>
	<g>
		<path fill="#231718" d="M240.9,125.3c-0.8-2.8-1.9-5.5-3.3-8.1c-1.4-2.6-3-4.9-4.8-6.8c0.3-1.3,0.5-2.3,0.5-3
			c0-5.4-4.3-9.1-13-10.9c-2.6-6.9-6.5-12.9-11.7-18c-5.2-5.1-11.4-8.9-18.7-11.5c-7.3-2.6-15.3-3.9-24-3.9c-1.5,0-3.1,0-4.6,0.1
			c-0.1,0.8-0.1,1.5-0.3,2.2c1.4-0.1,2.9-0.1,4.4-0.1c8.5,0,16.3,1.3,23.4,3.8c7.1,2.5,13.1,6.1,18.1,10.8S215.6,90,218,96.5
			c-2.4-0.2-3.8-0.3-4.1-0.3c-5,0-13.2,2-24.5,6c-1.7-3.1-4.2-4.6-7.4-4.6c-3.2,0-7.6,1.5-13.1,4.6c-1.7-4.5-4.2-8.7-7.4-12.8
			c-2.9-3.7-6.3-7-10.1-9.9c-0.7,0.4-1.4,0.8-2.2,1.1c3.9,2.8,7.3,6.1,10.2,9.7c3.2,4,5.8,8.3,7.7,13c-4.8,2.7-12.7,8.9-23.7,18.6
			c-1.8-0.8-3.4-1.2-4.7-1.2c-2.4,0-4.9,0.9-7.2,2.8c-2.4,1.8-5.3,5-8.8,9.3c-4.1-2.5-8.2-4.7-12.3-6.3c2.6-2.2,4.9-4.6,6.6-7
			c1.8-2.5,3.1-5,4.1-7.7c0.9-2.7,1.4-5.4,1.4-8.2c0-7.9-3.4-14.1-10.3-18.5c4.9-4.1,9.6-7.4,14-9.9c-0.5-0.6-1-1.3-1.5-2
			c-5,2.6-9.8,6-14.4,10.4c-1.8-1-3.8-1.7-6.1-2.3c-2.3-0.6-4.6-0.8-7-0.8c-3.6,0-7.4,0.8-11.4,2.3l0.6,2.3c3.4-1.7,7-2.5,10.8-2.5
			c3.9,0,7.6,0.8,11,2.5c-12.2,11.3-18.9,22.8-20.2,34.5c-2.5-0.5-5.2-0.8-8.2-0.8c-7.3,0-13.5,1.4-18.7,4.1
			c-7.2-6.4-10.7-13.4-10.7-21.2c0-4.7,1.3-9.4,3.8-14.1c2.5-4.7,5.9-8.7,10.1-12c4.3-3.4,9.6-5.9,15.9-7.7
			c6.3-1.8,13.1-2.7,20.5-2.7c5.3,0,10.4,0.4,15.3,1.3c2.1,0.4,4.2,0.8,6.3,1.4c-0.2-0.8-0.4-1.6-0.6-2.4c-1.4-0.3-2.8-0.6-4.3-0.9
			c-5.6-1.1-11.2-1.6-17-1.6c-9.9,0-18.8,1.6-26.8,4.9c-8,3.3-14.2,7.9-18.7,13.7c-4.5,5.9-6.7,12.4-6.7,19.6
			c0,4.6,0.8,8.7,2.5,12.2c1.7,3.5,4.5,7,8.4,10.6c-3.8,3-6.6,6.1-8.3,9.2c-1.8,3.1-2.6,6.5-2.6,10.1c0,5,1.6,9.4,4.7,13.4
			c3.1,4,7.6,7.1,13.3,9.3c5.7,2.2,12.1,3.4,19.1,3.4c9.6,0,19.2-2.3,29-6.8c4.4,2.1,9.1,3.1,14.3,3.1c5,0,9.9-0.9,14.6-2.8
			c4.7-1.9,9.1-4.5,13.2-8c6.3,1.5,11.9,2.2,16.8,2.2c1.6,0,4.5-0.2,8.7-0.6c2.2,7.4,8.8,11.1,19.9,11.1c7.5,0,14.3-1.5,20.6-4.5
			c6.2-3,11.1-7.1,14.6-12.4c3.5-5.3,5.3-11.1,5.3-17.7C242.2,130.8,241.8,128.1,240.9,125.3z M118.7,137.3c-2.3,3.1-4.7,6.1-7,9
			c-3,3.6-5.6,6.3-7.7,8.1c-3.3-2.4-6.2-5.3-8.5-8.7c-2.3-3.4-3.9-7.2-4.9-11.4c5.2-0.4,10.2-2.2,15.2-5.3
			C109.4,130.9,113.7,133.7,118.7,137.3z M110.2,86.4c6.4,4.3,9.6,10,9.6,17.1c0,8.4-4,15.7-12.1,22.1c-5.9-2.8-11.9-4.7-17.8-5.8
			C91.8,107.9,98.6,96.8,110.2,86.4z M90,122c4.2,1.2,8.8,3,13.6,5.6c-2.2,1.3-4.3,2.3-6.4,2.9c-2,0.6-4.4,1.1-7.2,1.5
			c-0.2-3.1-0.3-4.9-0.3-5.4C89.7,126.2,89.8,124.6,90,122z M80.4,120.8c2.7,0,5.1,0.3,7.3,0.7c-0.1,1-0.2,2-0.2,3.2
			c0,1.7,0.2,4.2,0.5,7.4c-9.5-0.2-17.8-2.7-25-7.7C67.8,122,73.6,120.8,80.4,120.8z M76.4,165.6c-4.6,0-8.9-1-12.9-3
			c-4-2-7.2-4.7-9.6-8.1c-2.4-3.4-3.6-7-3.6-10.9c0-3.4,1-6.6,2.9-9.9c1.9-3.2,4.6-5.9,7.8-8c3.7,2.9,8,5.1,13.1,6.5
			c5.1,1.4,9.9,2.1,14.5,2.1c2.3,9.1,6.9,16.5,13.8,22.1c-4.5,3.2-8.8,5.5-13,7C85.2,164.9,80.9,165.6,76.4,165.6z M109.6,161.6
			c-7.7,3.8-14.6,5.7-20.7,5.7h-1.8c3.9-0.9,7.2-1.8,9.6-2.9c2.5-1.1,5.3-2.6,8.6-4.7c3.1-2.1,6.5-4.6,10-7.4
			c3.5-2.8,6.9-5.7,10.2-8.6c3.2-2.9,6.3-5.7,9.1-8.3c2.8-2.6,5.1-4.7,6.7-6.2c7.9-7.4,16.7-13.3,26.5-17.6
			c9.8-4.4,19.1-6.6,28.1-6.6c8.2,0,16,1.5,23.6,4.6c3.7,1.5,6.8,3.1,9.3,4.9c2.4,1.8,4.4,3.9,5.8,6.2c-5.4-5.9-15.8-8.9-31.2-8.9
			c-5.4,0-10.4,0.5-15.1,1.4c-4.7,0.9-9.4,2.4-14.1,4.4c-4.8,2-9.7,4.6-14.8,7.9c-5.1,3.3-10.3,7.1-15.6,11.6
			c-11.5,9.3-18.7,15.2-21.9,17.5C118.5,156.9,114.4,159.3,109.6,161.6z M128.7,163.8c-4.4,0-8.4-0.8-11.8-2.3c3-1.5,6-3.1,9-5
			c3-1.9,7.2-4.6,12.5-8.1c4.9,2.4,10.1,4.3,15.8,5.8C146.5,160.6,138,163.8,128.7,163.8z M142.8,144.9c1.1-0.8,2.4-1.8,4.1-3
			c1.7-1.2,3-2.2,4.1-3.1c6.6-4.8,12.8-8.9,18.5-12.4c-1,9-5.3,17.5-12.7,25.3C150.5,149.1,145.8,146.9,142.8,144.9z M181.4,154.3
			c-2.3,0.3-4.3,0.5-6,0.5c-5.9,0-11.4-0.8-16.3-2.3c4.1-4.5,7.1-8.9,9.1-13s3.2-8.9,3.9-14.3c3.2-1.9,6.9-3.6,11.1-5.1
			c4.1-1.5,8.4-2.6,12.8-3.4c4.4-0.8,8.7-1.1,13-1.1c3.3,0,7,0.3,10.9,1c-0.6,7.3-3.4,14.2-8.3,20.7c-3.1-1.9-6.4-2.8-9.8-2.8
			c-6.9,0-12,1.9-15.5,5.7c-3.5,3.8-5.2,7.4-5.2,10.7C181.1,152.4,181.2,153.6,181.4,154.3z M183.2,150.5c0-3.3,1.7-6.5,5.1-9.5
			c3.4-3,8.1-4.6,14-4.6c2.7,0,5.4,0.8,7.9,2.5c-3.3,3.8-7.2,6.9-11.8,9.5c-4.6,2.5-9.5,4.4-14.9,5.4
			C183.3,152.9,183.2,151.8,183.2,150.5z M233.4,150.9c-3.3,4.5-7.8,8-13.4,10.6c-5.6,2.6-11.7,3.9-18.2,3.9
			c-4.7,0-8.6-0.8-11.8-2.4c-3.1-1.6-5.1-3.9-6-6.8c3.3-0.7,6.7-1.9,10.3-3.5c3.6-1.6,6.8-3.5,9.8-5.6c2.9-2.1,5.5-4.5,7.6-7.2
			c1.3,1.3,2.2,2.5,2.7,3.5c0.5,1,0.8,2.1,0.8,3.3c0,1.3-0.5,2.7-1.4,4.3l1.5,1c1.2-1.9,1.8-3.8,1.8-5.4c0-3-1.4-5.7-4.1-8.2
			c4.6-5,7.6-12.1,8.8-21.5c5.2,1,9.2,3.4,12.1,7.3c2.9,3.9,4.4,8,4.4,12.3C238.4,141.6,236.7,146.4,233.4,150.9z"/>
	</g>
	<g>
		<path fill="#231F20" d="M141,239.3c-18.5,0-36.5-1.7-52.1-5l-38-65.9c7.2,5.6,19,10.5,34.3,14c16.5,3.8,35.8,5.8,55.8,5.8
			s39.3-2,55.8-5.8c16.7-3.9,29.2-9.3,36.2-15.6L194.2,234C178.4,237.4,160.1,239.3,141,239.3z"/>
		<path fill="#231F20" d="M229.6,170.7l-10.3,17.8l-10.6,18.3l-15.2,26.3c-15.6,3.4-33.7,5.1-52.5,5.1c-18.3,0-36-1.7-51.4-4.9
			l-15.3-26.5l-10.8-18.6L54,171.7c7.4,4.6,17.9,8.6,31,11.6c0,0,0.1,0,0.1,0c16.5,3.8,35.8,5.8,55.9,5.8s39.4-2,55.9-5.8
			c0,0,0.1,0,0.1,0C211.1,180.1,222.2,175.7,229.6,170.7 M236.3,161.4c-5.1,8.3-19.6,15.4-39.7,20h0c-15.7,3.6-34.9,5.8-55.6,5.8
			s-39.8-2.2-55.6-5.8h0c-20-4.6-34.5-11.7-39.6-19.9l16,27.7l10.8,18.6l15.7,27.3v0c15.2,3.3,33.3,5.1,52.7,5.1
			c19.9,0,38.4-2,53.8-5.4v0l15.6-27l10.6-18.3l16-27.7L236.3,161.4L236.3,161.4z"/>
	</g>
</g>
</svg>
