<svg xmlns="http://www.w3.org/2000/svg" viewBox="0 0 288 288" enable-background="new 0 0 288 288"><path fill="#D3A1A7" d="M130.6 70.7c-2 .7-4 1.6-6 2.6-1.1-1.6-1.9-3.5-2.5-5.4 2.8.8 5.6 1.7 8.5 2.8zm17.5 9l1.3.9c-2.4 1.1-5.1 1.6-8 1.6-6.1 0-11.6-2.7-15.3-7 2.5-1.4 4.9-2.5 7.3-3.4 5.4 2.3 10.3 4.9 14.7 7.9zm-11.9-8.8c7.7-3.2 16.1-5 25.1-5.4-1 6-4.7 11.2-9.8 14.1l-1.2-.9c-4.2-3.1-8.9-5.7-14.1-7.8zm25.5-8.8v1.1c-9.5.5-18.9 2.4-28.4 6-3.8-1.4-7.6-2.7-11.7-3.6-.2-1.1-.3-2.3-.3-3.5 0-11.2 9-20.2 20.2-20.2 11.1 0 20.2 9 20.2 20.2z"/><path fill="#231718" d="M240.9 125.3c-.8-2.8-1.9-5.5-3.3-8.1-1.4-2.6-3-4.9-4.8-6.8.3-1.3.5-2.3.5-3 0-5.4-4.3-9.1-13-10.9-2.6-6.9-6.5-12.9-11.7-18-5.2-5.1-11.4-8.9-18.7-11.5-7.3-2.6-15.3-3.9-24-3.9-1.5 0-3.1 0-4.6.1-.1.8-.1 1.5-.3 2.2 1.4-.1 2.9-.1 4.4-.1 8.5 0 16.3 1.3 23.4 3.8 7.1 2.5 13.1 6.1 18.1 10.8s8.7 10.1 11.1 16.6c-2.4-.2-3.8-.3-4.1-.3-5 0-13.2 2-24.5 6-1.7-3.1-4.2-4.6-7.4-4.6s-7.6 1.5-13.1 4.6c-1.7-4.5-4.2-8.7-7.4-12.8-2.9-3.7-6.3-7-10.1-9.9-.7.4-1.4.8-2.2 1.1 3.9 2.8 7.3 6.1 10.2 9.7 3.2 4 5.8 8.3 7.7 13-4.8 2.7-12.7 8.9-23.7 18.6-1.8-.8-3.4-1.2-4.7-1.2-2.4 0-4.9.9-7.2 2.8-2.4 1.8-5.3 5-8.8 9.3-4.1-2.5-8.2-4.7-12.3-6.3 2.6-2.2 4.9-4.6 6.6-7 1.8-2.5 3.1-5 4.1-7.7.9-2.7 1.4-5.4 1.4-8.2 0-7.9-3.4-14.1-10.3-18.5 4.9-4.1 9.6-7.4 14-9.9-.5-.6-1-1.3-1.5-2-5 2.6-9.8 6-14.4 10.4-1.8-1-3.8-1.7-6.1-2.3-2.3-.6-4.6-.8-7-.8-3.6 0-7.4.8-11.4 2.3l.6 2.3c3.4-1.7 7-2.5 10.8-2.5 3.9 0 7.6.8 11 2.5-12.2 11.3-18.9 22.8-20.2 34.5-2.5-.5-5.2-.8-8.2-.8-7.3 0-13.5 1.4-18.7 4.1-7.2-6.4-10.7-13.4-10.7-21.2 0-4.7 1.3-9.4 3.8-14.1 2.5-4.7 5.9-8.7 10.1-12 4.3-3.4 9.6-5.9 15.9-7.7 6.3-1.8 13.1-2.7 20.5-2.7 5.3 0 10.4.4 15.3 1.3 2.1.4 4.2.8 6.3 1.4l-.6-2.4c-1.4-.3-2.8-.6-4.3-.9-5.6-1.1-11.2-1.6-17-1.6-9.9 0-18.8 1.6-26.8 4.9-8 3.3-14.2 7.9-18.7 13.7-4.5 5.9-6.7 12.4-6.7 19.6 0 4.6.8 8.7 2.5 12.2s4.5 7 8.4 10.6c-3.8 3-6.6 6.1-8.3 9.2-1.8 3.1-2.6 6.5-2.6 10.1 0 5 1.6 9.4 4.7 13.4s7.6 7.1 13.3 9.3c5.7 2.2 12.1 3.4 19.1 3.4 9.6 0 19.2-2.3 29-6.8 4.4 2.1 9.1 3.1 14.3 3.1 5 0 9.9-.9 14.6-2.8 4.7-1.9 9.1-4.5 13.2-8 6.3 1.5 11.9 2.2 16.8 2.2 1.6 0 4.5-.2 8.7-.6 2.2 7.4 8.8 11.1 19.9 11.1 7.5 0 14.3-1.5 20.6-4.5 6.2-3 11.1-7.1 14.6-12.4 3.5-5.3 5.3-11.1 5.3-17.7-.1-2.2-.5-4.9-1.4-7.7zm-122.2 12c-2.3 3.1-4.7 6.1-7 9-3 3.6-5.6 6.3-7.7 8.1-3.3-2.4-6.2-5.3-8.5-8.7-2.3-3.4-3.9-7.2-4.9-11.4 5.2-.4 10.2-2.2 15.2-5.3 3.6 1.9 7.9 4.7 12.9 8.3zm-8.5-50.9c6.4 4.3 9.6 10 9.6 17.1 0 8.4-4 15.7-12.1 22.1-5.9-2.8-11.9-4.7-17.8-5.8 1.9-11.9 8.7-23 20.3-33.4zm-20.2 35.6c4.2 1.2 8.8 3 13.6 5.6-2.2 1.3-4.3 2.3-6.4 2.9-2 .6-4.4 1.1-7.2 1.5-.2-3.1-.3-4.9-.3-5.4 0-.4.1-2 .3-4.6zm-9.6-1.2c2.7 0 5.1.3 7.3.7-.1 1-.2 2-.2 3.2 0 1.7.2 4.2.5 7.4-9.5-.2-17.8-2.7-25-7.7 4.8-2.4 10.6-3.6 17.4-3.6zm-4 44.8c-4.6 0-8.9-1-12.9-3s-7.2-4.7-9.6-8.1c-2.4-3.4-3.6-7-3.6-10.9 0-3.4 1-6.6 2.9-9.9 1.9-3.2 4.6-5.9 7.8-8 3.7 2.9 8 5.1 13.1 6.5 5.1 1.4 9.9 2.1 14.5 2.1 2.3 9.1 6.9 16.5 13.8 22.1-4.5 3.2-8.8 5.5-13 7-4.2 1.5-8.5 2.2-13 2.2zm33.2-4c-7.7 3.8-14.6 5.7-20.7 5.7h-1.8c3.9-.9 7.2-1.8 9.6-2.9 2.5-1.1 5.3-2.6 8.6-4.7 3.1-2.1 6.5-4.6 10-7.4 3.5-2.8 6.9-5.7 10.2-8.6 3.2-2.9 6.3-5.7 9.1-8.3 2.8-2.6 5.1-4.7 6.7-6.2 7.9-7.4 16.7-13.3 26.5-17.6 9.8-4.4 19.1-6.6 28.1-6.6 8.2 0 16 1.5 23.6 4.6 3.7 1.5 6.8 3.1 9.3 4.9 2.4 1.8 4.4 3.9 5.8 6.2-5.4-5.9-15.8-8.9-31.2-8.9-5.4 0-10.4.5-15.1 1.4-4.7.9-9.4 2.4-14.1 4.4-4.8 2-9.7 4.6-14.8 7.9-5.1 3.3-10.3 7.1-15.6 11.6-11.5 9.3-18.7 15.2-21.9 17.5-3.4 2.3-7.5 4.7-12.3 7zm19.1 2.2c-4.4 0-8.4-.8-11.8-2.3 3-1.5 6-3.1 9-5s7.2-4.6 12.5-8.1c4.9 2.4 10.1 4.3 15.8 5.8-7.7 6.4-16.2 9.6-25.5 9.6zm14.1-18.9c1.1-.8 2.4-1.8 4.1-3 1.7-1.2 3-2.2 4.1-3.1 6.6-4.8 12.8-8.9 18.5-12.4-1 9-5.3 17.5-12.7 25.3-6.3-2.6-11-4.8-14-6.8zm38.6 9.4c-2.3.3-4.3.5-6 .5-5.9 0-11.4-.8-16.3-2.3 4.1-4.5 7.1-8.9 9.1-13s3.2-8.9 3.9-14.3c3.2-1.9 6.9-3.6 11.1-5.1 4.1-1.5 8.4-2.6 12.8-3.4 4.4-.8 8.7-1.1 13-1.1 3.3 0 7 .3 10.9 1-.6 7.3-3.4 14.2-8.3 20.7-3.1-1.9-6.4-2.8-9.8-2.8-6.9 0-12 1.9-15.5 5.7-3.5 3.8-5.2 7.4-5.2 10.7 0 1.5.1 2.7.3 3.4zm1.8-3.8c0-3.3 1.7-6.5 5.1-9.5 3.4-3 8.1-4.6 14-4.6 2.7 0 5.4.8 7.9 2.5-3.3 3.8-7.2 6.9-11.8 9.5-4.6 2.5-9.5 4.4-14.9 5.4-.2-.9-.3-2-.3-3.3zm50.2.4c-3.3 4.5-7.8 8-13.4 10.6-5.6 2.6-11.7 3.9-18.2 3.9-4.7 0-8.6-.8-11.8-2.4-3.1-1.6-5.1-3.9-6-6.8 3.3-.7 6.7-1.9 10.3-3.5 3.6-1.6 6.8-3.5 9.8-5.6 2.9-2.1 5.5-4.5 7.6-7.2 1.3 1.3 2.2 2.5 2.7 3.5s.8 2.1.8 3.3c0 1.3-.5 2.7-1.4 4.3l1.5 1c1.2-1.9 1.8-3.8 1.8-5.4 0-3-1.4-5.7-4.1-8.2 4.6-5 7.6-12.1 8.8-21.5 5.2 1 9.2 3.4 12.1 7.3 2.9 3.9 4.4 8 4.4 12.3.1 5.1-1.6 9.9-4.9 14.4z"/><path d="M141 239.3c-18.5 0-36.5-1.7-52.1-5l-38-65.9c7.2 5.6 19 10.5 34.3 14 16.5 3.8 35.8 5.8 55.8 5.8s39.3-2 55.8-5.8c16.7-3.9 29.2-9.3 36.2-15.6l-38.8 67.2c-15.8 3.4-34.1 5.3-53.2 5.3zm88.6-68.6l-10.3 17.8-10.6 18.3-15.2 26.3c-15.6 3.4-33.7 5.1-52.5 5.1-18.3 0-36-1.7-51.4-4.9l-15.3-26.5-10.8-18.6-9.5-16.5c7.4 4.6 17.9 8.6 31 11.6h.1c16.5 3.8 35.8 5.8 55.9 5.8s39.4-2 55.9-5.8h.1c14.1-3.2 25.2-7.6 32.6-12.6m6.7-9.3c-5.1 8.3-19.6 15.4-39.7 20-15.7 3.6-34.9 5.8-55.6 5.8s-39.8-2.2-55.6-5.8c-20-4.6-34.5-11.7-39.6-19.9l16 27.7 10.8 18.6 15.7 27.3c15.2 3.3 33.3 5.1 52.7 5.1 19.9 0 38.4-2 53.8-5.4l15.6-27 10.6-18.3 16-27.7-.7-.4z" fill="#231F20"/></svg>