<?xml version="1.0" encoding="utf-8"?>
<!-- Generator: Adobe Illustrator 17.1.0, SVG Export Plug-In . SVG Version: 6.00 Build 0)  -->
<!DOCTYPE svg PUBLIC "-//W3C//DTD SVG 1.1//EN" "http://www.w3.org/Graphics/SVG/1.1/DTD/svg11.dtd">
<svg version="1.1" id="Layer_1" xmlns="http://www.w3.org/2000/svg" xmlns:xlink="http://www.w3.org/1999/xlink" x="0px" y="0px"
	 viewBox="0 0 288 288" enable-background="new 0 0 288 288" xml:space="preserve">
<linearGradient id="SVGID_1_" gradientUnits="userSpaceOnUse" x1="144" y1="68.8998" x2="144" y2="220.7682">
	<stop  offset="0" style="stop-color:#E55077"/>
	<stop  offset="1" style="stop-color:#ED625E"/>
</linearGradient>
<path fill="url(#SVGID_1_)" d="M233.1,144.2c-6.9,29.4-59.9,67.9-82.4,76.5c-0.2-0.1-0.4-0.3-0.6-0.4c-0.6-0.3-1.2-0.8-2-1.2
	l0.1,0.8c-24.5-6-78.7-36.9-89.2-64.3C42.7,127.8,48.5,94.4,71.7,81c21.7-12.5,50.8-3.5,67.8,20c1.3,1.7,2.5,3.6,3.6,5.5
	c12.5-29.1,42.4-44.5,67.2-34.4C235.2,82.2,245.4,114.6,233.1,144.2z"/>
</svg>
