<?xml version="1.0" encoding="utf-8"?>
<!-- Generator: Adobe Illustrator 17.1.0, SVG Export Plug-In . SVG Version: 6.00 Build 0)  -->
<!DOCTYPE svg PUBLIC "-//W3C//DTD SVG 1.1//EN" "http://www.w3.org/Graphics/SVG/1.1/DTD/svg11.dtd">
<svg version="1.1" id="Layer_1" xmlns="http://www.w3.org/2000/svg" xmlns:xlink="http://www.w3.org/1999/xlink" x="0px" y="0px"
	 viewBox="0 0 288 288" enable-background="new 0 0 288 288" xml:space="preserve">
<g>
	<path fill="#67655E" d="M228,139.7c0,14.3-40.3,25.9-90,25.9c-49.7,0-90-11.6-90-25.9c0-14.3,40.3-25.9,90-25.9
		C187.7,113.8,228,125.4,228,139.7z"/>
	
		<radialGradient id="SVGID_1_" cx="147.9825" cy="100.8302" r="98.5627" gradientTransform="matrix(1 0 0 0.371 0 63.4187)" gradientUnits="userSpaceOnUse">
		<stop  offset="0.5383" style="stop-color:#F47621"/>
		<stop  offset="0.5554" style="stop-color:#F47D20"/>
		<stop  offset="0.6024" style="stop-color:#F78D1E"/>
		<stop  offset="0.6532" style="stop-color:#F8981D"/>
		<stop  offset="0.7102" style="stop-color:#F99F1B"/>
		<stop  offset="0.7857" style="stop-color:#F9A11B"/>
		<stop  offset="0.8112" style="stop-color:#F99D1C"/>
		<stop  offset="0.845" style="stop-color:#F7911E"/>
		<stop  offset="0.8835" style="stop-color:#F57E20"/>
		<stop  offset="0.897" style="stop-color:#F47621"/>
		<stop  offset="1" style="stop-color:#F15623"/>
	</radialGradient>
	<path fill="url(#SVGID_1_)" d="M60.9,95.6c6.2-13.1,23.6-13,51.6-5c27.9,8,73.2,5.7,89.4-5.1c16.2-10.8,26.7,34.5,5.8,48.8
		c-29.4,20-93.7,15.7-129.7,4.3C49.3,129.7,55.9,106.4,60.9,95.6z"/>
	<path fill="#AAA99D" d="M60.9,95.6c6.2-13.1,23.6-13,51.6-5c27.9,8,73.2,5.7,89.4-5.1c16.2-10.8,26.7,34.5,5.8,48.8
		c-29.4,20-93.7,15.7-129.7,4.3C49.3,129.7,55.9,106.4,60.9,95.6z"/>
	<g>
		<path fill="#EE2A7B" d="M114.1,162.1l-7.2-8l-8.7,6.3l3.4,103.5c4.4,0.6,9.1,1.1,14.1,1.5L114.1,162.1L114.1,162.1z"/>
		<path fill="#EE2A7B" d="M146,162.8l-8-7.2l-8,7.2l-0.3-0.3l0.8,103.6c2.5,0.1,5,0.1,7.5,0.1c2.8,0,5.6,0,8.3-0.1L146,162.8
			L146,162.8z"/>
		<path fill="#EE2A7B" d="M51.7,147.1l-3.3-11.8l-4.9,1.6l0,0L62,247.3c0.1,1,0.5,1.9,1.1,2.8L51.7,147.1L51.7,147.1z"/>
		<path fill="#EE2A7B" d="M82.3,157.8l-6.1-8.9l-9.5,4.8l10.5,104.8c3.9,1.3,8.4,2.5,13.5,3.6L82.3,157.8L82.3,157.8z"/>
		<path fill="#EE2A7B" d="M232.7,136.7l-3.7-0.4l-4.5,10.5l-12.2,104.1c1-1.2,1.6-2.4,1.8-3.6L232.7,136.7z"/>
		<path fill="#EE2A7B" d="M209.5,153.7l-9.6-4.8l-6,8.8L186,262c5.1-1.1,9.6-2.3,13.5-3.6l10.1-104.8L209.5,153.7z"/>
		<path fill="#EE2A7B" d="M177.9,160.4l-8.7-6.3l-7.2,7.9l-0.8,103.3c4.9-0.4,9.6-0.9,14-1.5L177.9,160.4L177.9,160.4z"/>
	</g>
	<g>
		<path fill="#FFFCE8" d="M98.2,160.4l-6.7-8.4l-9.1,5.7L90.8,262c3.4,0.7,7,1.3,10.8,1.8L98.2,160.4L98.2,160.4z"/>
		<path fill="#FFFCE8" d="M122.4,155.3l-8.3,6.8l1.5,103.3c4.8,0.4,9.8,0.6,14.9,0.8l-0.8-103.6L122.4,155.3z"/>
		<path fill="#FFFCE8" d="M66.6,153.7l-4.9-9.5l-10,2.9l11.4,103.1c2.1,3.1,7,5.9,14.1,8.3L66.6,153.7L66.6,153.7z"/>
		<path fill="#FFFCE8" d="M224.4,147.1l-10-2.9l-4.8,9.4l-10.1,104.8c6.1-2.2,10.5-4.7,12.8-7.4l12.2-104.1L224.4,147.1z"/>
		<path fill="#FFFCE8" d="M193.8,157.8l-9.1-5.7l-6.7,8.3l-2.7,103.4c3.8-0.5,7.3-1.1,10.7-1.8L193.8,157.8L193.8,157.8z"/>
		<path fill="#FFFCE8" d="M162,162.1l-8.3-6.8l-7.6,7.6l0.3,103.3c5.2-0.1,10.1-0.4,14.9-0.8L162,162.1L162,162.1z"/>
	</g>
	<path fill="#E2E0D0" d="M80.5,99.9c-11.6-10.5-9.1-29.3,9.4-37.6c37.6-16.8,67.8,25.4,96.7,10.5c28.9-14.9,22.9,28.5,10.1,37.4
		C169.1,129.5,98.9,116.5,80.5,99.9z"/>
	<path fill="#FFFCE8" d="M99.2,69c-3.3-7.7-3.9-31.7,20.7-34.6c13.1-1.6,16.9,5.3,26.1,5.7c10.1,0.4,25.6-6.4,44.4,11.4
		c18.8,17.8,12.1,47.2-40,29.9C98.2,64.1,103.5,78.9,99.2,69z"/>
	<path fill="#8B5834" d="M157.7,46.8c0,2.8-5.9,5-13.1,5c-7.2,0-13.1-2.2-13.1-5c0-2.8,5.9-5,13.1-5
		C151.9,41.8,157.7,44.1,157.7,46.8z"/>
	<path fill="#DA1C5C" d="M162.8,35.1c-1,10.1-10.1,17.4-20.1,16.3c-10.1-1-17.4-10-16.3-20.1c1-10.1,10.1-17.4,20.1-16.3
		C156.6,16,163.9,25,162.8,35.1z"/>
	<path fill="#EE2A7B" d="M160.8,33.3c-0.9,8.9-7.4,1-16.2,0.1c-8.9-0.9-16.8,5.4-15.8-3.4c0.9-8.9,8.8-15.3,17.7-14.4
		C155.3,16.5,161.7,24.4,160.8,33.3z"/>
	<path fill="#FFFCE8" d="M146.9,22.6c-0.3,3-3,5.1-5.9,4.8c-3-0.3-5.1-3-4.8-5.9c0.3-3,3-5.1,5.9-4.8
		C145.1,17,147.2,19.7,146.9,22.6z"/>
</g>
</svg>
