<svg xmlns="http://www.w3.org/2000/svg" viewBox="0 0 288 288" enable-background="new 0 0 288 288"><path fill="#AD8F8A" d="M228 139.7c0 14.3-40.3 25.9-90 25.9s-90-11.6-90-25.9c0-14.3 40.3-25.9 90-25.9s90 11.6 90 25.9z"/><radialGradient id="a" cx="147.982" cy="100.83" r="98.563" gradientTransform="matrix(1 0 0 .371 0 63.419)" gradientUnits="userSpaceOnUse"><stop offset=".538" stop-color="#F47621"/><stop offset=".555" stop-color="#F47D20"/><stop offset=".602" stop-color="#F78D1E"/><stop offset=".653" stop-color="#F8981D"/><stop offset=".71" stop-color="#F99F1B"/><stop offset=".786" stop-color="#F9A11B"/><stop offset=".811" stop-color="#F99D1C"/><stop offset=".845" stop-color="#F7911E"/><stop offset=".883" stop-color="#F57E20"/><stop offset=".897" stop-color="#F47621"/><stop offset="1" stop-color="#F15623"/></radialGradient><path fill="url(#a)" d="M60.9 95.6c6.2-13.1 23.6-13 51.6-5 27.9 8 73.2 5.7 89.4-5.1 16.2-10.8 26.7 34.5 5.8 48.8-29.4 20-93.7 15.7-129.7 4.3-28.7-8.9-22.1-32.2-17.1-43z"/><path fill="#EAC4BA" d="M60.9 95.6c6.2-13.1 23.6-13 51.6-5 27.9 8 73.2 5.7 89.4-5.1 16.2-10.8 26.7 34.5 5.8 48.8-29.4 20-93.7 15.7-129.7 4.3-28.7-8.9-22.1-32.2-17.1-43z"/><path d="M114.1 162.1l-7.2-8-8.7 6.3 3.4 103.5c4.4.6 9.1 1.1 14.1 1.5l-1.6-103.3zm31.9.7l-8-7.2-8 7.2-.3-.3.8 103.6c2.5.1 5 .1 7.5.1 2.8 0 5.6 0 8.3-.1l-.3-103.3zm-94.3-15.7l-3.3-11.8-4.9 1.6 18.5 110.4c.1 1 .5 1.9 1.1 2.8l-11.4-103zm30.6 10.7l-6.1-8.9-9.5 4.8 10.5 104.8c3.9 1.3 8.4 2.5 13.5 3.6l-8.4-104.3zm150.4-21.1l-3.7-.4-4.5 10.5-12.2 104.1c1-1.2 1.6-2.4 1.8-3.6l18.6-110.6zm-23.2 17l-9.6-4.8-6 8.8-7.9 104.3c5.1-1.1 9.6-2.3 13.5-3.6l10.1-104.8-.1.1zm-31.6 6.7l-8.7-6.3-7.2 7.9-.8 103.3c4.9-.4 9.6-.9 14-1.5l2.7-103.4z" fill="#92278F"/><path d="M98.2 160.4l-6.7-8.4-9.1 5.7 8.4 104.3c3.4.7 7 1.3 10.8 1.8l-3.4-103.4zm24.2-5.1l-8.3 6.8 1.5 103.3c4.8.4 9.8.6 14.9.8l-.8-103.6-7.3-7.3zm-55.8-1.6l-4.9-9.5-10 2.9 11.4 103.1c2.1 3.1 7 5.9 14.1 8.3l-10.6-104.8zm157.8-6.6l-10-2.9-4.8 9.4-10.1 104.8c6.1-2.2 10.5-4.7 12.8-7.4l12.2-104.1-.1.2zm-30.6 10.7l-9.1-5.7-6.7 8.3-2.7 103.4c3.8-.5 7.3-1.1 10.7-1.8l7.8-104.2zm-31.8 4.3l-8.3-6.8-7.6 7.6.3 103.3c5.2-.1 10.1-.4 14.9-.8l.7-103.3z" fill="#662D91"/><path fill="#F3D2BA" d="M80.5 99.9c-11.6-10.5-9.1-29.3 9.4-37.6 37.6-16.8 67.8 25.4 96.7 10.5 28.9-14.9 22.9 28.5 10.1 37.4-27.6 19.3-97.8 6.3-116.2-10.3z"/><path fill="#FFFCE8" d="M99.2 69c-3.3-7.7-3.9-31.7 20.7-34.6 13.1-1.6 16.9 5.3 26.1 5.7 10.1.4 25.6-6.4 44.4 11.4 18.8 17.8 12.1 47.2-40 29.9-52.2-17.3-46.9-2.5-51.2-12.4z"/></svg>